G04 #@! TF.GenerationSoftware,KiCad,Pcbnew,5.0.0-fee4fd1~66~ubuntu18.04.1*
G04 #@! TF.CreationDate,2018-09-10T21:16:37+02:00*
G04 #@! TF.ProjectId,QuadCAN-FD,5175616443414E2D46442E6B69636164,rev?*
G04 #@! TF.SameCoordinates,Original*
G04 #@! TF.FileFunction,Soldermask,Bot*
G04 #@! TF.FilePolarity,Negative*
%FSLAX46Y46*%
G04 Gerber Fmt 4.6, Leading zero omitted, Abs format (unit mm)*
G04 Created by KiCad (PCBNEW 5.0.0-fee4fd1~66~ubuntu18.04.1) date Mon Sep 10 21:16:37 2018*
%MOMM*%
%LPD*%
G01*
G04 APERTURE LIST*
%ADD10C,0.100000*%
%ADD11C,0.976600*%
%ADD12C,1.076600*%
%ADD13R,1.801600X1.801600*%
%ADD14O,1.801600X1.801600*%
G04 APERTURE END LIST*
D10*
G04 #@! TO.C,C22*
G36*
X88423081Y-50440376D02*
X88446781Y-50443891D01*
X88470023Y-50449713D01*
X88492582Y-50457785D01*
X88514242Y-50468029D01*
X88534792Y-50480347D01*
X88554037Y-50494619D01*
X88571790Y-50510710D01*
X88587881Y-50528463D01*
X88602153Y-50547708D01*
X88614471Y-50568258D01*
X88624715Y-50589918D01*
X88632787Y-50612477D01*
X88638609Y-50635719D01*
X88642124Y-50659419D01*
X88643300Y-50683350D01*
X88643300Y-51246650D01*
X88642124Y-51270581D01*
X88638609Y-51294281D01*
X88632787Y-51317523D01*
X88624715Y-51340082D01*
X88614471Y-51361742D01*
X88602153Y-51382292D01*
X88587881Y-51401537D01*
X88571790Y-51419290D01*
X88554037Y-51435381D01*
X88534792Y-51449653D01*
X88514242Y-51461971D01*
X88492582Y-51472215D01*
X88470023Y-51480287D01*
X88446781Y-51486109D01*
X88423081Y-51489624D01*
X88399150Y-51490800D01*
X87910850Y-51490800D01*
X87886919Y-51489624D01*
X87863219Y-51486109D01*
X87839977Y-51480287D01*
X87817418Y-51472215D01*
X87795758Y-51461971D01*
X87775208Y-51449653D01*
X87755963Y-51435381D01*
X87738210Y-51419290D01*
X87722119Y-51401537D01*
X87707847Y-51382292D01*
X87695529Y-51361742D01*
X87685285Y-51340082D01*
X87677213Y-51317523D01*
X87671391Y-51294281D01*
X87667876Y-51270581D01*
X87666700Y-51246650D01*
X87666700Y-50683350D01*
X87667876Y-50659419D01*
X87671391Y-50635719D01*
X87677213Y-50612477D01*
X87685285Y-50589918D01*
X87695529Y-50568258D01*
X87707847Y-50547708D01*
X87722119Y-50528463D01*
X87738210Y-50510710D01*
X87755963Y-50494619D01*
X87775208Y-50480347D01*
X87795758Y-50468029D01*
X87817418Y-50457785D01*
X87839977Y-50449713D01*
X87863219Y-50443891D01*
X87886919Y-50440376D01*
X87910850Y-50439200D01*
X88399150Y-50439200D01*
X88423081Y-50440376D01*
X88423081Y-50440376D01*
G37*
D11*
X88155000Y-50965000D03*
D10*
G36*
X86848081Y-50440376D02*
X86871781Y-50443891D01*
X86895023Y-50449713D01*
X86917582Y-50457785D01*
X86939242Y-50468029D01*
X86959792Y-50480347D01*
X86979037Y-50494619D01*
X86996790Y-50510710D01*
X87012881Y-50528463D01*
X87027153Y-50547708D01*
X87039471Y-50568258D01*
X87049715Y-50589918D01*
X87057787Y-50612477D01*
X87063609Y-50635719D01*
X87067124Y-50659419D01*
X87068300Y-50683350D01*
X87068300Y-51246650D01*
X87067124Y-51270581D01*
X87063609Y-51294281D01*
X87057787Y-51317523D01*
X87049715Y-51340082D01*
X87039471Y-51361742D01*
X87027153Y-51382292D01*
X87012881Y-51401537D01*
X86996790Y-51419290D01*
X86979037Y-51435381D01*
X86959792Y-51449653D01*
X86939242Y-51461971D01*
X86917582Y-51472215D01*
X86895023Y-51480287D01*
X86871781Y-51486109D01*
X86848081Y-51489624D01*
X86824150Y-51490800D01*
X86335850Y-51490800D01*
X86311919Y-51489624D01*
X86288219Y-51486109D01*
X86264977Y-51480287D01*
X86242418Y-51472215D01*
X86220758Y-51461971D01*
X86200208Y-51449653D01*
X86180963Y-51435381D01*
X86163210Y-51419290D01*
X86147119Y-51401537D01*
X86132847Y-51382292D01*
X86120529Y-51361742D01*
X86110285Y-51340082D01*
X86102213Y-51317523D01*
X86096391Y-51294281D01*
X86092876Y-51270581D01*
X86091700Y-51246650D01*
X86091700Y-50683350D01*
X86092876Y-50659419D01*
X86096391Y-50635719D01*
X86102213Y-50612477D01*
X86110285Y-50589918D01*
X86120529Y-50568258D01*
X86132847Y-50547708D01*
X86147119Y-50528463D01*
X86163210Y-50510710D01*
X86180963Y-50494619D01*
X86200208Y-50480347D01*
X86220758Y-50468029D01*
X86242418Y-50457785D01*
X86264977Y-50449713D01*
X86288219Y-50443891D01*
X86311919Y-50440376D01*
X86335850Y-50439200D01*
X86824150Y-50439200D01*
X86848081Y-50440376D01*
X86848081Y-50440376D01*
G37*
D11*
X86580000Y-50965000D03*
G04 #@! TD*
D10*
G04 #@! TO.C,R12*
G36*
X93600531Y-30215496D02*
X93626659Y-30219372D01*
X93652280Y-30225790D01*
X93677149Y-30234688D01*
X93701026Y-30245981D01*
X93723682Y-30259560D01*
X93744897Y-30275294D01*
X93764468Y-30293032D01*
X93782206Y-30312603D01*
X93797940Y-30333818D01*
X93811519Y-30356474D01*
X93822812Y-30380351D01*
X93831710Y-30405220D01*
X93838128Y-30430841D01*
X93842004Y-30456969D01*
X93843300Y-30483350D01*
X93843300Y-31446650D01*
X93842004Y-31473031D01*
X93838128Y-31499159D01*
X93831710Y-31524780D01*
X93822812Y-31549649D01*
X93811519Y-31573526D01*
X93797940Y-31596182D01*
X93782206Y-31617397D01*
X93764468Y-31636968D01*
X93744897Y-31654706D01*
X93723682Y-31670440D01*
X93701026Y-31684019D01*
X93677149Y-31695312D01*
X93652280Y-31704210D01*
X93626659Y-31710628D01*
X93600531Y-31714504D01*
X93574150Y-31715800D01*
X93035850Y-31715800D01*
X93009469Y-31714504D01*
X92983341Y-31710628D01*
X92957720Y-31704210D01*
X92932851Y-31695312D01*
X92908974Y-31684019D01*
X92886318Y-31670440D01*
X92865103Y-31654706D01*
X92845532Y-31636968D01*
X92827794Y-31617397D01*
X92812060Y-31596182D01*
X92798481Y-31573526D01*
X92787188Y-31549649D01*
X92778290Y-31524780D01*
X92771872Y-31499159D01*
X92767996Y-31473031D01*
X92766700Y-31446650D01*
X92766700Y-30483350D01*
X92767996Y-30456969D01*
X92771872Y-30430841D01*
X92778290Y-30405220D01*
X92787188Y-30380351D01*
X92798481Y-30356474D01*
X92812060Y-30333818D01*
X92827794Y-30312603D01*
X92845532Y-30293032D01*
X92865103Y-30275294D01*
X92886318Y-30259560D01*
X92908974Y-30245981D01*
X92932851Y-30234688D01*
X92957720Y-30225790D01*
X92983341Y-30219372D01*
X93009469Y-30215496D01*
X93035850Y-30214200D01*
X93574150Y-30214200D01*
X93600531Y-30215496D01*
X93600531Y-30215496D01*
G37*
D12*
X93305000Y-30965000D03*
D10*
G36*
X91725531Y-30215496D02*
X91751659Y-30219372D01*
X91777280Y-30225790D01*
X91802149Y-30234688D01*
X91826026Y-30245981D01*
X91848682Y-30259560D01*
X91869897Y-30275294D01*
X91889468Y-30293032D01*
X91907206Y-30312603D01*
X91922940Y-30333818D01*
X91936519Y-30356474D01*
X91947812Y-30380351D01*
X91956710Y-30405220D01*
X91963128Y-30430841D01*
X91967004Y-30456969D01*
X91968300Y-30483350D01*
X91968300Y-31446650D01*
X91967004Y-31473031D01*
X91963128Y-31499159D01*
X91956710Y-31524780D01*
X91947812Y-31549649D01*
X91936519Y-31573526D01*
X91922940Y-31596182D01*
X91907206Y-31617397D01*
X91889468Y-31636968D01*
X91869897Y-31654706D01*
X91848682Y-31670440D01*
X91826026Y-31684019D01*
X91802149Y-31695312D01*
X91777280Y-31704210D01*
X91751659Y-31710628D01*
X91725531Y-31714504D01*
X91699150Y-31715800D01*
X91160850Y-31715800D01*
X91134469Y-31714504D01*
X91108341Y-31710628D01*
X91082720Y-31704210D01*
X91057851Y-31695312D01*
X91033974Y-31684019D01*
X91011318Y-31670440D01*
X90990103Y-31654706D01*
X90970532Y-31636968D01*
X90952794Y-31617397D01*
X90937060Y-31596182D01*
X90923481Y-31573526D01*
X90912188Y-31549649D01*
X90903290Y-31524780D01*
X90896872Y-31499159D01*
X90892996Y-31473031D01*
X90891700Y-31446650D01*
X90891700Y-30483350D01*
X90892996Y-30456969D01*
X90896872Y-30430841D01*
X90903290Y-30405220D01*
X90912188Y-30380351D01*
X90923481Y-30356474D01*
X90937060Y-30333818D01*
X90952794Y-30312603D01*
X90970532Y-30293032D01*
X90990103Y-30275294D01*
X91011318Y-30259560D01*
X91033974Y-30245981D01*
X91057851Y-30234688D01*
X91082720Y-30225790D01*
X91108341Y-30219372D01*
X91134469Y-30215496D01*
X91160850Y-30214200D01*
X91699150Y-30214200D01*
X91725531Y-30215496D01*
X91725531Y-30215496D01*
G37*
D12*
X91430000Y-30965000D03*
G04 #@! TD*
D10*
G04 #@! TO.C,R13*
G36*
X90100531Y-30215496D02*
X90126659Y-30219372D01*
X90152280Y-30225790D01*
X90177149Y-30234688D01*
X90201026Y-30245981D01*
X90223682Y-30259560D01*
X90244897Y-30275294D01*
X90264468Y-30293032D01*
X90282206Y-30312603D01*
X90297940Y-30333818D01*
X90311519Y-30356474D01*
X90322812Y-30380351D01*
X90331710Y-30405220D01*
X90338128Y-30430841D01*
X90342004Y-30456969D01*
X90343300Y-30483350D01*
X90343300Y-31446650D01*
X90342004Y-31473031D01*
X90338128Y-31499159D01*
X90331710Y-31524780D01*
X90322812Y-31549649D01*
X90311519Y-31573526D01*
X90297940Y-31596182D01*
X90282206Y-31617397D01*
X90264468Y-31636968D01*
X90244897Y-31654706D01*
X90223682Y-31670440D01*
X90201026Y-31684019D01*
X90177149Y-31695312D01*
X90152280Y-31704210D01*
X90126659Y-31710628D01*
X90100531Y-31714504D01*
X90074150Y-31715800D01*
X89535850Y-31715800D01*
X89509469Y-31714504D01*
X89483341Y-31710628D01*
X89457720Y-31704210D01*
X89432851Y-31695312D01*
X89408974Y-31684019D01*
X89386318Y-31670440D01*
X89365103Y-31654706D01*
X89345532Y-31636968D01*
X89327794Y-31617397D01*
X89312060Y-31596182D01*
X89298481Y-31573526D01*
X89287188Y-31549649D01*
X89278290Y-31524780D01*
X89271872Y-31499159D01*
X89267996Y-31473031D01*
X89266700Y-31446650D01*
X89266700Y-30483350D01*
X89267996Y-30456969D01*
X89271872Y-30430841D01*
X89278290Y-30405220D01*
X89287188Y-30380351D01*
X89298481Y-30356474D01*
X89312060Y-30333818D01*
X89327794Y-30312603D01*
X89345532Y-30293032D01*
X89365103Y-30275294D01*
X89386318Y-30259560D01*
X89408974Y-30245981D01*
X89432851Y-30234688D01*
X89457720Y-30225790D01*
X89483341Y-30219372D01*
X89509469Y-30215496D01*
X89535850Y-30214200D01*
X90074150Y-30214200D01*
X90100531Y-30215496D01*
X90100531Y-30215496D01*
G37*
D12*
X89805000Y-30965000D03*
D10*
G36*
X88225531Y-30215496D02*
X88251659Y-30219372D01*
X88277280Y-30225790D01*
X88302149Y-30234688D01*
X88326026Y-30245981D01*
X88348682Y-30259560D01*
X88369897Y-30275294D01*
X88389468Y-30293032D01*
X88407206Y-30312603D01*
X88422940Y-30333818D01*
X88436519Y-30356474D01*
X88447812Y-30380351D01*
X88456710Y-30405220D01*
X88463128Y-30430841D01*
X88467004Y-30456969D01*
X88468300Y-30483350D01*
X88468300Y-31446650D01*
X88467004Y-31473031D01*
X88463128Y-31499159D01*
X88456710Y-31524780D01*
X88447812Y-31549649D01*
X88436519Y-31573526D01*
X88422940Y-31596182D01*
X88407206Y-31617397D01*
X88389468Y-31636968D01*
X88369897Y-31654706D01*
X88348682Y-31670440D01*
X88326026Y-31684019D01*
X88302149Y-31695312D01*
X88277280Y-31704210D01*
X88251659Y-31710628D01*
X88225531Y-31714504D01*
X88199150Y-31715800D01*
X87660850Y-31715800D01*
X87634469Y-31714504D01*
X87608341Y-31710628D01*
X87582720Y-31704210D01*
X87557851Y-31695312D01*
X87533974Y-31684019D01*
X87511318Y-31670440D01*
X87490103Y-31654706D01*
X87470532Y-31636968D01*
X87452794Y-31617397D01*
X87437060Y-31596182D01*
X87423481Y-31573526D01*
X87412188Y-31549649D01*
X87403290Y-31524780D01*
X87396872Y-31499159D01*
X87392996Y-31473031D01*
X87391700Y-31446650D01*
X87391700Y-30483350D01*
X87392996Y-30456969D01*
X87396872Y-30430841D01*
X87403290Y-30405220D01*
X87412188Y-30380351D01*
X87423481Y-30356474D01*
X87437060Y-30333818D01*
X87452794Y-30312603D01*
X87470532Y-30293032D01*
X87490103Y-30275294D01*
X87511318Y-30259560D01*
X87533974Y-30245981D01*
X87557851Y-30234688D01*
X87582720Y-30225790D01*
X87608341Y-30219372D01*
X87634469Y-30215496D01*
X87660850Y-30214200D01*
X88199150Y-30214200D01*
X88225531Y-30215496D01*
X88225531Y-30215496D01*
G37*
D12*
X87930000Y-30965000D03*
G04 #@! TD*
D10*
G04 #@! TO.C,R11*
G36*
X97100531Y-30215496D02*
X97126659Y-30219372D01*
X97152280Y-30225790D01*
X97177149Y-30234688D01*
X97201026Y-30245981D01*
X97223682Y-30259560D01*
X97244897Y-30275294D01*
X97264468Y-30293032D01*
X97282206Y-30312603D01*
X97297940Y-30333818D01*
X97311519Y-30356474D01*
X97322812Y-30380351D01*
X97331710Y-30405220D01*
X97338128Y-30430841D01*
X97342004Y-30456969D01*
X97343300Y-30483350D01*
X97343300Y-31446650D01*
X97342004Y-31473031D01*
X97338128Y-31499159D01*
X97331710Y-31524780D01*
X97322812Y-31549649D01*
X97311519Y-31573526D01*
X97297940Y-31596182D01*
X97282206Y-31617397D01*
X97264468Y-31636968D01*
X97244897Y-31654706D01*
X97223682Y-31670440D01*
X97201026Y-31684019D01*
X97177149Y-31695312D01*
X97152280Y-31704210D01*
X97126659Y-31710628D01*
X97100531Y-31714504D01*
X97074150Y-31715800D01*
X96535850Y-31715800D01*
X96509469Y-31714504D01*
X96483341Y-31710628D01*
X96457720Y-31704210D01*
X96432851Y-31695312D01*
X96408974Y-31684019D01*
X96386318Y-31670440D01*
X96365103Y-31654706D01*
X96345532Y-31636968D01*
X96327794Y-31617397D01*
X96312060Y-31596182D01*
X96298481Y-31573526D01*
X96287188Y-31549649D01*
X96278290Y-31524780D01*
X96271872Y-31499159D01*
X96267996Y-31473031D01*
X96266700Y-31446650D01*
X96266700Y-30483350D01*
X96267996Y-30456969D01*
X96271872Y-30430841D01*
X96278290Y-30405220D01*
X96287188Y-30380351D01*
X96298481Y-30356474D01*
X96312060Y-30333818D01*
X96327794Y-30312603D01*
X96345532Y-30293032D01*
X96365103Y-30275294D01*
X96386318Y-30259560D01*
X96408974Y-30245981D01*
X96432851Y-30234688D01*
X96457720Y-30225790D01*
X96483341Y-30219372D01*
X96509469Y-30215496D01*
X96535850Y-30214200D01*
X97074150Y-30214200D01*
X97100531Y-30215496D01*
X97100531Y-30215496D01*
G37*
D12*
X96805000Y-30965000D03*
D10*
G36*
X95225531Y-30215496D02*
X95251659Y-30219372D01*
X95277280Y-30225790D01*
X95302149Y-30234688D01*
X95326026Y-30245981D01*
X95348682Y-30259560D01*
X95369897Y-30275294D01*
X95389468Y-30293032D01*
X95407206Y-30312603D01*
X95422940Y-30333818D01*
X95436519Y-30356474D01*
X95447812Y-30380351D01*
X95456710Y-30405220D01*
X95463128Y-30430841D01*
X95467004Y-30456969D01*
X95468300Y-30483350D01*
X95468300Y-31446650D01*
X95467004Y-31473031D01*
X95463128Y-31499159D01*
X95456710Y-31524780D01*
X95447812Y-31549649D01*
X95436519Y-31573526D01*
X95422940Y-31596182D01*
X95407206Y-31617397D01*
X95389468Y-31636968D01*
X95369897Y-31654706D01*
X95348682Y-31670440D01*
X95326026Y-31684019D01*
X95302149Y-31695312D01*
X95277280Y-31704210D01*
X95251659Y-31710628D01*
X95225531Y-31714504D01*
X95199150Y-31715800D01*
X94660850Y-31715800D01*
X94634469Y-31714504D01*
X94608341Y-31710628D01*
X94582720Y-31704210D01*
X94557851Y-31695312D01*
X94533974Y-31684019D01*
X94511318Y-31670440D01*
X94490103Y-31654706D01*
X94470532Y-31636968D01*
X94452794Y-31617397D01*
X94437060Y-31596182D01*
X94423481Y-31573526D01*
X94412188Y-31549649D01*
X94403290Y-31524780D01*
X94396872Y-31499159D01*
X94392996Y-31473031D01*
X94391700Y-31446650D01*
X94391700Y-30483350D01*
X94392996Y-30456969D01*
X94396872Y-30430841D01*
X94403290Y-30405220D01*
X94412188Y-30380351D01*
X94423481Y-30356474D01*
X94437060Y-30333818D01*
X94452794Y-30312603D01*
X94470532Y-30293032D01*
X94490103Y-30275294D01*
X94511318Y-30259560D01*
X94533974Y-30245981D01*
X94557851Y-30234688D01*
X94582720Y-30225790D01*
X94608341Y-30219372D01*
X94634469Y-30215496D01*
X94660850Y-30214200D01*
X95199150Y-30214200D01*
X95225531Y-30215496D01*
X95225531Y-30215496D01*
G37*
D12*
X94930000Y-30965000D03*
G04 #@! TD*
D10*
G04 #@! TO.C,R14*
G36*
X86600531Y-30215496D02*
X86626659Y-30219372D01*
X86652280Y-30225790D01*
X86677149Y-30234688D01*
X86701026Y-30245981D01*
X86723682Y-30259560D01*
X86744897Y-30275294D01*
X86764468Y-30293032D01*
X86782206Y-30312603D01*
X86797940Y-30333818D01*
X86811519Y-30356474D01*
X86822812Y-30380351D01*
X86831710Y-30405220D01*
X86838128Y-30430841D01*
X86842004Y-30456969D01*
X86843300Y-30483350D01*
X86843300Y-31446650D01*
X86842004Y-31473031D01*
X86838128Y-31499159D01*
X86831710Y-31524780D01*
X86822812Y-31549649D01*
X86811519Y-31573526D01*
X86797940Y-31596182D01*
X86782206Y-31617397D01*
X86764468Y-31636968D01*
X86744897Y-31654706D01*
X86723682Y-31670440D01*
X86701026Y-31684019D01*
X86677149Y-31695312D01*
X86652280Y-31704210D01*
X86626659Y-31710628D01*
X86600531Y-31714504D01*
X86574150Y-31715800D01*
X86035850Y-31715800D01*
X86009469Y-31714504D01*
X85983341Y-31710628D01*
X85957720Y-31704210D01*
X85932851Y-31695312D01*
X85908974Y-31684019D01*
X85886318Y-31670440D01*
X85865103Y-31654706D01*
X85845532Y-31636968D01*
X85827794Y-31617397D01*
X85812060Y-31596182D01*
X85798481Y-31573526D01*
X85787188Y-31549649D01*
X85778290Y-31524780D01*
X85771872Y-31499159D01*
X85767996Y-31473031D01*
X85766700Y-31446650D01*
X85766700Y-30483350D01*
X85767996Y-30456969D01*
X85771872Y-30430841D01*
X85778290Y-30405220D01*
X85787188Y-30380351D01*
X85798481Y-30356474D01*
X85812060Y-30333818D01*
X85827794Y-30312603D01*
X85845532Y-30293032D01*
X85865103Y-30275294D01*
X85886318Y-30259560D01*
X85908974Y-30245981D01*
X85932851Y-30234688D01*
X85957720Y-30225790D01*
X85983341Y-30219372D01*
X86009469Y-30215496D01*
X86035850Y-30214200D01*
X86574150Y-30214200D01*
X86600531Y-30215496D01*
X86600531Y-30215496D01*
G37*
D12*
X86305000Y-30965000D03*
D10*
G36*
X84725531Y-30215496D02*
X84751659Y-30219372D01*
X84777280Y-30225790D01*
X84802149Y-30234688D01*
X84826026Y-30245981D01*
X84848682Y-30259560D01*
X84869897Y-30275294D01*
X84889468Y-30293032D01*
X84907206Y-30312603D01*
X84922940Y-30333818D01*
X84936519Y-30356474D01*
X84947812Y-30380351D01*
X84956710Y-30405220D01*
X84963128Y-30430841D01*
X84967004Y-30456969D01*
X84968300Y-30483350D01*
X84968300Y-31446650D01*
X84967004Y-31473031D01*
X84963128Y-31499159D01*
X84956710Y-31524780D01*
X84947812Y-31549649D01*
X84936519Y-31573526D01*
X84922940Y-31596182D01*
X84907206Y-31617397D01*
X84889468Y-31636968D01*
X84869897Y-31654706D01*
X84848682Y-31670440D01*
X84826026Y-31684019D01*
X84802149Y-31695312D01*
X84777280Y-31704210D01*
X84751659Y-31710628D01*
X84725531Y-31714504D01*
X84699150Y-31715800D01*
X84160850Y-31715800D01*
X84134469Y-31714504D01*
X84108341Y-31710628D01*
X84082720Y-31704210D01*
X84057851Y-31695312D01*
X84033974Y-31684019D01*
X84011318Y-31670440D01*
X83990103Y-31654706D01*
X83970532Y-31636968D01*
X83952794Y-31617397D01*
X83937060Y-31596182D01*
X83923481Y-31573526D01*
X83912188Y-31549649D01*
X83903290Y-31524780D01*
X83896872Y-31499159D01*
X83892996Y-31473031D01*
X83891700Y-31446650D01*
X83891700Y-30483350D01*
X83892996Y-30456969D01*
X83896872Y-30430841D01*
X83903290Y-30405220D01*
X83912188Y-30380351D01*
X83923481Y-30356474D01*
X83937060Y-30333818D01*
X83952794Y-30312603D01*
X83970532Y-30293032D01*
X83990103Y-30275294D01*
X84011318Y-30259560D01*
X84033974Y-30245981D01*
X84057851Y-30234688D01*
X84082720Y-30225790D01*
X84108341Y-30219372D01*
X84134469Y-30215496D01*
X84160850Y-30214200D01*
X84699150Y-30214200D01*
X84725531Y-30215496D01*
X84725531Y-30215496D01*
G37*
D12*
X84430000Y-30965000D03*
G04 #@! TD*
D10*
G04 #@! TO.C,R5*
G36*
X88423081Y-41440376D02*
X88446781Y-41443891D01*
X88470023Y-41449713D01*
X88492582Y-41457785D01*
X88514242Y-41468029D01*
X88534792Y-41480347D01*
X88554037Y-41494619D01*
X88571790Y-41510710D01*
X88587881Y-41528463D01*
X88602153Y-41547708D01*
X88614471Y-41568258D01*
X88624715Y-41589918D01*
X88632787Y-41612477D01*
X88638609Y-41635719D01*
X88642124Y-41659419D01*
X88643300Y-41683350D01*
X88643300Y-42246650D01*
X88642124Y-42270581D01*
X88638609Y-42294281D01*
X88632787Y-42317523D01*
X88624715Y-42340082D01*
X88614471Y-42361742D01*
X88602153Y-42382292D01*
X88587881Y-42401537D01*
X88571790Y-42419290D01*
X88554037Y-42435381D01*
X88534792Y-42449653D01*
X88514242Y-42461971D01*
X88492582Y-42472215D01*
X88470023Y-42480287D01*
X88446781Y-42486109D01*
X88423081Y-42489624D01*
X88399150Y-42490800D01*
X87910850Y-42490800D01*
X87886919Y-42489624D01*
X87863219Y-42486109D01*
X87839977Y-42480287D01*
X87817418Y-42472215D01*
X87795758Y-42461971D01*
X87775208Y-42449653D01*
X87755963Y-42435381D01*
X87738210Y-42419290D01*
X87722119Y-42401537D01*
X87707847Y-42382292D01*
X87695529Y-42361742D01*
X87685285Y-42340082D01*
X87677213Y-42317523D01*
X87671391Y-42294281D01*
X87667876Y-42270581D01*
X87666700Y-42246650D01*
X87666700Y-41683350D01*
X87667876Y-41659419D01*
X87671391Y-41635719D01*
X87677213Y-41612477D01*
X87685285Y-41589918D01*
X87695529Y-41568258D01*
X87707847Y-41547708D01*
X87722119Y-41528463D01*
X87738210Y-41510710D01*
X87755963Y-41494619D01*
X87775208Y-41480347D01*
X87795758Y-41468029D01*
X87817418Y-41457785D01*
X87839977Y-41449713D01*
X87863219Y-41443891D01*
X87886919Y-41440376D01*
X87910850Y-41439200D01*
X88399150Y-41439200D01*
X88423081Y-41440376D01*
X88423081Y-41440376D01*
G37*
D11*
X88155000Y-41965000D03*
D10*
G36*
X86848081Y-41440376D02*
X86871781Y-41443891D01*
X86895023Y-41449713D01*
X86917582Y-41457785D01*
X86939242Y-41468029D01*
X86959792Y-41480347D01*
X86979037Y-41494619D01*
X86996790Y-41510710D01*
X87012881Y-41528463D01*
X87027153Y-41547708D01*
X87039471Y-41568258D01*
X87049715Y-41589918D01*
X87057787Y-41612477D01*
X87063609Y-41635719D01*
X87067124Y-41659419D01*
X87068300Y-41683350D01*
X87068300Y-42246650D01*
X87067124Y-42270581D01*
X87063609Y-42294281D01*
X87057787Y-42317523D01*
X87049715Y-42340082D01*
X87039471Y-42361742D01*
X87027153Y-42382292D01*
X87012881Y-42401537D01*
X86996790Y-42419290D01*
X86979037Y-42435381D01*
X86959792Y-42449653D01*
X86939242Y-42461971D01*
X86917582Y-42472215D01*
X86895023Y-42480287D01*
X86871781Y-42486109D01*
X86848081Y-42489624D01*
X86824150Y-42490800D01*
X86335850Y-42490800D01*
X86311919Y-42489624D01*
X86288219Y-42486109D01*
X86264977Y-42480287D01*
X86242418Y-42472215D01*
X86220758Y-42461971D01*
X86200208Y-42449653D01*
X86180963Y-42435381D01*
X86163210Y-42419290D01*
X86147119Y-42401537D01*
X86132847Y-42382292D01*
X86120529Y-42361742D01*
X86110285Y-42340082D01*
X86102213Y-42317523D01*
X86096391Y-42294281D01*
X86092876Y-42270581D01*
X86091700Y-42246650D01*
X86091700Y-41683350D01*
X86092876Y-41659419D01*
X86096391Y-41635719D01*
X86102213Y-41612477D01*
X86110285Y-41589918D01*
X86120529Y-41568258D01*
X86132847Y-41547708D01*
X86147119Y-41528463D01*
X86163210Y-41510710D01*
X86180963Y-41494619D01*
X86200208Y-41480347D01*
X86220758Y-41468029D01*
X86242418Y-41457785D01*
X86264977Y-41449713D01*
X86288219Y-41443891D01*
X86311919Y-41440376D01*
X86335850Y-41439200D01*
X86824150Y-41439200D01*
X86848081Y-41440376D01*
X86848081Y-41440376D01*
G37*
D11*
X86580000Y-41965000D03*
G04 #@! TD*
D10*
G04 #@! TO.C,R6*
G36*
X85423081Y-41440376D02*
X85446781Y-41443891D01*
X85470023Y-41449713D01*
X85492582Y-41457785D01*
X85514242Y-41468029D01*
X85534792Y-41480347D01*
X85554037Y-41494619D01*
X85571790Y-41510710D01*
X85587881Y-41528463D01*
X85602153Y-41547708D01*
X85614471Y-41568258D01*
X85624715Y-41589918D01*
X85632787Y-41612477D01*
X85638609Y-41635719D01*
X85642124Y-41659419D01*
X85643300Y-41683350D01*
X85643300Y-42246650D01*
X85642124Y-42270581D01*
X85638609Y-42294281D01*
X85632787Y-42317523D01*
X85624715Y-42340082D01*
X85614471Y-42361742D01*
X85602153Y-42382292D01*
X85587881Y-42401537D01*
X85571790Y-42419290D01*
X85554037Y-42435381D01*
X85534792Y-42449653D01*
X85514242Y-42461971D01*
X85492582Y-42472215D01*
X85470023Y-42480287D01*
X85446781Y-42486109D01*
X85423081Y-42489624D01*
X85399150Y-42490800D01*
X84910850Y-42490800D01*
X84886919Y-42489624D01*
X84863219Y-42486109D01*
X84839977Y-42480287D01*
X84817418Y-42472215D01*
X84795758Y-42461971D01*
X84775208Y-42449653D01*
X84755963Y-42435381D01*
X84738210Y-42419290D01*
X84722119Y-42401537D01*
X84707847Y-42382292D01*
X84695529Y-42361742D01*
X84685285Y-42340082D01*
X84677213Y-42317523D01*
X84671391Y-42294281D01*
X84667876Y-42270581D01*
X84666700Y-42246650D01*
X84666700Y-41683350D01*
X84667876Y-41659419D01*
X84671391Y-41635719D01*
X84677213Y-41612477D01*
X84685285Y-41589918D01*
X84695529Y-41568258D01*
X84707847Y-41547708D01*
X84722119Y-41528463D01*
X84738210Y-41510710D01*
X84755963Y-41494619D01*
X84775208Y-41480347D01*
X84795758Y-41468029D01*
X84817418Y-41457785D01*
X84839977Y-41449713D01*
X84863219Y-41443891D01*
X84886919Y-41440376D01*
X84910850Y-41439200D01*
X85399150Y-41439200D01*
X85423081Y-41440376D01*
X85423081Y-41440376D01*
G37*
D11*
X85155000Y-41965000D03*
D10*
G36*
X83848081Y-41440376D02*
X83871781Y-41443891D01*
X83895023Y-41449713D01*
X83917582Y-41457785D01*
X83939242Y-41468029D01*
X83959792Y-41480347D01*
X83979037Y-41494619D01*
X83996790Y-41510710D01*
X84012881Y-41528463D01*
X84027153Y-41547708D01*
X84039471Y-41568258D01*
X84049715Y-41589918D01*
X84057787Y-41612477D01*
X84063609Y-41635719D01*
X84067124Y-41659419D01*
X84068300Y-41683350D01*
X84068300Y-42246650D01*
X84067124Y-42270581D01*
X84063609Y-42294281D01*
X84057787Y-42317523D01*
X84049715Y-42340082D01*
X84039471Y-42361742D01*
X84027153Y-42382292D01*
X84012881Y-42401537D01*
X83996790Y-42419290D01*
X83979037Y-42435381D01*
X83959792Y-42449653D01*
X83939242Y-42461971D01*
X83917582Y-42472215D01*
X83895023Y-42480287D01*
X83871781Y-42486109D01*
X83848081Y-42489624D01*
X83824150Y-42490800D01*
X83335850Y-42490800D01*
X83311919Y-42489624D01*
X83288219Y-42486109D01*
X83264977Y-42480287D01*
X83242418Y-42472215D01*
X83220758Y-42461971D01*
X83200208Y-42449653D01*
X83180963Y-42435381D01*
X83163210Y-42419290D01*
X83147119Y-42401537D01*
X83132847Y-42382292D01*
X83120529Y-42361742D01*
X83110285Y-42340082D01*
X83102213Y-42317523D01*
X83096391Y-42294281D01*
X83092876Y-42270581D01*
X83091700Y-42246650D01*
X83091700Y-41683350D01*
X83092876Y-41659419D01*
X83096391Y-41635719D01*
X83102213Y-41612477D01*
X83110285Y-41589918D01*
X83120529Y-41568258D01*
X83132847Y-41547708D01*
X83147119Y-41528463D01*
X83163210Y-41510710D01*
X83180963Y-41494619D01*
X83200208Y-41480347D01*
X83220758Y-41468029D01*
X83242418Y-41457785D01*
X83264977Y-41449713D01*
X83288219Y-41443891D01*
X83311919Y-41440376D01*
X83335850Y-41439200D01*
X83824150Y-41439200D01*
X83848081Y-41440376D01*
X83848081Y-41440376D01*
G37*
D11*
X83580000Y-41965000D03*
G04 #@! TD*
D10*
G04 #@! TO.C,R7*
G36*
X97423081Y-68440376D02*
X97446781Y-68443891D01*
X97470023Y-68449713D01*
X97492582Y-68457785D01*
X97514242Y-68468029D01*
X97534792Y-68480347D01*
X97554037Y-68494619D01*
X97571790Y-68510710D01*
X97587881Y-68528463D01*
X97602153Y-68547708D01*
X97614471Y-68568258D01*
X97624715Y-68589918D01*
X97632787Y-68612477D01*
X97638609Y-68635719D01*
X97642124Y-68659419D01*
X97643300Y-68683350D01*
X97643300Y-69246650D01*
X97642124Y-69270581D01*
X97638609Y-69294281D01*
X97632787Y-69317523D01*
X97624715Y-69340082D01*
X97614471Y-69361742D01*
X97602153Y-69382292D01*
X97587881Y-69401537D01*
X97571790Y-69419290D01*
X97554037Y-69435381D01*
X97534792Y-69449653D01*
X97514242Y-69461971D01*
X97492582Y-69472215D01*
X97470023Y-69480287D01*
X97446781Y-69486109D01*
X97423081Y-69489624D01*
X97399150Y-69490800D01*
X96910850Y-69490800D01*
X96886919Y-69489624D01*
X96863219Y-69486109D01*
X96839977Y-69480287D01*
X96817418Y-69472215D01*
X96795758Y-69461971D01*
X96775208Y-69449653D01*
X96755963Y-69435381D01*
X96738210Y-69419290D01*
X96722119Y-69401537D01*
X96707847Y-69382292D01*
X96695529Y-69361742D01*
X96685285Y-69340082D01*
X96677213Y-69317523D01*
X96671391Y-69294281D01*
X96667876Y-69270581D01*
X96666700Y-69246650D01*
X96666700Y-68683350D01*
X96667876Y-68659419D01*
X96671391Y-68635719D01*
X96677213Y-68612477D01*
X96685285Y-68589918D01*
X96695529Y-68568258D01*
X96707847Y-68547708D01*
X96722119Y-68528463D01*
X96738210Y-68510710D01*
X96755963Y-68494619D01*
X96775208Y-68480347D01*
X96795758Y-68468029D01*
X96817418Y-68457785D01*
X96839977Y-68449713D01*
X96863219Y-68443891D01*
X96886919Y-68440376D01*
X96910850Y-68439200D01*
X97399150Y-68439200D01*
X97423081Y-68440376D01*
X97423081Y-68440376D01*
G37*
D11*
X97155000Y-68965000D03*
D10*
G36*
X95848081Y-68440376D02*
X95871781Y-68443891D01*
X95895023Y-68449713D01*
X95917582Y-68457785D01*
X95939242Y-68468029D01*
X95959792Y-68480347D01*
X95979037Y-68494619D01*
X95996790Y-68510710D01*
X96012881Y-68528463D01*
X96027153Y-68547708D01*
X96039471Y-68568258D01*
X96049715Y-68589918D01*
X96057787Y-68612477D01*
X96063609Y-68635719D01*
X96067124Y-68659419D01*
X96068300Y-68683350D01*
X96068300Y-69246650D01*
X96067124Y-69270581D01*
X96063609Y-69294281D01*
X96057787Y-69317523D01*
X96049715Y-69340082D01*
X96039471Y-69361742D01*
X96027153Y-69382292D01*
X96012881Y-69401537D01*
X95996790Y-69419290D01*
X95979037Y-69435381D01*
X95959792Y-69449653D01*
X95939242Y-69461971D01*
X95917582Y-69472215D01*
X95895023Y-69480287D01*
X95871781Y-69486109D01*
X95848081Y-69489624D01*
X95824150Y-69490800D01*
X95335850Y-69490800D01*
X95311919Y-69489624D01*
X95288219Y-69486109D01*
X95264977Y-69480287D01*
X95242418Y-69472215D01*
X95220758Y-69461971D01*
X95200208Y-69449653D01*
X95180963Y-69435381D01*
X95163210Y-69419290D01*
X95147119Y-69401537D01*
X95132847Y-69382292D01*
X95120529Y-69361742D01*
X95110285Y-69340082D01*
X95102213Y-69317523D01*
X95096391Y-69294281D01*
X95092876Y-69270581D01*
X95091700Y-69246650D01*
X95091700Y-68683350D01*
X95092876Y-68659419D01*
X95096391Y-68635719D01*
X95102213Y-68612477D01*
X95110285Y-68589918D01*
X95120529Y-68568258D01*
X95132847Y-68547708D01*
X95147119Y-68528463D01*
X95163210Y-68510710D01*
X95180963Y-68494619D01*
X95200208Y-68480347D01*
X95220758Y-68468029D01*
X95242418Y-68457785D01*
X95264977Y-68449713D01*
X95288219Y-68443891D01*
X95311919Y-68440376D01*
X95335850Y-68439200D01*
X95824150Y-68439200D01*
X95848081Y-68440376D01*
X95848081Y-68440376D01*
G37*
D11*
X95580000Y-68965000D03*
G04 #@! TD*
D10*
G04 #@! TO.C,R8*
G36*
X94423081Y-68440376D02*
X94446781Y-68443891D01*
X94470023Y-68449713D01*
X94492582Y-68457785D01*
X94514242Y-68468029D01*
X94534792Y-68480347D01*
X94554037Y-68494619D01*
X94571790Y-68510710D01*
X94587881Y-68528463D01*
X94602153Y-68547708D01*
X94614471Y-68568258D01*
X94624715Y-68589918D01*
X94632787Y-68612477D01*
X94638609Y-68635719D01*
X94642124Y-68659419D01*
X94643300Y-68683350D01*
X94643300Y-69246650D01*
X94642124Y-69270581D01*
X94638609Y-69294281D01*
X94632787Y-69317523D01*
X94624715Y-69340082D01*
X94614471Y-69361742D01*
X94602153Y-69382292D01*
X94587881Y-69401537D01*
X94571790Y-69419290D01*
X94554037Y-69435381D01*
X94534792Y-69449653D01*
X94514242Y-69461971D01*
X94492582Y-69472215D01*
X94470023Y-69480287D01*
X94446781Y-69486109D01*
X94423081Y-69489624D01*
X94399150Y-69490800D01*
X93910850Y-69490800D01*
X93886919Y-69489624D01*
X93863219Y-69486109D01*
X93839977Y-69480287D01*
X93817418Y-69472215D01*
X93795758Y-69461971D01*
X93775208Y-69449653D01*
X93755963Y-69435381D01*
X93738210Y-69419290D01*
X93722119Y-69401537D01*
X93707847Y-69382292D01*
X93695529Y-69361742D01*
X93685285Y-69340082D01*
X93677213Y-69317523D01*
X93671391Y-69294281D01*
X93667876Y-69270581D01*
X93666700Y-69246650D01*
X93666700Y-68683350D01*
X93667876Y-68659419D01*
X93671391Y-68635719D01*
X93677213Y-68612477D01*
X93685285Y-68589918D01*
X93695529Y-68568258D01*
X93707847Y-68547708D01*
X93722119Y-68528463D01*
X93738210Y-68510710D01*
X93755963Y-68494619D01*
X93775208Y-68480347D01*
X93795758Y-68468029D01*
X93817418Y-68457785D01*
X93839977Y-68449713D01*
X93863219Y-68443891D01*
X93886919Y-68440376D01*
X93910850Y-68439200D01*
X94399150Y-68439200D01*
X94423081Y-68440376D01*
X94423081Y-68440376D01*
G37*
D11*
X94155000Y-68965000D03*
D10*
G36*
X92848081Y-68440376D02*
X92871781Y-68443891D01*
X92895023Y-68449713D01*
X92917582Y-68457785D01*
X92939242Y-68468029D01*
X92959792Y-68480347D01*
X92979037Y-68494619D01*
X92996790Y-68510710D01*
X93012881Y-68528463D01*
X93027153Y-68547708D01*
X93039471Y-68568258D01*
X93049715Y-68589918D01*
X93057787Y-68612477D01*
X93063609Y-68635719D01*
X93067124Y-68659419D01*
X93068300Y-68683350D01*
X93068300Y-69246650D01*
X93067124Y-69270581D01*
X93063609Y-69294281D01*
X93057787Y-69317523D01*
X93049715Y-69340082D01*
X93039471Y-69361742D01*
X93027153Y-69382292D01*
X93012881Y-69401537D01*
X92996790Y-69419290D01*
X92979037Y-69435381D01*
X92959792Y-69449653D01*
X92939242Y-69461971D01*
X92917582Y-69472215D01*
X92895023Y-69480287D01*
X92871781Y-69486109D01*
X92848081Y-69489624D01*
X92824150Y-69490800D01*
X92335850Y-69490800D01*
X92311919Y-69489624D01*
X92288219Y-69486109D01*
X92264977Y-69480287D01*
X92242418Y-69472215D01*
X92220758Y-69461971D01*
X92200208Y-69449653D01*
X92180963Y-69435381D01*
X92163210Y-69419290D01*
X92147119Y-69401537D01*
X92132847Y-69382292D01*
X92120529Y-69361742D01*
X92110285Y-69340082D01*
X92102213Y-69317523D01*
X92096391Y-69294281D01*
X92092876Y-69270581D01*
X92091700Y-69246650D01*
X92091700Y-68683350D01*
X92092876Y-68659419D01*
X92096391Y-68635719D01*
X92102213Y-68612477D01*
X92110285Y-68589918D01*
X92120529Y-68568258D01*
X92132847Y-68547708D01*
X92147119Y-68528463D01*
X92163210Y-68510710D01*
X92180963Y-68494619D01*
X92200208Y-68480347D01*
X92220758Y-68468029D01*
X92242418Y-68457785D01*
X92264977Y-68449713D01*
X92288219Y-68443891D01*
X92311919Y-68440376D01*
X92335850Y-68439200D01*
X92824150Y-68439200D01*
X92848081Y-68440376D01*
X92848081Y-68440376D01*
G37*
D11*
X92580000Y-68965000D03*
G04 #@! TD*
D10*
G04 #@! TO.C,R9*
G36*
X88423081Y-68440376D02*
X88446781Y-68443891D01*
X88470023Y-68449713D01*
X88492582Y-68457785D01*
X88514242Y-68468029D01*
X88534792Y-68480347D01*
X88554037Y-68494619D01*
X88571790Y-68510710D01*
X88587881Y-68528463D01*
X88602153Y-68547708D01*
X88614471Y-68568258D01*
X88624715Y-68589918D01*
X88632787Y-68612477D01*
X88638609Y-68635719D01*
X88642124Y-68659419D01*
X88643300Y-68683350D01*
X88643300Y-69246650D01*
X88642124Y-69270581D01*
X88638609Y-69294281D01*
X88632787Y-69317523D01*
X88624715Y-69340082D01*
X88614471Y-69361742D01*
X88602153Y-69382292D01*
X88587881Y-69401537D01*
X88571790Y-69419290D01*
X88554037Y-69435381D01*
X88534792Y-69449653D01*
X88514242Y-69461971D01*
X88492582Y-69472215D01*
X88470023Y-69480287D01*
X88446781Y-69486109D01*
X88423081Y-69489624D01*
X88399150Y-69490800D01*
X87910850Y-69490800D01*
X87886919Y-69489624D01*
X87863219Y-69486109D01*
X87839977Y-69480287D01*
X87817418Y-69472215D01*
X87795758Y-69461971D01*
X87775208Y-69449653D01*
X87755963Y-69435381D01*
X87738210Y-69419290D01*
X87722119Y-69401537D01*
X87707847Y-69382292D01*
X87695529Y-69361742D01*
X87685285Y-69340082D01*
X87677213Y-69317523D01*
X87671391Y-69294281D01*
X87667876Y-69270581D01*
X87666700Y-69246650D01*
X87666700Y-68683350D01*
X87667876Y-68659419D01*
X87671391Y-68635719D01*
X87677213Y-68612477D01*
X87685285Y-68589918D01*
X87695529Y-68568258D01*
X87707847Y-68547708D01*
X87722119Y-68528463D01*
X87738210Y-68510710D01*
X87755963Y-68494619D01*
X87775208Y-68480347D01*
X87795758Y-68468029D01*
X87817418Y-68457785D01*
X87839977Y-68449713D01*
X87863219Y-68443891D01*
X87886919Y-68440376D01*
X87910850Y-68439200D01*
X88399150Y-68439200D01*
X88423081Y-68440376D01*
X88423081Y-68440376D01*
G37*
D11*
X88155000Y-68965000D03*
D10*
G36*
X86848081Y-68440376D02*
X86871781Y-68443891D01*
X86895023Y-68449713D01*
X86917582Y-68457785D01*
X86939242Y-68468029D01*
X86959792Y-68480347D01*
X86979037Y-68494619D01*
X86996790Y-68510710D01*
X87012881Y-68528463D01*
X87027153Y-68547708D01*
X87039471Y-68568258D01*
X87049715Y-68589918D01*
X87057787Y-68612477D01*
X87063609Y-68635719D01*
X87067124Y-68659419D01*
X87068300Y-68683350D01*
X87068300Y-69246650D01*
X87067124Y-69270581D01*
X87063609Y-69294281D01*
X87057787Y-69317523D01*
X87049715Y-69340082D01*
X87039471Y-69361742D01*
X87027153Y-69382292D01*
X87012881Y-69401537D01*
X86996790Y-69419290D01*
X86979037Y-69435381D01*
X86959792Y-69449653D01*
X86939242Y-69461971D01*
X86917582Y-69472215D01*
X86895023Y-69480287D01*
X86871781Y-69486109D01*
X86848081Y-69489624D01*
X86824150Y-69490800D01*
X86335850Y-69490800D01*
X86311919Y-69489624D01*
X86288219Y-69486109D01*
X86264977Y-69480287D01*
X86242418Y-69472215D01*
X86220758Y-69461971D01*
X86200208Y-69449653D01*
X86180963Y-69435381D01*
X86163210Y-69419290D01*
X86147119Y-69401537D01*
X86132847Y-69382292D01*
X86120529Y-69361742D01*
X86110285Y-69340082D01*
X86102213Y-69317523D01*
X86096391Y-69294281D01*
X86092876Y-69270581D01*
X86091700Y-69246650D01*
X86091700Y-68683350D01*
X86092876Y-68659419D01*
X86096391Y-68635719D01*
X86102213Y-68612477D01*
X86110285Y-68589918D01*
X86120529Y-68568258D01*
X86132847Y-68547708D01*
X86147119Y-68528463D01*
X86163210Y-68510710D01*
X86180963Y-68494619D01*
X86200208Y-68480347D01*
X86220758Y-68468029D01*
X86242418Y-68457785D01*
X86264977Y-68449713D01*
X86288219Y-68443891D01*
X86311919Y-68440376D01*
X86335850Y-68439200D01*
X86824150Y-68439200D01*
X86848081Y-68440376D01*
X86848081Y-68440376D01*
G37*
D11*
X86580000Y-68965000D03*
G04 #@! TD*
D10*
G04 #@! TO.C,R10*
G36*
X85423081Y-68440376D02*
X85446781Y-68443891D01*
X85470023Y-68449713D01*
X85492582Y-68457785D01*
X85514242Y-68468029D01*
X85534792Y-68480347D01*
X85554037Y-68494619D01*
X85571790Y-68510710D01*
X85587881Y-68528463D01*
X85602153Y-68547708D01*
X85614471Y-68568258D01*
X85624715Y-68589918D01*
X85632787Y-68612477D01*
X85638609Y-68635719D01*
X85642124Y-68659419D01*
X85643300Y-68683350D01*
X85643300Y-69246650D01*
X85642124Y-69270581D01*
X85638609Y-69294281D01*
X85632787Y-69317523D01*
X85624715Y-69340082D01*
X85614471Y-69361742D01*
X85602153Y-69382292D01*
X85587881Y-69401537D01*
X85571790Y-69419290D01*
X85554037Y-69435381D01*
X85534792Y-69449653D01*
X85514242Y-69461971D01*
X85492582Y-69472215D01*
X85470023Y-69480287D01*
X85446781Y-69486109D01*
X85423081Y-69489624D01*
X85399150Y-69490800D01*
X84910850Y-69490800D01*
X84886919Y-69489624D01*
X84863219Y-69486109D01*
X84839977Y-69480287D01*
X84817418Y-69472215D01*
X84795758Y-69461971D01*
X84775208Y-69449653D01*
X84755963Y-69435381D01*
X84738210Y-69419290D01*
X84722119Y-69401537D01*
X84707847Y-69382292D01*
X84695529Y-69361742D01*
X84685285Y-69340082D01*
X84677213Y-69317523D01*
X84671391Y-69294281D01*
X84667876Y-69270581D01*
X84666700Y-69246650D01*
X84666700Y-68683350D01*
X84667876Y-68659419D01*
X84671391Y-68635719D01*
X84677213Y-68612477D01*
X84685285Y-68589918D01*
X84695529Y-68568258D01*
X84707847Y-68547708D01*
X84722119Y-68528463D01*
X84738210Y-68510710D01*
X84755963Y-68494619D01*
X84775208Y-68480347D01*
X84795758Y-68468029D01*
X84817418Y-68457785D01*
X84839977Y-68449713D01*
X84863219Y-68443891D01*
X84886919Y-68440376D01*
X84910850Y-68439200D01*
X85399150Y-68439200D01*
X85423081Y-68440376D01*
X85423081Y-68440376D01*
G37*
D11*
X85155000Y-68965000D03*
D10*
G36*
X83848081Y-68440376D02*
X83871781Y-68443891D01*
X83895023Y-68449713D01*
X83917582Y-68457785D01*
X83939242Y-68468029D01*
X83959792Y-68480347D01*
X83979037Y-68494619D01*
X83996790Y-68510710D01*
X84012881Y-68528463D01*
X84027153Y-68547708D01*
X84039471Y-68568258D01*
X84049715Y-68589918D01*
X84057787Y-68612477D01*
X84063609Y-68635719D01*
X84067124Y-68659419D01*
X84068300Y-68683350D01*
X84068300Y-69246650D01*
X84067124Y-69270581D01*
X84063609Y-69294281D01*
X84057787Y-69317523D01*
X84049715Y-69340082D01*
X84039471Y-69361742D01*
X84027153Y-69382292D01*
X84012881Y-69401537D01*
X83996790Y-69419290D01*
X83979037Y-69435381D01*
X83959792Y-69449653D01*
X83939242Y-69461971D01*
X83917582Y-69472215D01*
X83895023Y-69480287D01*
X83871781Y-69486109D01*
X83848081Y-69489624D01*
X83824150Y-69490800D01*
X83335850Y-69490800D01*
X83311919Y-69489624D01*
X83288219Y-69486109D01*
X83264977Y-69480287D01*
X83242418Y-69472215D01*
X83220758Y-69461971D01*
X83200208Y-69449653D01*
X83180963Y-69435381D01*
X83163210Y-69419290D01*
X83147119Y-69401537D01*
X83132847Y-69382292D01*
X83120529Y-69361742D01*
X83110285Y-69340082D01*
X83102213Y-69317523D01*
X83096391Y-69294281D01*
X83092876Y-69270581D01*
X83091700Y-69246650D01*
X83091700Y-68683350D01*
X83092876Y-68659419D01*
X83096391Y-68635719D01*
X83102213Y-68612477D01*
X83110285Y-68589918D01*
X83120529Y-68568258D01*
X83132847Y-68547708D01*
X83147119Y-68528463D01*
X83163210Y-68510710D01*
X83180963Y-68494619D01*
X83200208Y-68480347D01*
X83220758Y-68468029D01*
X83242418Y-68457785D01*
X83264977Y-68449713D01*
X83288219Y-68443891D01*
X83311919Y-68440376D01*
X83335850Y-68439200D01*
X83824150Y-68439200D01*
X83848081Y-68440376D01*
X83848081Y-68440376D01*
G37*
D11*
X83580000Y-68965000D03*
G04 #@! TD*
D10*
G04 #@! TO.C,R4*
G36*
X94423081Y-41440376D02*
X94446781Y-41443891D01*
X94470023Y-41449713D01*
X94492582Y-41457785D01*
X94514242Y-41468029D01*
X94534792Y-41480347D01*
X94554037Y-41494619D01*
X94571790Y-41510710D01*
X94587881Y-41528463D01*
X94602153Y-41547708D01*
X94614471Y-41568258D01*
X94624715Y-41589918D01*
X94632787Y-41612477D01*
X94638609Y-41635719D01*
X94642124Y-41659419D01*
X94643300Y-41683350D01*
X94643300Y-42246650D01*
X94642124Y-42270581D01*
X94638609Y-42294281D01*
X94632787Y-42317523D01*
X94624715Y-42340082D01*
X94614471Y-42361742D01*
X94602153Y-42382292D01*
X94587881Y-42401537D01*
X94571790Y-42419290D01*
X94554037Y-42435381D01*
X94534792Y-42449653D01*
X94514242Y-42461971D01*
X94492582Y-42472215D01*
X94470023Y-42480287D01*
X94446781Y-42486109D01*
X94423081Y-42489624D01*
X94399150Y-42490800D01*
X93910850Y-42490800D01*
X93886919Y-42489624D01*
X93863219Y-42486109D01*
X93839977Y-42480287D01*
X93817418Y-42472215D01*
X93795758Y-42461971D01*
X93775208Y-42449653D01*
X93755963Y-42435381D01*
X93738210Y-42419290D01*
X93722119Y-42401537D01*
X93707847Y-42382292D01*
X93695529Y-42361742D01*
X93685285Y-42340082D01*
X93677213Y-42317523D01*
X93671391Y-42294281D01*
X93667876Y-42270581D01*
X93666700Y-42246650D01*
X93666700Y-41683350D01*
X93667876Y-41659419D01*
X93671391Y-41635719D01*
X93677213Y-41612477D01*
X93685285Y-41589918D01*
X93695529Y-41568258D01*
X93707847Y-41547708D01*
X93722119Y-41528463D01*
X93738210Y-41510710D01*
X93755963Y-41494619D01*
X93775208Y-41480347D01*
X93795758Y-41468029D01*
X93817418Y-41457785D01*
X93839977Y-41449713D01*
X93863219Y-41443891D01*
X93886919Y-41440376D01*
X93910850Y-41439200D01*
X94399150Y-41439200D01*
X94423081Y-41440376D01*
X94423081Y-41440376D01*
G37*
D11*
X94155000Y-41965000D03*
D10*
G36*
X92848081Y-41440376D02*
X92871781Y-41443891D01*
X92895023Y-41449713D01*
X92917582Y-41457785D01*
X92939242Y-41468029D01*
X92959792Y-41480347D01*
X92979037Y-41494619D01*
X92996790Y-41510710D01*
X93012881Y-41528463D01*
X93027153Y-41547708D01*
X93039471Y-41568258D01*
X93049715Y-41589918D01*
X93057787Y-41612477D01*
X93063609Y-41635719D01*
X93067124Y-41659419D01*
X93068300Y-41683350D01*
X93068300Y-42246650D01*
X93067124Y-42270581D01*
X93063609Y-42294281D01*
X93057787Y-42317523D01*
X93049715Y-42340082D01*
X93039471Y-42361742D01*
X93027153Y-42382292D01*
X93012881Y-42401537D01*
X92996790Y-42419290D01*
X92979037Y-42435381D01*
X92959792Y-42449653D01*
X92939242Y-42461971D01*
X92917582Y-42472215D01*
X92895023Y-42480287D01*
X92871781Y-42486109D01*
X92848081Y-42489624D01*
X92824150Y-42490800D01*
X92335850Y-42490800D01*
X92311919Y-42489624D01*
X92288219Y-42486109D01*
X92264977Y-42480287D01*
X92242418Y-42472215D01*
X92220758Y-42461971D01*
X92200208Y-42449653D01*
X92180963Y-42435381D01*
X92163210Y-42419290D01*
X92147119Y-42401537D01*
X92132847Y-42382292D01*
X92120529Y-42361742D01*
X92110285Y-42340082D01*
X92102213Y-42317523D01*
X92096391Y-42294281D01*
X92092876Y-42270581D01*
X92091700Y-42246650D01*
X92091700Y-41683350D01*
X92092876Y-41659419D01*
X92096391Y-41635719D01*
X92102213Y-41612477D01*
X92110285Y-41589918D01*
X92120529Y-41568258D01*
X92132847Y-41547708D01*
X92147119Y-41528463D01*
X92163210Y-41510710D01*
X92180963Y-41494619D01*
X92200208Y-41480347D01*
X92220758Y-41468029D01*
X92242418Y-41457785D01*
X92264977Y-41449713D01*
X92288219Y-41443891D01*
X92311919Y-41440376D01*
X92335850Y-41439200D01*
X92824150Y-41439200D01*
X92848081Y-41440376D01*
X92848081Y-41440376D01*
G37*
D11*
X92580000Y-41965000D03*
G04 #@! TD*
D10*
G04 #@! TO.C,R3*
G36*
X97423081Y-41440376D02*
X97446781Y-41443891D01*
X97470023Y-41449713D01*
X97492582Y-41457785D01*
X97514242Y-41468029D01*
X97534792Y-41480347D01*
X97554037Y-41494619D01*
X97571790Y-41510710D01*
X97587881Y-41528463D01*
X97602153Y-41547708D01*
X97614471Y-41568258D01*
X97624715Y-41589918D01*
X97632787Y-41612477D01*
X97638609Y-41635719D01*
X97642124Y-41659419D01*
X97643300Y-41683350D01*
X97643300Y-42246650D01*
X97642124Y-42270581D01*
X97638609Y-42294281D01*
X97632787Y-42317523D01*
X97624715Y-42340082D01*
X97614471Y-42361742D01*
X97602153Y-42382292D01*
X97587881Y-42401537D01*
X97571790Y-42419290D01*
X97554037Y-42435381D01*
X97534792Y-42449653D01*
X97514242Y-42461971D01*
X97492582Y-42472215D01*
X97470023Y-42480287D01*
X97446781Y-42486109D01*
X97423081Y-42489624D01*
X97399150Y-42490800D01*
X96910850Y-42490800D01*
X96886919Y-42489624D01*
X96863219Y-42486109D01*
X96839977Y-42480287D01*
X96817418Y-42472215D01*
X96795758Y-42461971D01*
X96775208Y-42449653D01*
X96755963Y-42435381D01*
X96738210Y-42419290D01*
X96722119Y-42401537D01*
X96707847Y-42382292D01*
X96695529Y-42361742D01*
X96685285Y-42340082D01*
X96677213Y-42317523D01*
X96671391Y-42294281D01*
X96667876Y-42270581D01*
X96666700Y-42246650D01*
X96666700Y-41683350D01*
X96667876Y-41659419D01*
X96671391Y-41635719D01*
X96677213Y-41612477D01*
X96685285Y-41589918D01*
X96695529Y-41568258D01*
X96707847Y-41547708D01*
X96722119Y-41528463D01*
X96738210Y-41510710D01*
X96755963Y-41494619D01*
X96775208Y-41480347D01*
X96795758Y-41468029D01*
X96817418Y-41457785D01*
X96839977Y-41449713D01*
X96863219Y-41443891D01*
X96886919Y-41440376D01*
X96910850Y-41439200D01*
X97399150Y-41439200D01*
X97423081Y-41440376D01*
X97423081Y-41440376D01*
G37*
D11*
X97155000Y-41965000D03*
D10*
G36*
X95848081Y-41440376D02*
X95871781Y-41443891D01*
X95895023Y-41449713D01*
X95917582Y-41457785D01*
X95939242Y-41468029D01*
X95959792Y-41480347D01*
X95979037Y-41494619D01*
X95996790Y-41510710D01*
X96012881Y-41528463D01*
X96027153Y-41547708D01*
X96039471Y-41568258D01*
X96049715Y-41589918D01*
X96057787Y-41612477D01*
X96063609Y-41635719D01*
X96067124Y-41659419D01*
X96068300Y-41683350D01*
X96068300Y-42246650D01*
X96067124Y-42270581D01*
X96063609Y-42294281D01*
X96057787Y-42317523D01*
X96049715Y-42340082D01*
X96039471Y-42361742D01*
X96027153Y-42382292D01*
X96012881Y-42401537D01*
X95996790Y-42419290D01*
X95979037Y-42435381D01*
X95959792Y-42449653D01*
X95939242Y-42461971D01*
X95917582Y-42472215D01*
X95895023Y-42480287D01*
X95871781Y-42486109D01*
X95848081Y-42489624D01*
X95824150Y-42490800D01*
X95335850Y-42490800D01*
X95311919Y-42489624D01*
X95288219Y-42486109D01*
X95264977Y-42480287D01*
X95242418Y-42472215D01*
X95220758Y-42461971D01*
X95200208Y-42449653D01*
X95180963Y-42435381D01*
X95163210Y-42419290D01*
X95147119Y-42401537D01*
X95132847Y-42382292D01*
X95120529Y-42361742D01*
X95110285Y-42340082D01*
X95102213Y-42317523D01*
X95096391Y-42294281D01*
X95092876Y-42270581D01*
X95091700Y-42246650D01*
X95091700Y-41683350D01*
X95092876Y-41659419D01*
X95096391Y-41635719D01*
X95102213Y-41612477D01*
X95110285Y-41589918D01*
X95120529Y-41568258D01*
X95132847Y-41547708D01*
X95147119Y-41528463D01*
X95163210Y-41510710D01*
X95180963Y-41494619D01*
X95200208Y-41480347D01*
X95220758Y-41468029D01*
X95242418Y-41457785D01*
X95264977Y-41449713D01*
X95288219Y-41443891D01*
X95311919Y-41440376D01*
X95335850Y-41439200D01*
X95824150Y-41439200D01*
X95848081Y-41440376D01*
X95848081Y-41440376D01*
G37*
D11*
X95580000Y-41965000D03*
G04 #@! TD*
D10*
G04 #@! TO.C,R2*
G36*
X95848081Y-53440376D02*
X95871781Y-53443891D01*
X95895023Y-53449713D01*
X95917582Y-53457785D01*
X95939242Y-53468029D01*
X95959792Y-53480347D01*
X95979037Y-53494619D01*
X95996790Y-53510710D01*
X96012881Y-53528463D01*
X96027153Y-53547708D01*
X96039471Y-53568258D01*
X96049715Y-53589918D01*
X96057787Y-53612477D01*
X96063609Y-53635719D01*
X96067124Y-53659419D01*
X96068300Y-53683350D01*
X96068300Y-54246650D01*
X96067124Y-54270581D01*
X96063609Y-54294281D01*
X96057787Y-54317523D01*
X96049715Y-54340082D01*
X96039471Y-54361742D01*
X96027153Y-54382292D01*
X96012881Y-54401537D01*
X95996790Y-54419290D01*
X95979037Y-54435381D01*
X95959792Y-54449653D01*
X95939242Y-54461971D01*
X95917582Y-54472215D01*
X95895023Y-54480287D01*
X95871781Y-54486109D01*
X95848081Y-54489624D01*
X95824150Y-54490800D01*
X95335850Y-54490800D01*
X95311919Y-54489624D01*
X95288219Y-54486109D01*
X95264977Y-54480287D01*
X95242418Y-54472215D01*
X95220758Y-54461971D01*
X95200208Y-54449653D01*
X95180963Y-54435381D01*
X95163210Y-54419290D01*
X95147119Y-54401537D01*
X95132847Y-54382292D01*
X95120529Y-54361742D01*
X95110285Y-54340082D01*
X95102213Y-54317523D01*
X95096391Y-54294281D01*
X95092876Y-54270581D01*
X95091700Y-54246650D01*
X95091700Y-53683350D01*
X95092876Y-53659419D01*
X95096391Y-53635719D01*
X95102213Y-53612477D01*
X95110285Y-53589918D01*
X95120529Y-53568258D01*
X95132847Y-53547708D01*
X95147119Y-53528463D01*
X95163210Y-53510710D01*
X95180963Y-53494619D01*
X95200208Y-53480347D01*
X95220758Y-53468029D01*
X95242418Y-53457785D01*
X95264977Y-53449713D01*
X95288219Y-53443891D01*
X95311919Y-53440376D01*
X95335850Y-53439200D01*
X95824150Y-53439200D01*
X95848081Y-53440376D01*
X95848081Y-53440376D01*
G37*
D11*
X95580000Y-53965000D03*
D10*
G36*
X97423081Y-53440376D02*
X97446781Y-53443891D01*
X97470023Y-53449713D01*
X97492582Y-53457785D01*
X97514242Y-53468029D01*
X97534792Y-53480347D01*
X97554037Y-53494619D01*
X97571790Y-53510710D01*
X97587881Y-53528463D01*
X97602153Y-53547708D01*
X97614471Y-53568258D01*
X97624715Y-53589918D01*
X97632787Y-53612477D01*
X97638609Y-53635719D01*
X97642124Y-53659419D01*
X97643300Y-53683350D01*
X97643300Y-54246650D01*
X97642124Y-54270581D01*
X97638609Y-54294281D01*
X97632787Y-54317523D01*
X97624715Y-54340082D01*
X97614471Y-54361742D01*
X97602153Y-54382292D01*
X97587881Y-54401537D01*
X97571790Y-54419290D01*
X97554037Y-54435381D01*
X97534792Y-54449653D01*
X97514242Y-54461971D01*
X97492582Y-54472215D01*
X97470023Y-54480287D01*
X97446781Y-54486109D01*
X97423081Y-54489624D01*
X97399150Y-54490800D01*
X96910850Y-54490800D01*
X96886919Y-54489624D01*
X96863219Y-54486109D01*
X96839977Y-54480287D01*
X96817418Y-54472215D01*
X96795758Y-54461971D01*
X96775208Y-54449653D01*
X96755963Y-54435381D01*
X96738210Y-54419290D01*
X96722119Y-54401537D01*
X96707847Y-54382292D01*
X96695529Y-54361742D01*
X96685285Y-54340082D01*
X96677213Y-54317523D01*
X96671391Y-54294281D01*
X96667876Y-54270581D01*
X96666700Y-54246650D01*
X96666700Y-53683350D01*
X96667876Y-53659419D01*
X96671391Y-53635719D01*
X96677213Y-53612477D01*
X96685285Y-53589918D01*
X96695529Y-53568258D01*
X96707847Y-53547708D01*
X96722119Y-53528463D01*
X96738210Y-53510710D01*
X96755963Y-53494619D01*
X96775208Y-53480347D01*
X96795758Y-53468029D01*
X96817418Y-53457785D01*
X96839977Y-53449713D01*
X96863219Y-53443891D01*
X96886919Y-53440376D01*
X96910850Y-53439200D01*
X97399150Y-53439200D01*
X97423081Y-53440376D01*
X97423081Y-53440376D01*
G37*
D11*
X97155000Y-53965000D03*
G04 #@! TD*
D10*
G04 #@! TO.C,R1*
G36*
X97423081Y-51940376D02*
X97446781Y-51943891D01*
X97470023Y-51949713D01*
X97492582Y-51957785D01*
X97514242Y-51968029D01*
X97534792Y-51980347D01*
X97554037Y-51994619D01*
X97571790Y-52010710D01*
X97587881Y-52028463D01*
X97602153Y-52047708D01*
X97614471Y-52068258D01*
X97624715Y-52089918D01*
X97632787Y-52112477D01*
X97638609Y-52135719D01*
X97642124Y-52159419D01*
X97643300Y-52183350D01*
X97643300Y-52746650D01*
X97642124Y-52770581D01*
X97638609Y-52794281D01*
X97632787Y-52817523D01*
X97624715Y-52840082D01*
X97614471Y-52861742D01*
X97602153Y-52882292D01*
X97587881Y-52901537D01*
X97571790Y-52919290D01*
X97554037Y-52935381D01*
X97534792Y-52949653D01*
X97514242Y-52961971D01*
X97492582Y-52972215D01*
X97470023Y-52980287D01*
X97446781Y-52986109D01*
X97423081Y-52989624D01*
X97399150Y-52990800D01*
X96910850Y-52990800D01*
X96886919Y-52989624D01*
X96863219Y-52986109D01*
X96839977Y-52980287D01*
X96817418Y-52972215D01*
X96795758Y-52961971D01*
X96775208Y-52949653D01*
X96755963Y-52935381D01*
X96738210Y-52919290D01*
X96722119Y-52901537D01*
X96707847Y-52882292D01*
X96695529Y-52861742D01*
X96685285Y-52840082D01*
X96677213Y-52817523D01*
X96671391Y-52794281D01*
X96667876Y-52770581D01*
X96666700Y-52746650D01*
X96666700Y-52183350D01*
X96667876Y-52159419D01*
X96671391Y-52135719D01*
X96677213Y-52112477D01*
X96685285Y-52089918D01*
X96695529Y-52068258D01*
X96707847Y-52047708D01*
X96722119Y-52028463D01*
X96738210Y-52010710D01*
X96755963Y-51994619D01*
X96775208Y-51980347D01*
X96795758Y-51968029D01*
X96817418Y-51957785D01*
X96839977Y-51949713D01*
X96863219Y-51943891D01*
X96886919Y-51940376D01*
X96910850Y-51939200D01*
X97399150Y-51939200D01*
X97423081Y-51940376D01*
X97423081Y-51940376D01*
G37*
D11*
X97155000Y-52465000D03*
D10*
G36*
X95848081Y-51940376D02*
X95871781Y-51943891D01*
X95895023Y-51949713D01*
X95917582Y-51957785D01*
X95939242Y-51968029D01*
X95959792Y-51980347D01*
X95979037Y-51994619D01*
X95996790Y-52010710D01*
X96012881Y-52028463D01*
X96027153Y-52047708D01*
X96039471Y-52068258D01*
X96049715Y-52089918D01*
X96057787Y-52112477D01*
X96063609Y-52135719D01*
X96067124Y-52159419D01*
X96068300Y-52183350D01*
X96068300Y-52746650D01*
X96067124Y-52770581D01*
X96063609Y-52794281D01*
X96057787Y-52817523D01*
X96049715Y-52840082D01*
X96039471Y-52861742D01*
X96027153Y-52882292D01*
X96012881Y-52901537D01*
X95996790Y-52919290D01*
X95979037Y-52935381D01*
X95959792Y-52949653D01*
X95939242Y-52961971D01*
X95917582Y-52972215D01*
X95895023Y-52980287D01*
X95871781Y-52986109D01*
X95848081Y-52989624D01*
X95824150Y-52990800D01*
X95335850Y-52990800D01*
X95311919Y-52989624D01*
X95288219Y-52986109D01*
X95264977Y-52980287D01*
X95242418Y-52972215D01*
X95220758Y-52961971D01*
X95200208Y-52949653D01*
X95180963Y-52935381D01*
X95163210Y-52919290D01*
X95147119Y-52901537D01*
X95132847Y-52882292D01*
X95120529Y-52861742D01*
X95110285Y-52840082D01*
X95102213Y-52817523D01*
X95096391Y-52794281D01*
X95092876Y-52770581D01*
X95091700Y-52746650D01*
X95091700Y-52183350D01*
X95092876Y-52159419D01*
X95096391Y-52135719D01*
X95102213Y-52112477D01*
X95110285Y-52089918D01*
X95120529Y-52068258D01*
X95132847Y-52047708D01*
X95147119Y-52028463D01*
X95163210Y-52010710D01*
X95180963Y-51994619D01*
X95200208Y-51980347D01*
X95220758Y-51968029D01*
X95242418Y-51957785D01*
X95264977Y-51949713D01*
X95288219Y-51943891D01*
X95311919Y-51940376D01*
X95335850Y-51939200D01*
X95824150Y-51939200D01*
X95848081Y-51940376D01*
X95848081Y-51940376D01*
G37*
D11*
X95580000Y-52465000D03*
G04 #@! TD*
D10*
G04 #@! TO.C,C1*
G36*
X95848081Y-38440376D02*
X95871781Y-38443891D01*
X95895023Y-38449713D01*
X95917582Y-38457785D01*
X95939242Y-38468029D01*
X95959792Y-38480347D01*
X95979037Y-38494619D01*
X95996790Y-38510710D01*
X96012881Y-38528463D01*
X96027153Y-38547708D01*
X96039471Y-38568258D01*
X96049715Y-38589918D01*
X96057787Y-38612477D01*
X96063609Y-38635719D01*
X96067124Y-38659419D01*
X96068300Y-38683350D01*
X96068300Y-39246650D01*
X96067124Y-39270581D01*
X96063609Y-39294281D01*
X96057787Y-39317523D01*
X96049715Y-39340082D01*
X96039471Y-39361742D01*
X96027153Y-39382292D01*
X96012881Y-39401537D01*
X95996790Y-39419290D01*
X95979037Y-39435381D01*
X95959792Y-39449653D01*
X95939242Y-39461971D01*
X95917582Y-39472215D01*
X95895023Y-39480287D01*
X95871781Y-39486109D01*
X95848081Y-39489624D01*
X95824150Y-39490800D01*
X95335850Y-39490800D01*
X95311919Y-39489624D01*
X95288219Y-39486109D01*
X95264977Y-39480287D01*
X95242418Y-39472215D01*
X95220758Y-39461971D01*
X95200208Y-39449653D01*
X95180963Y-39435381D01*
X95163210Y-39419290D01*
X95147119Y-39401537D01*
X95132847Y-39382292D01*
X95120529Y-39361742D01*
X95110285Y-39340082D01*
X95102213Y-39317523D01*
X95096391Y-39294281D01*
X95092876Y-39270581D01*
X95091700Y-39246650D01*
X95091700Y-38683350D01*
X95092876Y-38659419D01*
X95096391Y-38635719D01*
X95102213Y-38612477D01*
X95110285Y-38589918D01*
X95120529Y-38568258D01*
X95132847Y-38547708D01*
X95147119Y-38528463D01*
X95163210Y-38510710D01*
X95180963Y-38494619D01*
X95200208Y-38480347D01*
X95220758Y-38468029D01*
X95242418Y-38457785D01*
X95264977Y-38449713D01*
X95288219Y-38443891D01*
X95311919Y-38440376D01*
X95335850Y-38439200D01*
X95824150Y-38439200D01*
X95848081Y-38440376D01*
X95848081Y-38440376D01*
G37*
D11*
X95580000Y-38965000D03*
D10*
G36*
X97423081Y-38440376D02*
X97446781Y-38443891D01*
X97470023Y-38449713D01*
X97492582Y-38457785D01*
X97514242Y-38468029D01*
X97534792Y-38480347D01*
X97554037Y-38494619D01*
X97571790Y-38510710D01*
X97587881Y-38528463D01*
X97602153Y-38547708D01*
X97614471Y-38568258D01*
X97624715Y-38589918D01*
X97632787Y-38612477D01*
X97638609Y-38635719D01*
X97642124Y-38659419D01*
X97643300Y-38683350D01*
X97643300Y-39246650D01*
X97642124Y-39270581D01*
X97638609Y-39294281D01*
X97632787Y-39317523D01*
X97624715Y-39340082D01*
X97614471Y-39361742D01*
X97602153Y-39382292D01*
X97587881Y-39401537D01*
X97571790Y-39419290D01*
X97554037Y-39435381D01*
X97534792Y-39449653D01*
X97514242Y-39461971D01*
X97492582Y-39472215D01*
X97470023Y-39480287D01*
X97446781Y-39486109D01*
X97423081Y-39489624D01*
X97399150Y-39490800D01*
X96910850Y-39490800D01*
X96886919Y-39489624D01*
X96863219Y-39486109D01*
X96839977Y-39480287D01*
X96817418Y-39472215D01*
X96795758Y-39461971D01*
X96775208Y-39449653D01*
X96755963Y-39435381D01*
X96738210Y-39419290D01*
X96722119Y-39401537D01*
X96707847Y-39382292D01*
X96695529Y-39361742D01*
X96685285Y-39340082D01*
X96677213Y-39317523D01*
X96671391Y-39294281D01*
X96667876Y-39270581D01*
X96666700Y-39246650D01*
X96666700Y-38683350D01*
X96667876Y-38659419D01*
X96671391Y-38635719D01*
X96677213Y-38612477D01*
X96685285Y-38589918D01*
X96695529Y-38568258D01*
X96707847Y-38547708D01*
X96722119Y-38528463D01*
X96738210Y-38510710D01*
X96755963Y-38494619D01*
X96775208Y-38480347D01*
X96795758Y-38468029D01*
X96817418Y-38457785D01*
X96839977Y-38449713D01*
X96863219Y-38443891D01*
X96886919Y-38440376D01*
X96910850Y-38439200D01*
X97399150Y-38439200D01*
X97423081Y-38440376D01*
X97423081Y-38440376D01*
G37*
D11*
X97155000Y-38965000D03*
G04 #@! TD*
D10*
G04 #@! TO.C,C2*
G36*
X94423081Y-38440376D02*
X94446781Y-38443891D01*
X94470023Y-38449713D01*
X94492582Y-38457785D01*
X94514242Y-38468029D01*
X94534792Y-38480347D01*
X94554037Y-38494619D01*
X94571790Y-38510710D01*
X94587881Y-38528463D01*
X94602153Y-38547708D01*
X94614471Y-38568258D01*
X94624715Y-38589918D01*
X94632787Y-38612477D01*
X94638609Y-38635719D01*
X94642124Y-38659419D01*
X94643300Y-38683350D01*
X94643300Y-39246650D01*
X94642124Y-39270581D01*
X94638609Y-39294281D01*
X94632787Y-39317523D01*
X94624715Y-39340082D01*
X94614471Y-39361742D01*
X94602153Y-39382292D01*
X94587881Y-39401537D01*
X94571790Y-39419290D01*
X94554037Y-39435381D01*
X94534792Y-39449653D01*
X94514242Y-39461971D01*
X94492582Y-39472215D01*
X94470023Y-39480287D01*
X94446781Y-39486109D01*
X94423081Y-39489624D01*
X94399150Y-39490800D01*
X93910850Y-39490800D01*
X93886919Y-39489624D01*
X93863219Y-39486109D01*
X93839977Y-39480287D01*
X93817418Y-39472215D01*
X93795758Y-39461971D01*
X93775208Y-39449653D01*
X93755963Y-39435381D01*
X93738210Y-39419290D01*
X93722119Y-39401537D01*
X93707847Y-39382292D01*
X93695529Y-39361742D01*
X93685285Y-39340082D01*
X93677213Y-39317523D01*
X93671391Y-39294281D01*
X93667876Y-39270581D01*
X93666700Y-39246650D01*
X93666700Y-38683350D01*
X93667876Y-38659419D01*
X93671391Y-38635719D01*
X93677213Y-38612477D01*
X93685285Y-38589918D01*
X93695529Y-38568258D01*
X93707847Y-38547708D01*
X93722119Y-38528463D01*
X93738210Y-38510710D01*
X93755963Y-38494619D01*
X93775208Y-38480347D01*
X93795758Y-38468029D01*
X93817418Y-38457785D01*
X93839977Y-38449713D01*
X93863219Y-38443891D01*
X93886919Y-38440376D01*
X93910850Y-38439200D01*
X94399150Y-38439200D01*
X94423081Y-38440376D01*
X94423081Y-38440376D01*
G37*
D11*
X94155000Y-38965000D03*
D10*
G36*
X92848081Y-38440376D02*
X92871781Y-38443891D01*
X92895023Y-38449713D01*
X92917582Y-38457785D01*
X92939242Y-38468029D01*
X92959792Y-38480347D01*
X92979037Y-38494619D01*
X92996790Y-38510710D01*
X93012881Y-38528463D01*
X93027153Y-38547708D01*
X93039471Y-38568258D01*
X93049715Y-38589918D01*
X93057787Y-38612477D01*
X93063609Y-38635719D01*
X93067124Y-38659419D01*
X93068300Y-38683350D01*
X93068300Y-39246650D01*
X93067124Y-39270581D01*
X93063609Y-39294281D01*
X93057787Y-39317523D01*
X93049715Y-39340082D01*
X93039471Y-39361742D01*
X93027153Y-39382292D01*
X93012881Y-39401537D01*
X92996790Y-39419290D01*
X92979037Y-39435381D01*
X92959792Y-39449653D01*
X92939242Y-39461971D01*
X92917582Y-39472215D01*
X92895023Y-39480287D01*
X92871781Y-39486109D01*
X92848081Y-39489624D01*
X92824150Y-39490800D01*
X92335850Y-39490800D01*
X92311919Y-39489624D01*
X92288219Y-39486109D01*
X92264977Y-39480287D01*
X92242418Y-39472215D01*
X92220758Y-39461971D01*
X92200208Y-39449653D01*
X92180963Y-39435381D01*
X92163210Y-39419290D01*
X92147119Y-39401537D01*
X92132847Y-39382292D01*
X92120529Y-39361742D01*
X92110285Y-39340082D01*
X92102213Y-39317523D01*
X92096391Y-39294281D01*
X92092876Y-39270581D01*
X92091700Y-39246650D01*
X92091700Y-38683350D01*
X92092876Y-38659419D01*
X92096391Y-38635719D01*
X92102213Y-38612477D01*
X92110285Y-38589918D01*
X92120529Y-38568258D01*
X92132847Y-38547708D01*
X92147119Y-38528463D01*
X92163210Y-38510710D01*
X92180963Y-38494619D01*
X92200208Y-38480347D01*
X92220758Y-38468029D01*
X92242418Y-38457785D01*
X92264977Y-38449713D01*
X92288219Y-38443891D01*
X92311919Y-38440376D01*
X92335850Y-38439200D01*
X92824150Y-38439200D01*
X92848081Y-38440376D01*
X92848081Y-38440376D01*
G37*
D11*
X92580000Y-38965000D03*
G04 #@! TD*
D10*
G04 #@! TO.C,C3*
G36*
X86848081Y-38440376D02*
X86871781Y-38443891D01*
X86895023Y-38449713D01*
X86917582Y-38457785D01*
X86939242Y-38468029D01*
X86959792Y-38480347D01*
X86979037Y-38494619D01*
X86996790Y-38510710D01*
X87012881Y-38528463D01*
X87027153Y-38547708D01*
X87039471Y-38568258D01*
X87049715Y-38589918D01*
X87057787Y-38612477D01*
X87063609Y-38635719D01*
X87067124Y-38659419D01*
X87068300Y-38683350D01*
X87068300Y-39246650D01*
X87067124Y-39270581D01*
X87063609Y-39294281D01*
X87057787Y-39317523D01*
X87049715Y-39340082D01*
X87039471Y-39361742D01*
X87027153Y-39382292D01*
X87012881Y-39401537D01*
X86996790Y-39419290D01*
X86979037Y-39435381D01*
X86959792Y-39449653D01*
X86939242Y-39461971D01*
X86917582Y-39472215D01*
X86895023Y-39480287D01*
X86871781Y-39486109D01*
X86848081Y-39489624D01*
X86824150Y-39490800D01*
X86335850Y-39490800D01*
X86311919Y-39489624D01*
X86288219Y-39486109D01*
X86264977Y-39480287D01*
X86242418Y-39472215D01*
X86220758Y-39461971D01*
X86200208Y-39449653D01*
X86180963Y-39435381D01*
X86163210Y-39419290D01*
X86147119Y-39401537D01*
X86132847Y-39382292D01*
X86120529Y-39361742D01*
X86110285Y-39340082D01*
X86102213Y-39317523D01*
X86096391Y-39294281D01*
X86092876Y-39270581D01*
X86091700Y-39246650D01*
X86091700Y-38683350D01*
X86092876Y-38659419D01*
X86096391Y-38635719D01*
X86102213Y-38612477D01*
X86110285Y-38589918D01*
X86120529Y-38568258D01*
X86132847Y-38547708D01*
X86147119Y-38528463D01*
X86163210Y-38510710D01*
X86180963Y-38494619D01*
X86200208Y-38480347D01*
X86220758Y-38468029D01*
X86242418Y-38457785D01*
X86264977Y-38449713D01*
X86288219Y-38443891D01*
X86311919Y-38440376D01*
X86335850Y-38439200D01*
X86824150Y-38439200D01*
X86848081Y-38440376D01*
X86848081Y-38440376D01*
G37*
D11*
X86580000Y-38965000D03*
D10*
G36*
X88423081Y-38440376D02*
X88446781Y-38443891D01*
X88470023Y-38449713D01*
X88492582Y-38457785D01*
X88514242Y-38468029D01*
X88534792Y-38480347D01*
X88554037Y-38494619D01*
X88571790Y-38510710D01*
X88587881Y-38528463D01*
X88602153Y-38547708D01*
X88614471Y-38568258D01*
X88624715Y-38589918D01*
X88632787Y-38612477D01*
X88638609Y-38635719D01*
X88642124Y-38659419D01*
X88643300Y-38683350D01*
X88643300Y-39246650D01*
X88642124Y-39270581D01*
X88638609Y-39294281D01*
X88632787Y-39317523D01*
X88624715Y-39340082D01*
X88614471Y-39361742D01*
X88602153Y-39382292D01*
X88587881Y-39401537D01*
X88571790Y-39419290D01*
X88554037Y-39435381D01*
X88534792Y-39449653D01*
X88514242Y-39461971D01*
X88492582Y-39472215D01*
X88470023Y-39480287D01*
X88446781Y-39486109D01*
X88423081Y-39489624D01*
X88399150Y-39490800D01*
X87910850Y-39490800D01*
X87886919Y-39489624D01*
X87863219Y-39486109D01*
X87839977Y-39480287D01*
X87817418Y-39472215D01*
X87795758Y-39461971D01*
X87775208Y-39449653D01*
X87755963Y-39435381D01*
X87738210Y-39419290D01*
X87722119Y-39401537D01*
X87707847Y-39382292D01*
X87695529Y-39361742D01*
X87685285Y-39340082D01*
X87677213Y-39317523D01*
X87671391Y-39294281D01*
X87667876Y-39270581D01*
X87666700Y-39246650D01*
X87666700Y-38683350D01*
X87667876Y-38659419D01*
X87671391Y-38635719D01*
X87677213Y-38612477D01*
X87685285Y-38589918D01*
X87695529Y-38568258D01*
X87707847Y-38547708D01*
X87722119Y-38528463D01*
X87738210Y-38510710D01*
X87755963Y-38494619D01*
X87775208Y-38480347D01*
X87795758Y-38468029D01*
X87817418Y-38457785D01*
X87839977Y-38449713D01*
X87863219Y-38443891D01*
X87886919Y-38440376D01*
X87910850Y-38439200D01*
X88399150Y-38439200D01*
X88423081Y-38440376D01*
X88423081Y-38440376D01*
G37*
D11*
X88155000Y-38965000D03*
G04 #@! TD*
D10*
G04 #@! TO.C,C4*
G36*
X83848081Y-38440376D02*
X83871781Y-38443891D01*
X83895023Y-38449713D01*
X83917582Y-38457785D01*
X83939242Y-38468029D01*
X83959792Y-38480347D01*
X83979037Y-38494619D01*
X83996790Y-38510710D01*
X84012881Y-38528463D01*
X84027153Y-38547708D01*
X84039471Y-38568258D01*
X84049715Y-38589918D01*
X84057787Y-38612477D01*
X84063609Y-38635719D01*
X84067124Y-38659419D01*
X84068300Y-38683350D01*
X84068300Y-39246650D01*
X84067124Y-39270581D01*
X84063609Y-39294281D01*
X84057787Y-39317523D01*
X84049715Y-39340082D01*
X84039471Y-39361742D01*
X84027153Y-39382292D01*
X84012881Y-39401537D01*
X83996790Y-39419290D01*
X83979037Y-39435381D01*
X83959792Y-39449653D01*
X83939242Y-39461971D01*
X83917582Y-39472215D01*
X83895023Y-39480287D01*
X83871781Y-39486109D01*
X83848081Y-39489624D01*
X83824150Y-39490800D01*
X83335850Y-39490800D01*
X83311919Y-39489624D01*
X83288219Y-39486109D01*
X83264977Y-39480287D01*
X83242418Y-39472215D01*
X83220758Y-39461971D01*
X83200208Y-39449653D01*
X83180963Y-39435381D01*
X83163210Y-39419290D01*
X83147119Y-39401537D01*
X83132847Y-39382292D01*
X83120529Y-39361742D01*
X83110285Y-39340082D01*
X83102213Y-39317523D01*
X83096391Y-39294281D01*
X83092876Y-39270581D01*
X83091700Y-39246650D01*
X83091700Y-38683350D01*
X83092876Y-38659419D01*
X83096391Y-38635719D01*
X83102213Y-38612477D01*
X83110285Y-38589918D01*
X83120529Y-38568258D01*
X83132847Y-38547708D01*
X83147119Y-38528463D01*
X83163210Y-38510710D01*
X83180963Y-38494619D01*
X83200208Y-38480347D01*
X83220758Y-38468029D01*
X83242418Y-38457785D01*
X83264977Y-38449713D01*
X83288219Y-38443891D01*
X83311919Y-38440376D01*
X83335850Y-38439200D01*
X83824150Y-38439200D01*
X83848081Y-38440376D01*
X83848081Y-38440376D01*
G37*
D11*
X83580000Y-38965000D03*
D10*
G36*
X85423081Y-38440376D02*
X85446781Y-38443891D01*
X85470023Y-38449713D01*
X85492582Y-38457785D01*
X85514242Y-38468029D01*
X85534792Y-38480347D01*
X85554037Y-38494619D01*
X85571790Y-38510710D01*
X85587881Y-38528463D01*
X85602153Y-38547708D01*
X85614471Y-38568258D01*
X85624715Y-38589918D01*
X85632787Y-38612477D01*
X85638609Y-38635719D01*
X85642124Y-38659419D01*
X85643300Y-38683350D01*
X85643300Y-39246650D01*
X85642124Y-39270581D01*
X85638609Y-39294281D01*
X85632787Y-39317523D01*
X85624715Y-39340082D01*
X85614471Y-39361742D01*
X85602153Y-39382292D01*
X85587881Y-39401537D01*
X85571790Y-39419290D01*
X85554037Y-39435381D01*
X85534792Y-39449653D01*
X85514242Y-39461971D01*
X85492582Y-39472215D01*
X85470023Y-39480287D01*
X85446781Y-39486109D01*
X85423081Y-39489624D01*
X85399150Y-39490800D01*
X84910850Y-39490800D01*
X84886919Y-39489624D01*
X84863219Y-39486109D01*
X84839977Y-39480287D01*
X84817418Y-39472215D01*
X84795758Y-39461971D01*
X84775208Y-39449653D01*
X84755963Y-39435381D01*
X84738210Y-39419290D01*
X84722119Y-39401537D01*
X84707847Y-39382292D01*
X84695529Y-39361742D01*
X84685285Y-39340082D01*
X84677213Y-39317523D01*
X84671391Y-39294281D01*
X84667876Y-39270581D01*
X84666700Y-39246650D01*
X84666700Y-38683350D01*
X84667876Y-38659419D01*
X84671391Y-38635719D01*
X84677213Y-38612477D01*
X84685285Y-38589918D01*
X84695529Y-38568258D01*
X84707847Y-38547708D01*
X84722119Y-38528463D01*
X84738210Y-38510710D01*
X84755963Y-38494619D01*
X84775208Y-38480347D01*
X84795758Y-38468029D01*
X84817418Y-38457785D01*
X84839977Y-38449713D01*
X84863219Y-38443891D01*
X84886919Y-38440376D01*
X84910850Y-38439200D01*
X85399150Y-38439200D01*
X85423081Y-38440376D01*
X85423081Y-38440376D01*
G37*
D11*
X85155000Y-38965000D03*
G04 #@! TD*
D10*
G04 #@! TO.C,C5*
G36*
X95848081Y-65440376D02*
X95871781Y-65443891D01*
X95895023Y-65449713D01*
X95917582Y-65457785D01*
X95939242Y-65468029D01*
X95959792Y-65480347D01*
X95979037Y-65494619D01*
X95996790Y-65510710D01*
X96012881Y-65528463D01*
X96027153Y-65547708D01*
X96039471Y-65568258D01*
X96049715Y-65589918D01*
X96057787Y-65612477D01*
X96063609Y-65635719D01*
X96067124Y-65659419D01*
X96068300Y-65683350D01*
X96068300Y-66246650D01*
X96067124Y-66270581D01*
X96063609Y-66294281D01*
X96057787Y-66317523D01*
X96049715Y-66340082D01*
X96039471Y-66361742D01*
X96027153Y-66382292D01*
X96012881Y-66401537D01*
X95996790Y-66419290D01*
X95979037Y-66435381D01*
X95959792Y-66449653D01*
X95939242Y-66461971D01*
X95917582Y-66472215D01*
X95895023Y-66480287D01*
X95871781Y-66486109D01*
X95848081Y-66489624D01*
X95824150Y-66490800D01*
X95335850Y-66490800D01*
X95311919Y-66489624D01*
X95288219Y-66486109D01*
X95264977Y-66480287D01*
X95242418Y-66472215D01*
X95220758Y-66461971D01*
X95200208Y-66449653D01*
X95180963Y-66435381D01*
X95163210Y-66419290D01*
X95147119Y-66401537D01*
X95132847Y-66382292D01*
X95120529Y-66361742D01*
X95110285Y-66340082D01*
X95102213Y-66317523D01*
X95096391Y-66294281D01*
X95092876Y-66270581D01*
X95091700Y-66246650D01*
X95091700Y-65683350D01*
X95092876Y-65659419D01*
X95096391Y-65635719D01*
X95102213Y-65612477D01*
X95110285Y-65589918D01*
X95120529Y-65568258D01*
X95132847Y-65547708D01*
X95147119Y-65528463D01*
X95163210Y-65510710D01*
X95180963Y-65494619D01*
X95200208Y-65480347D01*
X95220758Y-65468029D01*
X95242418Y-65457785D01*
X95264977Y-65449713D01*
X95288219Y-65443891D01*
X95311919Y-65440376D01*
X95335850Y-65439200D01*
X95824150Y-65439200D01*
X95848081Y-65440376D01*
X95848081Y-65440376D01*
G37*
D11*
X95580000Y-65965000D03*
D10*
G36*
X97423081Y-65440376D02*
X97446781Y-65443891D01*
X97470023Y-65449713D01*
X97492582Y-65457785D01*
X97514242Y-65468029D01*
X97534792Y-65480347D01*
X97554037Y-65494619D01*
X97571790Y-65510710D01*
X97587881Y-65528463D01*
X97602153Y-65547708D01*
X97614471Y-65568258D01*
X97624715Y-65589918D01*
X97632787Y-65612477D01*
X97638609Y-65635719D01*
X97642124Y-65659419D01*
X97643300Y-65683350D01*
X97643300Y-66246650D01*
X97642124Y-66270581D01*
X97638609Y-66294281D01*
X97632787Y-66317523D01*
X97624715Y-66340082D01*
X97614471Y-66361742D01*
X97602153Y-66382292D01*
X97587881Y-66401537D01*
X97571790Y-66419290D01*
X97554037Y-66435381D01*
X97534792Y-66449653D01*
X97514242Y-66461971D01*
X97492582Y-66472215D01*
X97470023Y-66480287D01*
X97446781Y-66486109D01*
X97423081Y-66489624D01*
X97399150Y-66490800D01*
X96910850Y-66490800D01*
X96886919Y-66489624D01*
X96863219Y-66486109D01*
X96839977Y-66480287D01*
X96817418Y-66472215D01*
X96795758Y-66461971D01*
X96775208Y-66449653D01*
X96755963Y-66435381D01*
X96738210Y-66419290D01*
X96722119Y-66401537D01*
X96707847Y-66382292D01*
X96695529Y-66361742D01*
X96685285Y-66340082D01*
X96677213Y-66317523D01*
X96671391Y-66294281D01*
X96667876Y-66270581D01*
X96666700Y-66246650D01*
X96666700Y-65683350D01*
X96667876Y-65659419D01*
X96671391Y-65635719D01*
X96677213Y-65612477D01*
X96685285Y-65589918D01*
X96695529Y-65568258D01*
X96707847Y-65547708D01*
X96722119Y-65528463D01*
X96738210Y-65510710D01*
X96755963Y-65494619D01*
X96775208Y-65480347D01*
X96795758Y-65468029D01*
X96817418Y-65457785D01*
X96839977Y-65449713D01*
X96863219Y-65443891D01*
X96886919Y-65440376D01*
X96910850Y-65439200D01*
X97399150Y-65439200D01*
X97423081Y-65440376D01*
X97423081Y-65440376D01*
G37*
D11*
X97155000Y-65965000D03*
G04 #@! TD*
D10*
G04 #@! TO.C,C6*
G36*
X94423081Y-65440376D02*
X94446781Y-65443891D01*
X94470023Y-65449713D01*
X94492582Y-65457785D01*
X94514242Y-65468029D01*
X94534792Y-65480347D01*
X94554037Y-65494619D01*
X94571790Y-65510710D01*
X94587881Y-65528463D01*
X94602153Y-65547708D01*
X94614471Y-65568258D01*
X94624715Y-65589918D01*
X94632787Y-65612477D01*
X94638609Y-65635719D01*
X94642124Y-65659419D01*
X94643300Y-65683350D01*
X94643300Y-66246650D01*
X94642124Y-66270581D01*
X94638609Y-66294281D01*
X94632787Y-66317523D01*
X94624715Y-66340082D01*
X94614471Y-66361742D01*
X94602153Y-66382292D01*
X94587881Y-66401537D01*
X94571790Y-66419290D01*
X94554037Y-66435381D01*
X94534792Y-66449653D01*
X94514242Y-66461971D01*
X94492582Y-66472215D01*
X94470023Y-66480287D01*
X94446781Y-66486109D01*
X94423081Y-66489624D01*
X94399150Y-66490800D01*
X93910850Y-66490800D01*
X93886919Y-66489624D01*
X93863219Y-66486109D01*
X93839977Y-66480287D01*
X93817418Y-66472215D01*
X93795758Y-66461971D01*
X93775208Y-66449653D01*
X93755963Y-66435381D01*
X93738210Y-66419290D01*
X93722119Y-66401537D01*
X93707847Y-66382292D01*
X93695529Y-66361742D01*
X93685285Y-66340082D01*
X93677213Y-66317523D01*
X93671391Y-66294281D01*
X93667876Y-66270581D01*
X93666700Y-66246650D01*
X93666700Y-65683350D01*
X93667876Y-65659419D01*
X93671391Y-65635719D01*
X93677213Y-65612477D01*
X93685285Y-65589918D01*
X93695529Y-65568258D01*
X93707847Y-65547708D01*
X93722119Y-65528463D01*
X93738210Y-65510710D01*
X93755963Y-65494619D01*
X93775208Y-65480347D01*
X93795758Y-65468029D01*
X93817418Y-65457785D01*
X93839977Y-65449713D01*
X93863219Y-65443891D01*
X93886919Y-65440376D01*
X93910850Y-65439200D01*
X94399150Y-65439200D01*
X94423081Y-65440376D01*
X94423081Y-65440376D01*
G37*
D11*
X94155000Y-65965000D03*
D10*
G36*
X92848081Y-65440376D02*
X92871781Y-65443891D01*
X92895023Y-65449713D01*
X92917582Y-65457785D01*
X92939242Y-65468029D01*
X92959792Y-65480347D01*
X92979037Y-65494619D01*
X92996790Y-65510710D01*
X93012881Y-65528463D01*
X93027153Y-65547708D01*
X93039471Y-65568258D01*
X93049715Y-65589918D01*
X93057787Y-65612477D01*
X93063609Y-65635719D01*
X93067124Y-65659419D01*
X93068300Y-65683350D01*
X93068300Y-66246650D01*
X93067124Y-66270581D01*
X93063609Y-66294281D01*
X93057787Y-66317523D01*
X93049715Y-66340082D01*
X93039471Y-66361742D01*
X93027153Y-66382292D01*
X93012881Y-66401537D01*
X92996790Y-66419290D01*
X92979037Y-66435381D01*
X92959792Y-66449653D01*
X92939242Y-66461971D01*
X92917582Y-66472215D01*
X92895023Y-66480287D01*
X92871781Y-66486109D01*
X92848081Y-66489624D01*
X92824150Y-66490800D01*
X92335850Y-66490800D01*
X92311919Y-66489624D01*
X92288219Y-66486109D01*
X92264977Y-66480287D01*
X92242418Y-66472215D01*
X92220758Y-66461971D01*
X92200208Y-66449653D01*
X92180963Y-66435381D01*
X92163210Y-66419290D01*
X92147119Y-66401537D01*
X92132847Y-66382292D01*
X92120529Y-66361742D01*
X92110285Y-66340082D01*
X92102213Y-66317523D01*
X92096391Y-66294281D01*
X92092876Y-66270581D01*
X92091700Y-66246650D01*
X92091700Y-65683350D01*
X92092876Y-65659419D01*
X92096391Y-65635719D01*
X92102213Y-65612477D01*
X92110285Y-65589918D01*
X92120529Y-65568258D01*
X92132847Y-65547708D01*
X92147119Y-65528463D01*
X92163210Y-65510710D01*
X92180963Y-65494619D01*
X92200208Y-65480347D01*
X92220758Y-65468029D01*
X92242418Y-65457785D01*
X92264977Y-65449713D01*
X92288219Y-65443891D01*
X92311919Y-65440376D01*
X92335850Y-65439200D01*
X92824150Y-65439200D01*
X92848081Y-65440376D01*
X92848081Y-65440376D01*
G37*
D11*
X92580000Y-65965000D03*
G04 #@! TD*
D10*
G04 #@! TO.C,C7*
G36*
X88423081Y-65440376D02*
X88446781Y-65443891D01*
X88470023Y-65449713D01*
X88492582Y-65457785D01*
X88514242Y-65468029D01*
X88534792Y-65480347D01*
X88554037Y-65494619D01*
X88571790Y-65510710D01*
X88587881Y-65528463D01*
X88602153Y-65547708D01*
X88614471Y-65568258D01*
X88624715Y-65589918D01*
X88632787Y-65612477D01*
X88638609Y-65635719D01*
X88642124Y-65659419D01*
X88643300Y-65683350D01*
X88643300Y-66246650D01*
X88642124Y-66270581D01*
X88638609Y-66294281D01*
X88632787Y-66317523D01*
X88624715Y-66340082D01*
X88614471Y-66361742D01*
X88602153Y-66382292D01*
X88587881Y-66401537D01*
X88571790Y-66419290D01*
X88554037Y-66435381D01*
X88534792Y-66449653D01*
X88514242Y-66461971D01*
X88492582Y-66472215D01*
X88470023Y-66480287D01*
X88446781Y-66486109D01*
X88423081Y-66489624D01*
X88399150Y-66490800D01*
X87910850Y-66490800D01*
X87886919Y-66489624D01*
X87863219Y-66486109D01*
X87839977Y-66480287D01*
X87817418Y-66472215D01*
X87795758Y-66461971D01*
X87775208Y-66449653D01*
X87755963Y-66435381D01*
X87738210Y-66419290D01*
X87722119Y-66401537D01*
X87707847Y-66382292D01*
X87695529Y-66361742D01*
X87685285Y-66340082D01*
X87677213Y-66317523D01*
X87671391Y-66294281D01*
X87667876Y-66270581D01*
X87666700Y-66246650D01*
X87666700Y-65683350D01*
X87667876Y-65659419D01*
X87671391Y-65635719D01*
X87677213Y-65612477D01*
X87685285Y-65589918D01*
X87695529Y-65568258D01*
X87707847Y-65547708D01*
X87722119Y-65528463D01*
X87738210Y-65510710D01*
X87755963Y-65494619D01*
X87775208Y-65480347D01*
X87795758Y-65468029D01*
X87817418Y-65457785D01*
X87839977Y-65449713D01*
X87863219Y-65443891D01*
X87886919Y-65440376D01*
X87910850Y-65439200D01*
X88399150Y-65439200D01*
X88423081Y-65440376D01*
X88423081Y-65440376D01*
G37*
D11*
X88155000Y-65965000D03*
D10*
G36*
X86848081Y-65440376D02*
X86871781Y-65443891D01*
X86895023Y-65449713D01*
X86917582Y-65457785D01*
X86939242Y-65468029D01*
X86959792Y-65480347D01*
X86979037Y-65494619D01*
X86996790Y-65510710D01*
X87012881Y-65528463D01*
X87027153Y-65547708D01*
X87039471Y-65568258D01*
X87049715Y-65589918D01*
X87057787Y-65612477D01*
X87063609Y-65635719D01*
X87067124Y-65659419D01*
X87068300Y-65683350D01*
X87068300Y-66246650D01*
X87067124Y-66270581D01*
X87063609Y-66294281D01*
X87057787Y-66317523D01*
X87049715Y-66340082D01*
X87039471Y-66361742D01*
X87027153Y-66382292D01*
X87012881Y-66401537D01*
X86996790Y-66419290D01*
X86979037Y-66435381D01*
X86959792Y-66449653D01*
X86939242Y-66461971D01*
X86917582Y-66472215D01*
X86895023Y-66480287D01*
X86871781Y-66486109D01*
X86848081Y-66489624D01*
X86824150Y-66490800D01*
X86335850Y-66490800D01*
X86311919Y-66489624D01*
X86288219Y-66486109D01*
X86264977Y-66480287D01*
X86242418Y-66472215D01*
X86220758Y-66461971D01*
X86200208Y-66449653D01*
X86180963Y-66435381D01*
X86163210Y-66419290D01*
X86147119Y-66401537D01*
X86132847Y-66382292D01*
X86120529Y-66361742D01*
X86110285Y-66340082D01*
X86102213Y-66317523D01*
X86096391Y-66294281D01*
X86092876Y-66270581D01*
X86091700Y-66246650D01*
X86091700Y-65683350D01*
X86092876Y-65659419D01*
X86096391Y-65635719D01*
X86102213Y-65612477D01*
X86110285Y-65589918D01*
X86120529Y-65568258D01*
X86132847Y-65547708D01*
X86147119Y-65528463D01*
X86163210Y-65510710D01*
X86180963Y-65494619D01*
X86200208Y-65480347D01*
X86220758Y-65468029D01*
X86242418Y-65457785D01*
X86264977Y-65449713D01*
X86288219Y-65443891D01*
X86311919Y-65440376D01*
X86335850Y-65439200D01*
X86824150Y-65439200D01*
X86848081Y-65440376D01*
X86848081Y-65440376D01*
G37*
D11*
X86580000Y-65965000D03*
G04 #@! TD*
D10*
G04 #@! TO.C,C8*
G36*
X83848081Y-65440376D02*
X83871781Y-65443891D01*
X83895023Y-65449713D01*
X83917582Y-65457785D01*
X83939242Y-65468029D01*
X83959792Y-65480347D01*
X83979037Y-65494619D01*
X83996790Y-65510710D01*
X84012881Y-65528463D01*
X84027153Y-65547708D01*
X84039471Y-65568258D01*
X84049715Y-65589918D01*
X84057787Y-65612477D01*
X84063609Y-65635719D01*
X84067124Y-65659419D01*
X84068300Y-65683350D01*
X84068300Y-66246650D01*
X84067124Y-66270581D01*
X84063609Y-66294281D01*
X84057787Y-66317523D01*
X84049715Y-66340082D01*
X84039471Y-66361742D01*
X84027153Y-66382292D01*
X84012881Y-66401537D01*
X83996790Y-66419290D01*
X83979037Y-66435381D01*
X83959792Y-66449653D01*
X83939242Y-66461971D01*
X83917582Y-66472215D01*
X83895023Y-66480287D01*
X83871781Y-66486109D01*
X83848081Y-66489624D01*
X83824150Y-66490800D01*
X83335850Y-66490800D01*
X83311919Y-66489624D01*
X83288219Y-66486109D01*
X83264977Y-66480287D01*
X83242418Y-66472215D01*
X83220758Y-66461971D01*
X83200208Y-66449653D01*
X83180963Y-66435381D01*
X83163210Y-66419290D01*
X83147119Y-66401537D01*
X83132847Y-66382292D01*
X83120529Y-66361742D01*
X83110285Y-66340082D01*
X83102213Y-66317523D01*
X83096391Y-66294281D01*
X83092876Y-66270581D01*
X83091700Y-66246650D01*
X83091700Y-65683350D01*
X83092876Y-65659419D01*
X83096391Y-65635719D01*
X83102213Y-65612477D01*
X83110285Y-65589918D01*
X83120529Y-65568258D01*
X83132847Y-65547708D01*
X83147119Y-65528463D01*
X83163210Y-65510710D01*
X83180963Y-65494619D01*
X83200208Y-65480347D01*
X83220758Y-65468029D01*
X83242418Y-65457785D01*
X83264977Y-65449713D01*
X83288219Y-65443891D01*
X83311919Y-65440376D01*
X83335850Y-65439200D01*
X83824150Y-65439200D01*
X83848081Y-65440376D01*
X83848081Y-65440376D01*
G37*
D11*
X83580000Y-65965000D03*
D10*
G36*
X85423081Y-65440376D02*
X85446781Y-65443891D01*
X85470023Y-65449713D01*
X85492582Y-65457785D01*
X85514242Y-65468029D01*
X85534792Y-65480347D01*
X85554037Y-65494619D01*
X85571790Y-65510710D01*
X85587881Y-65528463D01*
X85602153Y-65547708D01*
X85614471Y-65568258D01*
X85624715Y-65589918D01*
X85632787Y-65612477D01*
X85638609Y-65635719D01*
X85642124Y-65659419D01*
X85643300Y-65683350D01*
X85643300Y-66246650D01*
X85642124Y-66270581D01*
X85638609Y-66294281D01*
X85632787Y-66317523D01*
X85624715Y-66340082D01*
X85614471Y-66361742D01*
X85602153Y-66382292D01*
X85587881Y-66401537D01*
X85571790Y-66419290D01*
X85554037Y-66435381D01*
X85534792Y-66449653D01*
X85514242Y-66461971D01*
X85492582Y-66472215D01*
X85470023Y-66480287D01*
X85446781Y-66486109D01*
X85423081Y-66489624D01*
X85399150Y-66490800D01*
X84910850Y-66490800D01*
X84886919Y-66489624D01*
X84863219Y-66486109D01*
X84839977Y-66480287D01*
X84817418Y-66472215D01*
X84795758Y-66461971D01*
X84775208Y-66449653D01*
X84755963Y-66435381D01*
X84738210Y-66419290D01*
X84722119Y-66401537D01*
X84707847Y-66382292D01*
X84695529Y-66361742D01*
X84685285Y-66340082D01*
X84677213Y-66317523D01*
X84671391Y-66294281D01*
X84667876Y-66270581D01*
X84666700Y-66246650D01*
X84666700Y-65683350D01*
X84667876Y-65659419D01*
X84671391Y-65635719D01*
X84677213Y-65612477D01*
X84685285Y-65589918D01*
X84695529Y-65568258D01*
X84707847Y-65547708D01*
X84722119Y-65528463D01*
X84738210Y-65510710D01*
X84755963Y-65494619D01*
X84775208Y-65480347D01*
X84795758Y-65468029D01*
X84817418Y-65457785D01*
X84839977Y-65449713D01*
X84863219Y-65443891D01*
X84886919Y-65440376D01*
X84910850Y-65439200D01*
X85399150Y-65439200D01*
X85423081Y-65440376D01*
X85423081Y-65440376D01*
G37*
D11*
X85155000Y-65965000D03*
G04 #@! TD*
D10*
G04 #@! TO.C,C9*
G36*
X97423081Y-36940376D02*
X97446781Y-36943891D01*
X97470023Y-36949713D01*
X97492582Y-36957785D01*
X97514242Y-36968029D01*
X97534792Y-36980347D01*
X97554037Y-36994619D01*
X97571790Y-37010710D01*
X97587881Y-37028463D01*
X97602153Y-37047708D01*
X97614471Y-37068258D01*
X97624715Y-37089918D01*
X97632787Y-37112477D01*
X97638609Y-37135719D01*
X97642124Y-37159419D01*
X97643300Y-37183350D01*
X97643300Y-37746650D01*
X97642124Y-37770581D01*
X97638609Y-37794281D01*
X97632787Y-37817523D01*
X97624715Y-37840082D01*
X97614471Y-37861742D01*
X97602153Y-37882292D01*
X97587881Y-37901537D01*
X97571790Y-37919290D01*
X97554037Y-37935381D01*
X97534792Y-37949653D01*
X97514242Y-37961971D01*
X97492582Y-37972215D01*
X97470023Y-37980287D01*
X97446781Y-37986109D01*
X97423081Y-37989624D01*
X97399150Y-37990800D01*
X96910850Y-37990800D01*
X96886919Y-37989624D01*
X96863219Y-37986109D01*
X96839977Y-37980287D01*
X96817418Y-37972215D01*
X96795758Y-37961971D01*
X96775208Y-37949653D01*
X96755963Y-37935381D01*
X96738210Y-37919290D01*
X96722119Y-37901537D01*
X96707847Y-37882292D01*
X96695529Y-37861742D01*
X96685285Y-37840082D01*
X96677213Y-37817523D01*
X96671391Y-37794281D01*
X96667876Y-37770581D01*
X96666700Y-37746650D01*
X96666700Y-37183350D01*
X96667876Y-37159419D01*
X96671391Y-37135719D01*
X96677213Y-37112477D01*
X96685285Y-37089918D01*
X96695529Y-37068258D01*
X96707847Y-37047708D01*
X96722119Y-37028463D01*
X96738210Y-37010710D01*
X96755963Y-36994619D01*
X96775208Y-36980347D01*
X96795758Y-36968029D01*
X96817418Y-36957785D01*
X96839977Y-36949713D01*
X96863219Y-36943891D01*
X96886919Y-36940376D01*
X96910850Y-36939200D01*
X97399150Y-36939200D01*
X97423081Y-36940376D01*
X97423081Y-36940376D01*
G37*
D11*
X97155000Y-37465000D03*
D10*
G36*
X95848081Y-36940376D02*
X95871781Y-36943891D01*
X95895023Y-36949713D01*
X95917582Y-36957785D01*
X95939242Y-36968029D01*
X95959792Y-36980347D01*
X95979037Y-36994619D01*
X95996790Y-37010710D01*
X96012881Y-37028463D01*
X96027153Y-37047708D01*
X96039471Y-37068258D01*
X96049715Y-37089918D01*
X96057787Y-37112477D01*
X96063609Y-37135719D01*
X96067124Y-37159419D01*
X96068300Y-37183350D01*
X96068300Y-37746650D01*
X96067124Y-37770581D01*
X96063609Y-37794281D01*
X96057787Y-37817523D01*
X96049715Y-37840082D01*
X96039471Y-37861742D01*
X96027153Y-37882292D01*
X96012881Y-37901537D01*
X95996790Y-37919290D01*
X95979037Y-37935381D01*
X95959792Y-37949653D01*
X95939242Y-37961971D01*
X95917582Y-37972215D01*
X95895023Y-37980287D01*
X95871781Y-37986109D01*
X95848081Y-37989624D01*
X95824150Y-37990800D01*
X95335850Y-37990800D01*
X95311919Y-37989624D01*
X95288219Y-37986109D01*
X95264977Y-37980287D01*
X95242418Y-37972215D01*
X95220758Y-37961971D01*
X95200208Y-37949653D01*
X95180963Y-37935381D01*
X95163210Y-37919290D01*
X95147119Y-37901537D01*
X95132847Y-37882292D01*
X95120529Y-37861742D01*
X95110285Y-37840082D01*
X95102213Y-37817523D01*
X95096391Y-37794281D01*
X95092876Y-37770581D01*
X95091700Y-37746650D01*
X95091700Y-37183350D01*
X95092876Y-37159419D01*
X95096391Y-37135719D01*
X95102213Y-37112477D01*
X95110285Y-37089918D01*
X95120529Y-37068258D01*
X95132847Y-37047708D01*
X95147119Y-37028463D01*
X95163210Y-37010710D01*
X95180963Y-36994619D01*
X95200208Y-36980347D01*
X95220758Y-36968029D01*
X95242418Y-36957785D01*
X95264977Y-36949713D01*
X95288219Y-36943891D01*
X95311919Y-36940376D01*
X95335850Y-36939200D01*
X95824150Y-36939200D01*
X95848081Y-36940376D01*
X95848081Y-36940376D01*
G37*
D11*
X95580000Y-37465000D03*
G04 #@! TD*
D10*
G04 #@! TO.C,C10*
G36*
X95848081Y-35440376D02*
X95871781Y-35443891D01*
X95895023Y-35449713D01*
X95917582Y-35457785D01*
X95939242Y-35468029D01*
X95959792Y-35480347D01*
X95979037Y-35494619D01*
X95996790Y-35510710D01*
X96012881Y-35528463D01*
X96027153Y-35547708D01*
X96039471Y-35568258D01*
X96049715Y-35589918D01*
X96057787Y-35612477D01*
X96063609Y-35635719D01*
X96067124Y-35659419D01*
X96068300Y-35683350D01*
X96068300Y-36246650D01*
X96067124Y-36270581D01*
X96063609Y-36294281D01*
X96057787Y-36317523D01*
X96049715Y-36340082D01*
X96039471Y-36361742D01*
X96027153Y-36382292D01*
X96012881Y-36401537D01*
X95996790Y-36419290D01*
X95979037Y-36435381D01*
X95959792Y-36449653D01*
X95939242Y-36461971D01*
X95917582Y-36472215D01*
X95895023Y-36480287D01*
X95871781Y-36486109D01*
X95848081Y-36489624D01*
X95824150Y-36490800D01*
X95335850Y-36490800D01*
X95311919Y-36489624D01*
X95288219Y-36486109D01*
X95264977Y-36480287D01*
X95242418Y-36472215D01*
X95220758Y-36461971D01*
X95200208Y-36449653D01*
X95180963Y-36435381D01*
X95163210Y-36419290D01*
X95147119Y-36401537D01*
X95132847Y-36382292D01*
X95120529Y-36361742D01*
X95110285Y-36340082D01*
X95102213Y-36317523D01*
X95096391Y-36294281D01*
X95092876Y-36270581D01*
X95091700Y-36246650D01*
X95091700Y-35683350D01*
X95092876Y-35659419D01*
X95096391Y-35635719D01*
X95102213Y-35612477D01*
X95110285Y-35589918D01*
X95120529Y-35568258D01*
X95132847Y-35547708D01*
X95147119Y-35528463D01*
X95163210Y-35510710D01*
X95180963Y-35494619D01*
X95200208Y-35480347D01*
X95220758Y-35468029D01*
X95242418Y-35457785D01*
X95264977Y-35449713D01*
X95288219Y-35443891D01*
X95311919Y-35440376D01*
X95335850Y-35439200D01*
X95824150Y-35439200D01*
X95848081Y-35440376D01*
X95848081Y-35440376D01*
G37*
D11*
X95580000Y-35965000D03*
D10*
G36*
X97423081Y-35440376D02*
X97446781Y-35443891D01*
X97470023Y-35449713D01*
X97492582Y-35457785D01*
X97514242Y-35468029D01*
X97534792Y-35480347D01*
X97554037Y-35494619D01*
X97571790Y-35510710D01*
X97587881Y-35528463D01*
X97602153Y-35547708D01*
X97614471Y-35568258D01*
X97624715Y-35589918D01*
X97632787Y-35612477D01*
X97638609Y-35635719D01*
X97642124Y-35659419D01*
X97643300Y-35683350D01*
X97643300Y-36246650D01*
X97642124Y-36270581D01*
X97638609Y-36294281D01*
X97632787Y-36317523D01*
X97624715Y-36340082D01*
X97614471Y-36361742D01*
X97602153Y-36382292D01*
X97587881Y-36401537D01*
X97571790Y-36419290D01*
X97554037Y-36435381D01*
X97534792Y-36449653D01*
X97514242Y-36461971D01*
X97492582Y-36472215D01*
X97470023Y-36480287D01*
X97446781Y-36486109D01*
X97423081Y-36489624D01*
X97399150Y-36490800D01*
X96910850Y-36490800D01*
X96886919Y-36489624D01*
X96863219Y-36486109D01*
X96839977Y-36480287D01*
X96817418Y-36472215D01*
X96795758Y-36461971D01*
X96775208Y-36449653D01*
X96755963Y-36435381D01*
X96738210Y-36419290D01*
X96722119Y-36401537D01*
X96707847Y-36382292D01*
X96695529Y-36361742D01*
X96685285Y-36340082D01*
X96677213Y-36317523D01*
X96671391Y-36294281D01*
X96667876Y-36270581D01*
X96666700Y-36246650D01*
X96666700Y-35683350D01*
X96667876Y-35659419D01*
X96671391Y-35635719D01*
X96677213Y-35612477D01*
X96685285Y-35589918D01*
X96695529Y-35568258D01*
X96707847Y-35547708D01*
X96722119Y-35528463D01*
X96738210Y-35510710D01*
X96755963Y-35494619D01*
X96775208Y-35480347D01*
X96795758Y-35468029D01*
X96817418Y-35457785D01*
X96839977Y-35449713D01*
X96863219Y-35443891D01*
X96886919Y-35440376D01*
X96910850Y-35439200D01*
X97399150Y-35439200D01*
X97423081Y-35440376D01*
X97423081Y-35440376D01*
G37*
D11*
X97155000Y-35965000D03*
G04 #@! TD*
D10*
G04 #@! TO.C,C11*
G36*
X92848081Y-35440376D02*
X92871781Y-35443891D01*
X92895023Y-35449713D01*
X92917582Y-35457785D01*
X92939242Y-35468029D01*
X92959792Y-35480347D01*
X92979037Y-35494619D01*
X92996790Y-35510710D01*
X93012881Y-35528463D01*
X93027153Y-35547708D01*
X93039471Y-35568258D01*
X93049715Y-35589918D01*
X93057787Y-35612477D01*
X93063609Y-35635719D01*
X93067124Y-35659419D01*
X93068300Y-35683350D01*
X93068300Y-36246650D01*
X93067124Y-36270581D01*
X93063609Y-36294281D01*
X93057787Y-36317523D01*
X93049715Y-36340082D01*
X93039471Y-36361742D01*
X93027153Y-36382292D01*
X93012881Y-36401537D01*
X92996790Y-36419290D01*
X92979037Y-36435381D01*
X92959792Y-36449653D01*
X92939242Y-36461971D01*
X92917582Y-36472215D01*
X92895023Y-36480287D01*
X92871781Y-36486109D01*
X92848081Y-36489624D01*
X92824150Y-36490800D01*
X92335850Y-36490800D01*
X92311919Y-36489624D01*
X92288219Y-36486109D01*
X92264977Y-36480287D01*
X92242418Y-36472215D01*
X92220758Y-36461971D01*
X92200208Y-36449653D01*
X92180963Y-36435381D01*
X92163210Y-36419290D01*
X92147119Y-36401537D01*
X92132847Y-36382292D01*
X92120529Y-36361742D01*
X92110285Y-36340082D01*
X92102213Y-36317523D01*
X92096391Y-36294281D01*
X92092876Y-36270581D01*
X92091700Y-36246650D01*
X92091700Y-35683350D01*
X92092876Y-35659419D01*
X92096391Y-35635719D01*
X92102213Y-35612477D01*
X92110285Y-35589918D01*
X92120529Y-35568258D01*
X92132847Y-35547708D01*
X92147119Y-35528463D01*
X92163210Y-35510710D01*
X92180963Y-35494619D01*
X92200208Y-35480347D01*
X92220758Y-35468029D01*
X92242418Y-35457785D01*
X92264977Y-35449713D01*
X92288219Y-35443891D01*
X92311919Y-35440376D01*
X92335850Y-35439200D01*
X92824150Y-35439200D01*
X92848081Y-35440376D01*
X92848081Y-35440376D01*
G37*
D11*
X92580000Y-35965000D03*
D10*
G36*
X94423081Y-35440376D02*
X94446781Y-35443891D01*
X94470023Y-35449713D01*
X94492582Y-35457785D01*
X94514242Y-35468029D01*
X94534792Y-35480347D01*
X94554037Y-35494619D01*
X94571790Y-35510710D01*
X94587881Y-35528463D01*
X94602153Y-35547708D01*
X94614471Y-35568258D01*
X94624715Y-35589918D01*
X94632787Y-35612477D01*
X94638609Y-35635719D01*
X94642124Y-35659419D01*
X94643300Y-35683350D01*
X94643300Y-36246650D01*
X94642124Y-36270581D01*
X94638609Y-36294281D01*
X94632787Y-36317523D01*
X94624715Y-36340082D01*
X94614471Y-36361742D01*
X94602153Y-36382292D01*
X94587881Y-36401537D01*
X94571790Y-36419290D01*
X94554037Y-36435381D01*
X94534792Y-36449653D01*
X94514242Y-36461971D01*
X94492582Y-36472215D01*
X94470023Y-36480287D01*
X94446781Y-36486109D01*
X94423081Y-36489624D01*
X94399150Y-36490800D01*
X93910850Y-36490800D01*
X93886919Y-36489624D01*
X93863219Y-36486109D01*
X93839977Y-36480287D01*
X93817418Y-36472215D01*
X93795758Y-36461971D01*
X93775208Y-36449653D01*
X93755963Y-36435381D01*
X93738210Y-36419290D01*
X93722119Y-36401537D01*
X93707847Y-36382292D01*
X93695529Y-36361742D01*
X93685285Y-36340082D01*
X93677213Y-36317523D01*
X93671391Y-36294281D01*
X93667876Y-36270581D01*
X93666700Y-36246650D01*
X93666700Y-35683350D01*
X93667876Y-35659419D01*
X93671391Y-35635719D01*
X93677213Y-35612477D01*
X93685285Y-35589918D01*
X93695529Y-35568258D01*
X93707847Y-35547708D01*
X93722119Y-35528463D01*
X93738210Y-35510710D01*
X93755963Y-35494619D01*
X93775208Y-35480347D01*
X93795758Y-35468029D01*
X93817418Y-35457785D01*
X93839977Y-35449713D01*
X93863219Y-35443891D01*
X93886919Y-35440376D01*
X93910850Y-35439200D01*
X94399150Y-35439200D01*
X94423081Y-35440376D01*
X94423081Y-35440376D01*
G37*
D11*
X94155000Y-35965000D03*
G04 #@! TD*
D10*
G04 #@! TO.C,C12*
G36*
X88423081Y-36940376D02*
X88446781Y-36943891D01*
X88470023Y-36949713D01*
X88492582Y-36957785D01*
X88514242Y-36968029D01*
X88534792Y-36980347D01*
X88554037Y-36994619D01*
X88571790Y-37010710D01*
X88587881Y-37028463D01*
X88602153Y-37047708D01*
X88614471Y-37068258D01*
X88624715Y-37089918D01*
X88632787Y-37112477D01*
X88638609Y-37135719D01*
X88642124Y-37159419D01*
X88643300Y-37183350D01*
X88643300Y-37746650D01*
X88642124Y-37770581D01*
X88638609Y-37794281D01*
X88632787Y-37817523D01*
X88624715Y-37840082D01*
X88614471Y-37861742D01*
X88602153Y-37882292D01*
X88587881Y-37901537D01*
X88571790Y-37919290D01*
X88554037Y-37935381D01*
X88534792Y-37949653D01*
X88514242Y-37961971D01*
X88492582Y-37972215D01*
X88470023Y-37980287D01*
X88446781Y-37986109D01*
X88423081Y-37989624D01*
X88399150Y-37990800D01*
X87910850Y-37990800D01*
X87886919Y-37989624D01*
X87863219Y-37986109D01*
X87839977Y-37980287D01*
X87817418Y-37972215D01*
X87795758Y-37961971D01*
X87775208Y-37949653D01*
X87755963Y-37935381D01*
X87738210Y-37919290D01*
X87722119Y-37901537D01*
X87707847Y-37882292D01*
X87695529Y-37861742D01*
X87685285Y-37840082D01*
X87677213Y-37817523D01*
X87671391Y-37794281D01*
X87667876Y-37770581D01*
X87666700Y-37746650D01*
X87666700Y-37183350D01*
X87667876Y-37159419D01*
X87671391Y-37135719D01*
X87677213Y-37112477D01*
X87685285Y-37089918D01*
X87695529Y-37068258D01*
X87707847Y-37047708D01*
X87722119Y-37028463D01*
X87738210Y-37010710D01*
X87755963Y-36994619D01*
X87775208Y-36980347D01*
X87795758Y-36968029D01*
X87817418Y-36957785D01*
X87839977Y-36949713D01*
X87863219Y-36943891D01*
X87886919Y-36940376D01*
X87910850Y-36939200D01*
X88399150Y-36939200D01*
X88423081Y-36940376D01*
X88423081Y-36940376D01*
G37*
D11*
X88155000Y-37465000D03*
D10*
G36*
X86848081Y-36940376D02*
X86871781Y-36943891D01*
X86895023Y-36949713D01*
X86917582Y-36957785D01*
X86939242Y-36968029D01*
X86959792Y-36980347D01*
X86979037Y-36994619D01*
X86996790Y-37010710D01*
X87012881Y-37028463D01*
X87027153Y-37047708D01*
X87039471Y-37068258D01*
X87049715Y-37089918D01*
X87057787Y-37112477D01*
X87063609Y-37135719D01*
X87067124Y-37159419D01*
X87068300Y-37183350D01*
X87068300Y-37746650D01*
X87067124Y-37770581D01*
X87063609Y-37794281D01*
X87057787Y-37817523D01*
X87049715Y-37840082D01*
X87039471Y-37861742D01*
X87027153Y-37882292D01*
X87012881Y-37901537D01*
X86996790Y-37919290D01*
X86979037Y-37935381D01*
X86959792Y-37949653D01*
X86939242Y-37961971D01*
X86917582Y-37972215D01*
X86895023Y-37980287D01*
X86871781Y-37986109D01*
X86848081Y-37989624D01*
X86824150Y-37990800D01*
X86335850Y-37990800D01*
X86311919Y-37989624D01*
X86288219Y-37986109D01*
X86264977Y-37980287D01*
X86242418Y-37972215D01*
X86220758Y-37961971D01*
X86200208Y-37949653D01*
X86180963Y-37935381D01*
X86163210Y-37919290D01*
X86147119Y-37901537D01*
X86132847Y-37882292D01*
X86120529Y-37861742D01*
X86110285Y-37840082D01*
X86102213Y-37817523D01*
X86096391Y-37794281D01*
X86092876Y-37770581D01*
X86091700Y-37746650D01*
X86091700Y-37183350D01*
X86092876Y-37159419D01*
X86096391Y-37135719D01*
X86102213Y-37112477D01*
X86110285Y-37089918D01*
X86120529Y-37068258D01*
X86132847Y-37047708D01*
X86147119Y-37028463D01*
X86163210Y-37010710D01*
X86180963Y-36994619D01*
X86200208Y-36980347D01*
X86220758Y-36968029D01*
X86242418Y-36957785D01*
X86264977Y-36949713D01*
X86288219Y-36943891D01*
X86311919Y-36940376D01*
X86335850Y-36939200D01*
X86824150Y-36939200D01*
X86848081Y-36940376D01*
X86848081Y-36940376D01*
G37*
D11*
X86580000Y-37465000D03*
G04 #@! TD*
D10*
G04 #@! TO.C,C13*
G36*
X88423081Y-35440376D02*
X88446781Y-35443891D01*
X88470023Y-35449713D01*
X88492582Y-35457785D01*
X88514242Y-35468029D01*
X88534792Y-35480347D01*
X88554037Y-35494619D01*
X88571790Y-35510710D01*
X88587881Y-35528463D01*
X88602153Y-35547708D01*
X88614471Y-35568258D01*
X88624715Y-35589918D01*
X88632787Y-35612477D01*
X88638609Y-35635719D01*
X88642124Y-35659419D01*
X88643300Y-35683350D01*
X88643300Y-36246650D01*
X88642124Y-36270581D01*
X88638609Y-36294281D01*
X88632787Y-36317523D01*
X88624715Y-36340082D01*
X88614471Y-36361742D01*
X88602153Y-36382292D01*
X88587881Y-36401537D01*
X88571790Y-36419290D01*
X88554037Y-36435381D01*
X88534792Y-36449653D01*
X88514242Y-36461971D01*
X88492582Y-36472215D01*
X88470023Y-36480287D01*
X88446781Y-36486109D01*
X88423081Y-36489624D01*
X88399150Y-36490800D01*
X87910850Y-36490800D01*
X87886919Y-36489624D01*
X87863219Y-36486109D01*
X87839977Y-36480287D01*
X87817418Y-36472215D01*
X87795758Y-36461971D01*
X87775208Y-36449653D01*
X87755963Y-36435381D01*
X87738210Y-36419290D01*
X87722119Y-36401537D01*
X87707847Y-36382292D01*
X87695529Y-36361742D01*
X87685285Y-36340082D01*
X87677213Y-36317523D01*
X87671391Y-36294281D01*
X87667876Y-36270581D01*
X87666700Y-36246650D01*
X87666700Y-35683350D01*
X87667876Y-35659419D01*
X87671391Y-35635719D01*
X87677213Y-35612477D01*
X87685285Y-35589918D01*
X87695529Y-35568258D01*
X87707847Y-35547708D01*
X87722119Y-35528463D01*
X87738210Y-35510710D01*
X87755963Y-35494619D01*
X87775208Y-35480347D01*
X87795758Y-35468029D01*
X87817418Y-35457785D01*
X87839977Y-35449713D01*
X87863219Y-35443891D01*
X87886919Y-35440376D01*
X87910850Y-35439200D01*
X88399150Y-35439200D01*
X88423081Y-35440376D01*
X88423081Y-35440376D01*
G37*
D11*
X88155000Y-35965000D03*
D10*
G36*
X86848081Y-35440376D02*
X86871781Y-35443891D01*
X86895023Y-35449713D01*
X86917582Y-35457785D01*
X86939242Y-35468029D01*
X86959792Y-35480347D01*
X86979037Y-35494619D01*
X86996790Y-35510710D01*
X87012881Y-35528463D01*
X87027153Y-35547708D01*
X87039471Y-35568258D01*
X87049715Y-35589918D01*
X87057787Y-35612477D01*
X87063609Y-35635719D01*
X87067124Y-35659419D01*
X87068300Y-35683350D01*
X87068300Y-36246650D01*
X87067124Y-36270581D01*
X87063609Y-36294281D01*
X87057787Y-36317523D01*
X87049715Y-36340082D01*
X87039471Y-36361742D01*
X87027153Y-36382292D01*
X87012881Y-36401537D01*
X86996790Y-36419290D01*
X86979037Y-36435381D01*
X86959792Y-36449653D01*
X86939242Y-36461971D01*
X86917582Y-36472215D01*
X86895023Y-36480287D01*
X86871781Y-36486109D01*
X86848081Y-36489624D01*
X86824150Y-36490800D01*
X86335850Y-36490800D01*
X86311919Y-36489624D01*
X86288219Y-36486109D01*
X86264977Y-36480287D01*
X86242418Y-36472215D01*
X86220758Y-36461971D01*
X86200208Y-36449653D01*
X86180963Y-36435381D01*
X86163210Y-36419290D01*
X86147119Y-36401537D01*
X86132847Y-36382292D01*
X86120529Y-36361742D01*
X86110285Y-36340082D01*
X86102213Y-36317523D01*
X86096391Y-36294281D01*
X86092876Y-36270581D01*
X86091700Y-36246650D01*
X86091700Y-35683350D01*
X86092876Y-35659419D01*
X86096391Y-35635719D01*
X86102213Y-35612477D01*
X86110285Y-35589918D01*
X86120529Y-35568258D01*
X86132847Y-35547708D01*
X86147119Y-35528463D01*
X86163210Y-35510710D01*
X86180963Y-35494619D01*
X86200208Y-35480347D01*
X86220758Y-35468029D01*
X86242418Y-35457785D01*
X86264977Y-35449713D01*
X86288219Y-35443891D01*
X86311919Y-35440376D01*
X86335850Y-35439200D01*
X86824150Y-35439200D01*
X86848081Y-35440376D01*
X86848081Y-35440376D01*
G37*
D11*
X86580000Y-35965000D03*
G04 #@! TD*
D10*
G04 #@! TO.C,C14*
G36*
X85423081Y-35440376D02*
X85446781Y-35443891D01*
X85470023Y-35449713D01*
X85492582Y-35457785D01*
X85514242Y-35468029D01*
X85534792Y-35480347D01*
X85554037Y-35494619D01*
X85571790Y-35510710D01*
X85587881Y-35528463D01*
X85602153Y-35547708D01*
X85614471Y-35568258D01*
X85624715Y-35589918D01*
X85632787Y-35612477D01*
X85638609Y-35635719D01*
X85642124Y-35659419D01*
X85643300Y-35683350D01*
X85643300Y-36246650D01*
X85642124Y-36270581D01*
X85638609Y-36294281D01*
X85632787Y-36317523D01*
X85624715Y-36340082D01*
X85614471Y-36361742D01*
X85602153Y-36382292D01*
X85587881Y-36401537D01*
X85571790Y-36419290D01*
X85554037Y-36435381D01*
X85534792Y-36449653D01*
X85514242Y-36461971D01*
X85492582Y-36472215D01*
X85470023Y-36480287D01*
X85446781Y-36486109D01*
X85423081Y-36489624D01*
X85399150Y-36490800D01*
X84910850Y-36490800D01*
X84886919Y-36489624D01*
X84863219Y-36486109D01*
X84839977Y-36480287D01*
X84817418Y-36472215D01*
X84795758Y-36461971D01*
X84775208Y-36449653D01*
X84755963Y-36435381D01*
X84738210Y-36419290D01*
X84722119Y-36401537D01*
X84707847Y-36382292D01*
X84695529Y-36361742D01*
X84685285Y-36340082D01*
X84677213Y-36317523D01*
X84671391Y-36294281D01*
X84667876Y-36270581D01*
X84666700Y-36246650D01*
X84666700Y-35683350D01*
X84667876Y-35659419D01*
X84671391Y-35635719D01*
X84677213Y-35612477D01*
X84685285Y-35589918D01*
X84695529Y-35568258D01*
X84707847Y-35547708D01*
X84722119Y-35528463D01*
X84738210Y-35510710D01*
X84755963Y-35494619D01*
X84775208Y-35480347D01*
X84795758Y-35468029D01*
X84817418Y-35457785D01*
X84839977Y-35449713D01*
X84863219Y-35443891D01*
X84886919Y-35440376D01*
X84910850Y-35439200D01*
X85399150Y-35439200D01*
X85423081Y-35440376D01*
X85423081Y-35440376D01*
G37*
D11*
X85155000Y-35965000D03*
D10*
G36*
X83848081Y-35440376D02*
X83871781Y-35443891D01*
X83895023Y-35449713D01*
X83917582Y-35457785D01*
X83939242Y-35468029D01*
X83959792Y-35480347D01*
X83979037Y-35494619D01*
X83996790Y-35510710D01*
X84012881Y-35528463D01*
X84027153Y-35547708D01*
X84039471Y-35568258D01*
X84049715Y-35589918D01*
X84057787Y-35612477D01*
X84063609Y-35635719D01*
X84067124Y-35659419D01*
X84068300Y-35683350D01*
X84068300Y-36246650D01*
X84067124Y-36270581D01*
X84063609Y-36294281D01*
X84057787Y-36317523D01*
X84049715Y-36340082D01*
X84039471Y-36361742D01*
X84027153Y-36382292D01*
X84012881Y-36401537D01*
X83996790Y-36419290D01*
X83979037Y-36435381D01*
X83959792Y-36449653D01*
X83939242Y-36461971D01*
X83917582Y-36472215D01*
X83895023Y-36480287D01*
X83871781Y-36486109D01*
X83848081Y-36489624D01*
X83824150Y-36490800D01*
X83335850Y-36490800D01*
X83311919Y-36489624D01*
X83288219Y-36486109D01*
X83264977Y-36480287D01*
X83242418Y-36472215D01*
X83220758Y-36461971D01*
X83200208Y-36449653D01*
X83180963Y-36435381D01*
X83163210Y-36419290D01*
X83147119Y-36401537D01*
X83132847Y-36382292D01*
X83120529Y-36361742D01*
X83110285Y-36340082D01*
X83102213Y-36317523D01*
X83096391Y-36294281D01*
X83092876Y-36270581D01*
X83091700Y-36246650D01*
X83091700Y-35683350D01*
X83092876Y-35659419D01*
X83096391Y-35635719D01*
X83102213Y-35612477D01*
X83110285Y-35589918D01*
X83120529Y-35568258D01*
X83132847Y-35547708D01*
X83147119Y-35528463D01*
X83163210Y-35510710D01*
X83180963Y-35494619D01*
X83200208Y-35480347D01*
X83220758Y-35468029D01*
X83242418Y-35457785D01*
X83264977Y-35449713D01*
X83288219Y-35443891D01*
X83311919Y-35440376D01*
X83335850Y-35439200D01*
X83824150Y-35439200D01*
X83848081Y-35440376D01*
X83848081Y-35440376D01*
G37*
D11*
X83580000Y-35965000D03*
G04 #@! TD*
D10*
G04 #@! TO.C,C15*
G36*
X95848081Y-63940376D02*
X95871781Y-63943891D01*
X95895023Y-63949713D01*
X95917582Y-63957785D01*
X95939242Y-63968029D01*
X95959792Y-63980347D01*
X95979037Y-63994619D01*
X95996790Y-64010710D01*
X96012881Y-64028463D01*
X96027153Y-64047708D01*
X96039471Y-64068258D01*
X96049715Y-64089918D01*
X96057787Y-64112477D01*
X96063609Y-64135719D01*
X96067124Y-64159419D01*
X96068300Y-64183350D01*
X96068300Y-64746650D01*
X96067124Y-64770581D01*
X96063609Y-64794281D01*
X96057787Y-64817523D01*
X96049715Y-64840082D01*
X96039471Y-64861742D01*
X96027153Y-64882292D01*
X96012881Y-64901537D01*
X95996790Y-64919290D01*
X95979037Y-64935381D01*
X95959792Y-64949653D01*
X95939242Y-64961971D01*
X95917582Y-64972215D01*
X95895023Y-64980287D01*
X95871781Y-64986109D01*
X95848081Y-64989624D01*
X95824150Y-64990800D01*
X95335850Y-64990800D01*
X95311919Y-64989624D01*
X95288219Y-64986109D01*
X95264977Y-64980287D01*
X95242418Y-64972215D01*
X95220758Y-64961971D01*
X95200208Y-64949653D01*
X95180963Y-64935381D01*
X95163210Y-64919290D01*
X95147119Y-64901537D01*
X95132847Y-64882292D01*
X95120529Y-64861742D01*
X95110285Y-64840082D01*
X95102213Y-64817523D01*
X95096391Y-64794281D01*
X95092876Y-64770581D01*
X95091700Y-64746650D01*
X95091700Y-64183350D01*
X95092876Y-64159419D01*
X95096391Y-64135719D01*
X95102213Y-64112477D01*
X95110285Y-64089918D01*
X95120529Y-64068258D01*
X95132847Y-64047708D01*
X95147119Y-64028463D01*
X95163210Y-64010710D01*
X95180963Y-63994619D01*
X95200208Y-63980347D01*
X95220758Y-63968029D01*
X95242418Y-63957785D01*
X95264977Y-63949713D01*
X95288219Y-63943891D01*
X95311919Y-63940376D01*
X95335850Y-63939200D01*
X95824150Y-63939200D01*
X95848081Y-63940376D01*
X95848081Y-63940376D01*
G37*
D11*
X95580000Y-64465000D03*
D10*
G36*
X97423081Y-63940376D02*
X97446781Y-63943891D01*
X97470023Y-63949713D01*
X97492582Y-63957785D01*
X97514242Y-63968029D01*
X97534792Y-63980347D01*
X97554037Y-63994619D01*
X97571790Y-64010710D01*
X97587881Y-64028463D01*
X97602153Y-64047708D01*
X97614471Y-64068258D01*
X97624715Y-64089918D01*
X97632787Y-64112477D01*
X97638609Y-64135719D01*
X97642124Y-64159419D01*
X97643300Y-64183350D01*
X97643300Y-64746650D01*
X97642124Y-64770581D01*
X97638609Y-64794281D01*
X97632787Y-64817523D01*
X97624715Y-64840082D01*
X97614471Y-64861742D01*
X97602153Y-64882292D01*
X97587881Y-64901537D01*
X97571790Y-64919290D01*
X97554037Y-64935381D01*
X97534792Y-64949653D01*
X97514242Y-64961971D01*
X97492582Y-64972215D01*
X97470023Y-64980287D01*
X97446781Y-64986109D01*
X97423081Y-64989624D01*
X97399150Y-64990800D01*
X96910850Y-64990800D01*
X96886919Y-64989624D01*
X96863219Y-64986109D01*
X96839977Y-64980287D01*
X96817418Y-64972215D01*
X96795758Y-64961971D01*
X96775208Y-64949653D01*
X96755963Y-64935381D01*
X96738210Y-64919290D01*
X96722119Y-64901537D01*
X96707847Y-64882292D01*
X96695529Y-64861742D01*
X96685285Y-64840082D01*
X96677213Y-64817523D01*
X96671391Y-64794281D01*
X96667876Y-64770581D01*
X96666700Y-64746650D01*
X96666700Y-64183350D01*
X96667876Y-64159419D01*
X96671391Y-64135719D01*
X96677213Y-64112477D01*
X96685285Y-64089918D01*
X96695529Y-64068258D01*
X96707847Y-64047708D01*
X96722119Y-64028463D01*
X96738210Y-64010710D01*
X96755963Y-63994619D01*
X96775208Y-63980347D01*
X96795758Y-63968029D01*
X96817418Y-63957785D01*
X96839977Y-63949713D01*
X96863219Y-63943891D01*
X96886919Y-63940376D01*
X96910850Y-63939200D01*
X97399150Y-63939200D01*
X97423081Y-63940376D01*
X97423081Y-63940376D01*
G37*
D11*
X97155000Y-64465000D03*
G04 #@! TD*
D10*
G04 #@! TO.C,C16*
G36*
X95848081Y-62440376D02*
X95871781Y-62443891D01*
X95895023Y-62449713D01*
X95917582Y-62457785D01*
X95939242Y-62468029D01*
X95959792Y-62480347D01*
X95979037Y-62494619D01*
X95996790Y-62510710D01*
X96012881Y-62528463D01*
X96027153Y-62547708D01*
X96039471Y-62568258D01*
X96049715Y-62589918D01*
X96057787Y-62612477D01*
X96063609Y-62635719D01*
X96067124Y-62659419D01*
X96068300Y-62683350D01*
X96068300Y-63246650D01*
X96067124Y-63270581D01*
X96063609Y-63294281D01*
X96057787Y-63317523D01*
X96049715Y-63340082D01*
X96039471Y-63361742D01*
X96027153Y-63382292D01*
X96012881Y-63401537D01*
X95996790Y-63419290D01*
X95979037Y-63435381D01*
X95959792Y-63449653D01*
X95939242Y-63461971D01*
X95917582Y-63472215D01*
X95895023Y-63480287D01*
X95871781Y-63486109D01*
X95848081Y-63489624D01*
X95824150Y-63490800D01*
X95335850Y-63490800D01*
X95311919Y-63489624D01*
X95288219Y-63486109D01*
X95264977Y-63480287D01*
X95242418Y-63472215D01*
X95220758Y-63461971D01*
X95200208Y-63449653D01*
X95180963Y-63435381D01*
X95163210Y-63419290D01*
X95147119Y-63401537D01*
X95132847Y-63382292D01*
X95120529Y-63361742D01*
X95110285Y-63340082D01*
X95102213Y-63317523D01*
X95096391Y-63294281D01*
X95092876Y-63270581D01*
X95091700Y-63246650D01*
X95091700Y-62683350D01*
X95092876Y-62659419D01*
X95096391Y-62635719D01*
X95102213Y-62612477D01*
X95110285Y-62589918D01*
X95120529Y-62568258D01*
X95132847Y-62547708D01*
X95147119Y-62528463D01*
X95163210Y-62510710D01*
X95180963Y-62494619D01*
X95200208Y-62480347D01*
X95220758Y-62468029D01*
X95242418Y-62457785D01*
X95264977Y-62449713D01*
X95288219Y-62443891D01*
X95311919Y-62440376D01*
X95335850Y-62439200D01*
X95824150Y-62439200D01*
X95848081Y-62440376D01*
X95848081Y-62440376D01*
G37*
D11*
X95580000Y-62965000D03*
D10*
G36*
X97423081Y-62440376D02*
X97446781Y-62443891D01*
X97470023Y-62449713D01*
X97492582Y-62457785D01*
X97514242Y-62468029D01*
X97534792Y-62480347D01*
X97554037Y-62494619D01*
X97571790Y-62510710D01*
X97587881Y-62528463D01*
X97602153Y-62547708D01*
X97614471Y-62568258D01*
X97624715Y-62589918D01*
X97632787Y-62612477D01*
X97638609Y-62635719D01*
X97642124Y-62659419D01*
X97643300Y-62683350D01*
X97643300Y-63246650D01*
X97642124Y-63270581D01*
X97638609Y-63294281D01*
X97632787Y-63317523D01*
X97624715Y-63340082D01*
X97614471Y-63361742D01*
X97602153Y-63382292D01*
X97587881Y-63401537D01*
X97571790Y-63419290D01*
X97554037Y-63435381D01*
X97534792Y-63449653D01*
X97514242Y-63461971D01*
X97492582Y-63472215D01*
X97470023Y-63480287D01*
X97446781Y-63486109D01*
X97423081Y-63489624D01*
X97399150Y-63490800D01*
X96910850Y-63490800D01*
X96886919Y-63489624D01*
X96863219Y-63486109D01*
X96839977Y-63480287D01*
X96817418Y-63472215D01*
X96795758Y-63461971D01*
X96775208Y-63449653D01*
X96755963Y-63435381D01*
X96738210Y-63419290D01*
X96722119Y-63401537D01*
X96707847Y-63382292D01*
X96695529Y-63361742D01*
X96685285Y-63340082D01*
X96677213Y-63317523D01*
X96671391Y-63294281D01*
X96667876Y-63270581D01*
X96666700Y-63246650D01*
X96666700Y-62683350D01*
X96667876Y-62659419D01*
X96671391Y-62635719D01*
X96677213Y-62612477D01*
X96685285Y-62589918D01*
X96695529Y-62568258D01*
X96707847Y-62547708D01*
X96722119Y-62528463D01*
X96738210Y-62510710D01*
X96755963Y-62494619D01*
X96775208Y-62480347D01*
X96795758Y-62468029D01*
X96817418Y-62457785D01*
X96839977Y-62449713D01*
X96863219Y-62443891D01*
X96886919Y-62440376D01*
X96910850Y-62439200D01*
X97399150Y-62439200D01*
X97423081Y-62440376D01*
X97423081Y-62440376D01*
G37*
D11*
X97155000Y-62965000D03*
G04 #@! TD*
D10*
G04 #@! TO.C,C17*
G36*
X94423081Y-62440376D02*
X94446781Y-62443891D01*
X94470023Y-62449713D01*
X94492582Y-62457785D01*
X94514242Y-62468029D01*
X94534792Y-62480347D01*
X94554037Y-62494619D01*
X94571790Y-62510710D01*
X94587881Y-62528463D01*
X94602153Y-62547708D01*
X94614471Y-62568258D01*
X94624715Y-62589918D01*
X94632787Y-62612477D01*
X94638609Y-62635719D01*
X94642124Y-62659419D01*
X94643300Y-62683350D01*
X94643300Y-63246650D01*
X94642124Y-63270581D01*
X94638609Y-63294281D01*
X94632787Y-63317523D01*
X94624715Y-63340082D01*
X94614471Y-63361742D01*
X94602153Y-63382292D01*
X94587881Y-63401537D01*
X94571790Y-63419290D01*
X94554037Y-63435381D01*
X94534792Y-63449653D01*
X94514242Y-63461971D01*
X94492582Y-63472215D01*
X94470023Y-63480287D01*
X94446781Y-63486109D01*
X94423081Y-63489624D01*
X94399150Y-63490800D01*
X93910850Y-63490800D01*
X93886919Y-63489624D01*
X93863219Y-63486109D01*
X93839977Y-63480287D01*
X93817418Y-63472215D01*
X93795758Y-63461971D01*
X93775208Y-63449653D01*
X93755963Y-63435381D01*
X93738210Y-63419290D01*
X93722119Y-63401537D01*
X93707847Y-63382292D01*
X93695529Y-63361742D01*
X93685285Y-63340082D01*
X93677213Y-63317523D01*
X93671391Y-63294281D01*
X93667876Y-63270581D01*
X93666700Y-63246650D01*
X93666700Y-62683350D01*
X93667876Y-62659419D01*
X93671391Y-62635719D01*
X93677213Y-62612477D01*
X93685285Y-62589918D01*
X93695529Y-62568258D01*
X93707847Y-62547708D01*
X93722119Y-62528463D01*
X93738210Y-62510710D01*
X93755963Y-62494619D01*
X93775208Y-62480347D01*
X93795758Y-62468029D01*
X93817418Y-62457785D01*
X93839977Y-62449713D01*
X93863219Y-62443891D01*
X93886919Y-62440376D01*
X93910850Y-62439200D01*
X94399150Y-62439200D01*
X94423081Y-62440376D01*
X94423081Y-62440376D01*
G37*
D11*
X94155000Y-62965000D03*
D10*
G36*
X92848081Y-62440376D02*
X92871781Y-62443891D01*
X92895023Y-62449713D01*
X92917582Y-62457785D01*
X92939242Y-62468029D01*
X92959792Y-62480347D01*
X92979037Y-62494619D01*
X92996790Y-62510710D01*
X93012881Y-62528463D01*
X93027153Y-62547708D01*
X93039471Y-62568258D01*
X93049715Y-62589918D01*
X93057787Y-62612477D01*
X93063609Y-62635719D01*
X93067124Y-62659419D01*
X93068300Y-62683350D01*
X93068300Y-63246650D01*
X93067124Y-63270581D01*
X93063609Y-63294281D01*
X93057787Y-63317523D01*
X93049715Y-63340082D01*
X93039471Y-63361742D01*
X93027153Y-63382292D01*
X93012881Y-63401537D01*
X92996790Y-63419290D01*
X92979037Y-63435381D01*
X92959792Y-63449653D01*
X92939242Y-63461971D01*
X92917582Y-63472215D01*
X92895023Y-63480287D01*
X92871781Y-63486109D01*
X92848081Y-63489624D01*
X92824150Y-63490800D01*
X92335850Y-63490800D01*
X92311919Y-63489624D01*
X92288219Y-63486109D01*
X92264977Y-63480287D01*
X92242418Y-63472215D01*
X92220758Y-63461971D01*
X92200208Y-63449653D01*
X92180963Y-63435381D01*
X92163210Y-63419290D01*
X92147119Y-63401537D01*
X92132847Y-63382292D01*
X92120529Y-63361742D01*
X92110285Y-63340082D01*
X92102213Y-63317523D01*
X92096391Y-63294281D01*
X92092876Y-63270581D01*
X92091700Y-63246650D01*
X92091700Y-62683350D01*
X92092876Y-62659419D01*
X92096391Y-62635719D01*
X92102213Y-62612477D01*
X92110285Y-62589918D01*
X92120529Y-62568258D01*
X92132847Y-62547708D01*
X92147119Y-62528463D01*
X92163210Y-62510710D01*
X92180963Y-62494619D01*
X92200208Y-62480347D01*
X92220758Y-62468029D01*
X92242418Y-62457785D01*
X92264977Y-62449713D01*
X92288219Y-62443891D01*
X92311919Y-62440376D01*
X92335850Y-62439200D01*
X92824150Y-62439200D01*
X92848081Y-62440376D01*
X92848081Y-62440376D01*
G37*
D11*
X92580000Y-62965000D03*
G04 #@! TD*
D10*
G04 #@! TO.C,C18*
G36*
X88423081Y-63940376D02*
X88446781Y-63943891D01*
X88470023Y-63949713D01*
X88492582Y-63957785D01*
X88514242Y-63968029D01*
X88534792Y-63980347D01*
X88554037Y-63994619D01*
X88571790Y-64010710D01*
X88587881Y-64028463D01*
X88602153Y-64047708D01*
X88614471Y-64068258D01*
X88624715Y-64089918D01*
X88632787Y-64112477D01*
X88638609Y-64135719D01*
X88642124Y-64159419D01*
X88643300Y-64183350D01*
X88643300Y-64746650D01*
X88642124Y-64770581D01*
X88638609Y-64794281D01*
X88632787Y-64817523D01*
X88624715Y-64840082D01*
X88614471Y-64861742D01*
X88602153Y-64882292D01*
X88587881Y-64901537D01*
X88571790Y-64919290D01*
X88554037Y-64935381D01*
X88534792Y-64949653D01*
X88514242Y-64961971D01*
X88492582Y-64972215D01*
X88470023Y-64980287D01*
X88446781Y-64986109D01*
X88423081Y-64989624D01*
X88399150Y-64990800D01*
X87910850Y-64990800D01*
X87886919Y-64989624D01*
X87863219Y-64986109D01*
X87839977Y-64980287D01*
X87817418Y-64972215D01*
X87795758Y-64961971D01*
X87775208Y-64949653D01*
X87755963Y-64935381D01*
X87738210Y-64919290D01*
X87722119Y-64901537D01*
X87707847Y-64882292D01*
X87695529Y-64861742D01*
X87685285Y-64840082D01*
X87677213Y-64817523D01*
X87671391Y-64794281D01*
X87667876Y-64770581D01*
X87666700Y-64746650D01*
X87666700Y-64183350D01*
X87667876Y-64159419D01*
X87671391Y-64135719D01*
X87677213Y-64112477D01*
X87685285Y-64089918D01*
X87695529Y-64068258D01*
X87707847Y-64047708D01*
X87722119Y-64028463D01*
X87738210Y-64010710D01*
X87755963Y-63994619D01*
X87775208Y-63980347D01*
X87795758Y-63968029D01*
X87817418Y-63957785D01*
X87839977Y-63949713D01*
X87863219Y-63943891D01*
X87886919Y-63940376D01*
X87910850Y-63939200D01*
X88399150Y-63939200D01*
X88423081Y-63940376D01*
X88423081Y-63940376D01*
G37*
D11*
X88155000Y-64465000D03*
D10*
G36*
X86848081Y-63940376D02*
X86871781Y-63943891D01*
X86895023Y-63949713D01*
X86917582Y-63957785D01*
X86939242Y-63968029D01*
X86959792Y-63980347D01*
X86979037Y-63994619D01*
X86996790Y-64010710D01*
X87012881Y-64028463D01*
X87027153Y-64047708D01*
X87039471Y-64068258D01*
X87049715Y-64089918D01*
X87057787Y-64112477D01*
X87063609Y-64135719D01*
X87067124Y-64159419D01*
X87068300Y-64183350D01*
X87068300Y-64746650D01*
X87067124Y-64770581D01*
X87063609Y-64794281D01*
X87057787Y-64817523D01*
X87049715Y-64840082D01*
X87039471Y-64861742D01*
X87027153Y-64882292D01*
X87012881Y-64901537D01*
X86996790Y-64919290D01*
X86979037Y-64935381D01*
X86959792Y-64949653D01*
X86939242Y-64961971D01*
X86917582Y-64972215D01*
X86895023Y-64980287D01*
X86871781Y-64986109D01*
X86848081Y-64989624D01*
X86824150Y-64990800D01*
X86335850Y-64990800D01*
X86311919Y-64989624D01*
X86288219Y-64986109D01*
X86264977Y-64980287D01*
X86242418Y-64972215D01*
X86220758Y-64961971D01*
X86200208Y-64949653D01*
X86180963Y-64935381D01*
X86163210Y-64919290D01*
X86147119Y-64901537D01*
X86132847Y-64882292D01*
X86120529Y-64861742D01*
X86110285Y-64840082D01*
X86102213Y-64817523D01*
X86096391Y-64794281D01*
X86092876Y-64770581D01*
X86091700Y-64746650D01*
X86091700Y-64183350D01*
X86092876Y-64159419D01*
X86096391Y-64135719D01*
X86102213Y-64112477D01*
X86110285Y-64089918D01*
X86120529Y-64068258D01*
X86132847Y-64047708D01*
X86147119Y-64028463D01*
X86163210Y-64010710D01*
X86180963Y-63994619D01*
X86200208Y-63980347D01*
X86220758Y-63968029D01*
X86242418Y-63957785D01*
X86264977Y-63949713D01*
X86288219Y-63943891D01*
X86311919Y-63940376D01*
X86335850Y-63939200D01*
X86824150Y-63939200D01*
X86848081Y-63940376D01*
X86848081Y-63940376D01*
G37*
D11*
X86580000Y-64465000D03*
G04 #@! TD*
D10*
G04 #@! TO.C,C19*
G36*
X88423081Y-62440376D02*
X88446781Y-62443891D01*
X88470023Y-62449713D01*
X88492582Y-62457785D01*
X88514242Y-62468029D01*
X88534792Y-62480347D01*
X88554037Y-62494619D01*
X88571790Y-62510710D01*
X88587881Y-62528463D01*
X88602153Y-62547708D01*
X88614471Y-62568258D01*
X88624715Y-62589918D01*
X88632787Y-62612477D01*
X88638609Y-62635719D01*
X88642124Y-62659419D01*
X88643300Y-62683350D01*
X88643300Y-63246650D01*
X88642124Y-63270581D01*
X88638609Y-63294281D01*
X88632787Y-63317523D01*
X88624715Y-63340082D01*
X88614471Y-63361742D01*
X88602153Y-63382292D01*
X88587881Y-63401537D01*
X88571790Y-63419290D01*
X88554037Y-63435381D01*
X88534792Y-63449653D01*
X88514242Y-63461971D01*
X88492582Y-63472215D01*
X88470023Y-63480287D01*
X88446781Y-63486109D01*
X88423081Y-63489624D01*
X88399150Y-63490800D01*
X87910850Y-63490800D01*
X87886919Y-63489624D01*
X87863219Y-63486109D01*
X87839977Y-63480287D01*
X87817418Y-63472215D01*
X87795758Y-63461971D01*
X87775208Y-63449653D01*
X87755963Y-63435381D01*
X87738210Y-63419290D01*
X87722119Y-63401537D01*
X87707847Y-63382292D01*
X87695529Y-63361742D01*
X87685285Y-63340082D01*
X87677213Y-63317523D01*
X87671391Y-63294281D01*
X87667876Y-63270581D01*
X87666700Y-63246650D01*
X87666700Y-62683350D01*
X87667876Y-62659419D01*
X87671391Y-62635719D01*
X87677213Y-62612477D01*
X87685285Y-62589918D01*
X87695529Y-62568258D01*
X87707847Y-62547708D01*
X87722119Y-62528463D01*
X87738210Y-62510710D01*
X87755963Y-62494619D01*
X87775208Y-62480347D01*
X87795758Y-62468029D01*
X87817418Y-62457785D01*
X87839977Y-62449713D01*
X87863219Y-62443891D01*
X87886919Y-62440376D01*
X87910850Y-62439200D01*
X88399150Y-62439200D01*
X88423081Y-62440376D01*
X88423081Y-62440376D01*
G37*
D11*
X88155000Y-62965000D03*
D10*
G36*
X86848081Y-62440376D02*
X86871781Y-62443891D01*
X86895023Y-62449713D01*
X86917582Y-62457785D01*
X86939242Y-62468029D01*
X86959792Y-62480347D01*
X86979037Y-62494619D01*
X86996790Y-62510710D01*
X87012881Y-62528463D01*
X87027153Y-62547708D01*
X87039471Y-62568258D01*
X87049715Y-62589918D01*
X87057787Y-62612477D01*
X87063609Y-62635719D01*
X87067124Y-62659419D01*
X87068300Y-62683350D01*
X87068300Y-63246650D01*
X87067124Y-63270581D01*
X87063609Y-63294281D01*
X87057787Y-63317523D01*
X87049715Y-63340082D01*
X87039471Y-63361742D01*
X87027153Y-63382292D01*
X87012881Y-63401537D01*
X86996790Y-63419290D01*
X86979037Y-63435381D01*
X86959792Y-63449653D01*
X86939242Y-63461971D01*
X86917582Y-63472215D01*
X86895023Y-63480287D01*
X86871781Y-63486109D01*
X86848081Y-63489624D01*
X86824150Y-63490800D01*
X86335850Y-63490800D01*
X86311919Y-63489624D01*
X86288219Y-63486109D01*
X86264977Y-63480287D01*
X86242418Y-63472215D01*
X86220758Y-63461971D01*
X86200208Y-63449653D01*
X86180963Y-63435381D01*
X86163210Y-63419290D01*
X86147119Y-63401537D01*
X86132847Y-63382292D01*
X86120529Y-63361742D01*
X86110285Y-63340082D01*
X86102213Y-63317523D01*
X86096391Y-63294281D01*
X86092876Y-63270581D01*
X86091700Y-63246650D01*
X86091700Y-62683350D01*
X86092876Y-62659419D01*
X86096391Y-62635719D01*
X86102213Y-62612477D01*
X86110285Y-62589918D01*
X86120529Y-62568258D01*
X86132847Y-62547708D01*
X86147119Y-62528463D01*
X86163210Y-62510710D01*
X86180963Y-62494619D01*
X86200208Y-62480347D01*
X86220758Y-62468029D01*
X86242418Y-62457785D01*
X86264977Y-62449713D01*
X86288219Y-62443891D01*
X86311919Y-62440376D01*
X86335850Y-62439200D01*
X86824150Y-62439200D01*
X86848081Y-62440376D01*
X86848081Y-62440376D01*
G37*
D11*
X86580000Y-62965000D03*
G04 #@! TD*
D10*
G04 #@! TO.C,C20*
G36*
X83848081Y-62440376D02*
X83871781Y-62443891D01*
X83895023Y-62449713D01*
X83917582Y-62457785D01*
X83939242Y-62468029D01*
X83959792Y-62480347D01*
X83979037Y-62494619D01*
X83996790Y-62510710D01*
X84012881Y-62528463D01*
X84027153Y-62547708D01*
X84039471Y-62568258D01*
X84049715Y-62589918D01*
X84057787Y-62612477D01*
X84063609Y-62635719D01*
X84067124Y-62659419D01*
X84068300Y-62683350D01*
X84068300Y-63246650D01*
X84067124Y-63270581D01*
X84063609Y-63294281D01*
X84057787Y-63317523D01*
X84049715Y-63340082D01*
X84039471Y-63361742D01*
X84027153Y-63382292D01*
X84012881Y-63401537D01*
X83996790Y-63419290D01*
X83979037Y-63435381D01*
X83959792Y-63449653D01*
X83939242Y-63461971D01*
X83917582Y-63472215D01*
X83895023Y-63480287D01*
X83871781Y-63486109D01*
X83848081Y-63489624D01*
X83824150Y-63490800D01*
X83335850Y-63490800D01*
X83311919Y-63489624D01*
X83288219Y-63486109D01*
X83264977Y-63480287D01*
X83242418Y-63472215D01*
X83220758Y-63461971D01*
X83200208Y-63449653D01*
X83180963Y-63435381D01*
X83163210Y-63419290D01*
X83147119Y-63401537D01*
X83132847Y-63382292D01*
X83120529Y-63361742D01*
X83110285Y-63340082D01*
X83102213Y-63317523D01*
X83096391Y-63294281D01*
X83092876Y-63270581D01*
X83091700Y-63246650D01*
X83091700Y-62683350D01*
X83092876Y-62659419D01*
X83096391Y-62635719D01*
X83102213Y-62612477D01*
X83110285Y-62589918D01*
X83120529Y-62568258D01*
X83132847Y-62547708D01*
X83147119Y-62528463D01*
X83163210Y-62510710D01*
X83180963Y-62494619D01*
X83200208Y-62480347D01*
X83220758Y-62468029D01*
X83242418Y-62457785D01*
X83264977Y-62449713D01*
X83288219Y-62443891D01*
X83311919Y-62440376D01*
X83335850Y-62439200D01*
X83824150Y-62439200D01*
X83848081Y-62440376D01*
X83848081Y-62440376D01*
G37*
D11*
X83580000Y-62965000D03*
D10*
G36*
X85423081Y-62440376D02*
X85446781Y-62443891D01*
X85470023Y-62449713D01*
X85492582Y-62457785D01*
X85514242Y-62468029D01*
X85534792Y-62480347D01*
X85554037Y-62494619D01*
X85571790Y-62510710D01*
X85587881Y-62528463D01*
X85602153Y-62547708D01*
X85614471Y-62568258D01*
X85624715Y-62589918D01*
X85632787Y-62612477D01*
X85638609Y-62635719D01*
X85642124Y-62659419D01*
X85643300Y-62683350D01*
X85643300Y-63246650D01*
X85642124Y-63270581D01*
X85638609Y-63294281D01*
X85632787Y-63317523D01*
X85624715Y-63340082D01*
X85614471Y-63361742D01*
X85602153Y-63382292D01*
X85587881Y-63401537D01*
X85571790Y-63419290D01*
X85554037Y-63435381D01*
X85534792Y-63449653D01*
X85514242Y-63461971D01*
X85492582Y-63472215D01*
X85470023Y-63480287D01*
X85446781Y-63486109D01*
X85423081Y-63489624D01*
X85399150Y-63490800D01*
X84910850Y-63490800D01*
X84886919Y-63489624D01*
X84863219Y-63486109D01*
X84839977Y-63480287D01*
X84817418Y-63472215D01*
X84795758Y-63461971D01*
X84775208Y-63449653D01*
X84755963Y-63435381D01*
X84738210Y-63419290D01*
X84722119Y-63401537D01*
X84707847Y-63382292D01*
X84695529Y-63361742D01*
X84685285Y-63340082D01*
X84677213Y-63317523D01*
X84671391Y-63294281D01*
X84667876Y-63270581D01*
X84666700Y-63246650D01*
X84666700Y-62683350D01*
X84667876Y-62659419D01*
X84671391Y-62635719D01*
X84677213Y-62612477D01*
X84685285Y-62589918D01*
X84695529Y-62568258D01*
X84707847Y-62547708D01*
X84722119Y-62528463D01*
X84738210Y-62510710D01*
X84755963Y-62494619D01*
X84775208Y-62480347D01*
X84795758Y-62468029D01*
X84817418Y-62457785D01*
X84839977Y-62449713D01*
X84863219Y-62443891D01*
X84886919Y-62440376D01*
X84910850Y-62439200D01*
X85399150Y-62439200D01*
X85423081Y-62440376D01*
X85423081Y-62440376D01*
G37*
D11*
X85155000Y-62965000D03*
G04 #@! TD*
D10*
G04 #@! TO.C,C21*
G36*
X97423081Y-50440376D02*
X97446781Y-50443891D01*
X97470023Y-50449713D01*
X97492582Y-50457785D01*
X97514242Y-50468029D01*
X97534792Y-50480347D01*
X97554037Y-50494619D01*
X97571790Y-50510710D01*
X97587881Y-50528463D01*
X97602153Y-50547708D01*
X97614471Y-50568258D01*
X97624715Y-50589918D01*
X97632787Y-50612477D01*
X97638609Y-50635719D01*
X97642124Y-50659419D01*
X97643300Y-50683350D01*
X97643300Y-51246650D01*
X97642124Y-51270581D01*
X97638609Y-51294281D01*
X97632787Y-51317523D01*
X97624715Y-51340082D01*
X97614471Y-51361742D01*
X97602153Y-51382292D01*
X97587881Y-51401537D01*
X97571790Y-51419290D01*
X97554037Y-51435381D01*
X97534792Y-51449653D01*
X97514242Y-51461971D01*
X97492582Y-51472215D01*
X97470023Y-51480287D01*
X97446781Y-51486109D01*
X97423081Y-51489624D01*
X97399150Y-51490800D01*
X96910850Y-51490800D01*
X96886919Y-51489624D01*
X96863219Y-51486109D01*
X96839977Y-51480287D01*
X96817418Y-51472215D01*
X96795758Y-51461971D01*
X96775208Y-51449653D01*
X96755963Y-51435381D01*
X96738210Y-51419290D01*
X96722119Y-51401537D01*
X96707847Y-51382292D01*
X96695529Y-51361742D01*
X96685285Y-51340082D01*
X96677213Y-51317523D01*
X96671391Y-51294281D01*
X96667876Y-51270581D01*
X96666700Y-51246650D01*
X96666700Y-50683350D01*
X96667876Y-50659419D01*
X96671391Y-50635719D01*
X96677213Y-50612477D01*
X96685285Y-50589918D01*
X96695529Y-50568258D01*
X96707847Y-50547708D01*
X96722119Y-50528463D01*
X96738210Y-50510710D01*
X96755963Y-50494619D01*
X96775208Y-50480347D01*
X96795758Y-50468029D01*
X96817418Y-50457785D01*
X96839977Y-50449713D01*
X96863219Y-50443891D01*
X96886919Y-50440376D01*
X96910850Y-50439200D01*
X97399150Y-50439200D01*
X97423081Y-50440376D01*
X97423081Y-50440376D01*
G37*
D11*
X97155000Y-50965000D03*
D10*
G36*
X95848081Y-50440376D02*
X95871781Y-50443891D01*
X95895023Y-50449713D01*
X95917582Y-50457785D01*
X95939242Y-50468029D01*
X95959792Y-50480347D01*
X95979037Y-50494619D01*
X95996790Y-50510710D01*
X96012881Y-50528463D01*
X96027153Y-50547708D01*
X96039471Y-50568258D01*
X96049715Y-50589918D01*
X96057787Y-50612477D01*
X96063609Y-50635719D01*
X96067124Y-50659419D01*
X96068300Y-50683350D01*
X96068300Y-51246650D01*
X96067124Y-51270581D01*
X96063609Y-51294281D01*
X96057787Y-51317523D01*
X96049715Y-51340082D01*
X96039471Y-51361742D01*
X96027153Y-51382292D01*
X96012881Y-51401537D01*
X95996790Y-51419290D01*
X95979037Y-51435381D01*
X95959792Y-51449653D01*
X95939242Y-51461971D01*
X95917582Y-51472215D01*
X95895023Y-51480287D01*
X95871781Y-51486109D01*
X95848081Y-51489624D01*
X95824150Y-51490800D01*
X95335850Y-51490800D01*
X95311919Y-51489624D01*
X95288219Y-51486109D01*
X95264977Y-51480287D01*
X95242418Y-51472215D01*
X95220758Y-51461971D01*
X95200208Y-51449653D01*
X95180963Y-51435381D01*
X95163210Y-51419290D01*
X95147119Y-51401537D01*
X95132847Y-51382292D01*
X95120529Y-51361742D01*
X95110285Y-51340082D01*
X95102213Y-51317523D01*
X95096391Y-51294281D01*
X95092876Y-51270581D01*
X95091700Y-51246650D01*
X95091700Y-50683350D01*
X95092876Y-50659419D01*
X95096391Y-50635719D01*
X95102213Y-50612477D01*
X95110285Y-50589918D01*
X95120529Y-50568258D01*
X95132847Y-50547708D01*
X95147119Y-50528463D01*
X95163210Y-50510710D01*
X95180963Y-50494619D01*
X95200208Y-50480347D01*
X95220758Y-50468029D01*
X95242418Y-50457785D01*
X95264977Y-50449713D01*
X95288219Y-50443891D01*
X95311919Y-50440376D01*
X95335850Y-50439200D01*
X95824150Y-50439200D01*
X95848081Y-50440376D01*
X95848081Y-50440376D01*
G37*
D11*
X95580000Y-50965000D03*
G04 #@! TD*
D13*
G04 #@! TO.C,J1*
X101600000Y-25400000D03*
D14*
X104140000Y-25400000D03*
X101600000Y-27940000D03*
X104140000Y-27940000D03*
X101600000Y-30480000D03*
X104140000Y-30480000D03*
X101600000Y-33020000D03*
X104140000Y-33020000D03*
X101600000Y-35560000D03*
X104140000Y-35560000D03*
X101600000Y-38100000D03*
X104140000Y-38100000D03*
X101600000Y-40640000D03*
X104140000Y-40640000D03*
X101600000Y-43180000D03*
X104140000Y-43180000D03*
X101600000Y-45720000D03*
X104140000Y-45720000D03*
X101600000Y-48260000D03*
X104140000Y-48260000D03*
X101600000Y-50800000D03*
X104140000Y-50800000D03*
X101600000Y-53340000D03*
X104140000Y-53340000D03*
X101600000Y-55880000D03*
X104140000Y-55880000D03*
X101600000Y-58420000D03*
X104140000Y-58420000D03*
X101600000Y-60960000D03*
X104140000Y-60960000D03*
X101600000Y-63500000D03*
X104140000Y-63500000D03*
X101600000Y-66040000D03*
X104140000Y-66040000D03*
X101600000Y-68580000D03*
X104140000Y-68580000D03*
X101600000Y-71120000D03*
X104140000Y-71120000D03*
X101600000Y-73660000D03*
X104140000Y-73660000D03*
G04 #@! TD*
D13*
G04 #@! TO.C,J2*
X93980000Y-25400000D03*
D14*
X93980000Y-27940000D03*
X91440000Y-25400000D03*
X91440000Y-27940000D03*
X88900000Y-25400000D03*
X88900000Y-27940000D03*
X86360000Y-25400000D03*
X86360000Y-27940000D03*
G04 #@! TD*
M02*
