G04 #@! TF.GenerationSoftware,KiCad,Pcbnew,5.0.0-fee4fd1~66~ubuntu18.04.1*
G04 #@! TF.CreationDate,2018-09-10T21:16:37+02:00*
G04 #@! TF.ProjectId,QuadCAN-FD,5175616443414E2D46442E6B69636164,rev?*
G04 #@! TF.SameCoordinates,Original*
G04 #@! TF.FileFunction,Paste,Top*
G04 #@! TF.FilePolarity,Positive*
%FSLAX46Y46*%
G04 Gerber Fmt 4.6, Leading zero omitted, Abs format (unit mm)*
G04 Created by KiCad (PCBNEW 5.0.0-fee4fd1~66~ubuntu18.04.1) date Mon Sep 10 21:16:37 2018*
%MOMM*%
%LPD*%
G01*
G04 APERTURE LIST*
%ADD10R,1.550000X0.600000*%
%ADD11R,2.000000X1.800000*%
%ADD12R,1.500000X0.600000*%
G04 APERTURE END LIST*
D10*
G04 #@! TO.C,U9*
X92667500Y-50060000D03*
X92667500Y-51330000D03*
X92667500Y-52600000D03*
X92667500Y-53870000D03*
X98067500Y-53870000D03*
X98067500Y-52600000D03*
X98067500Y-51330000D03*
X98067500Y-50060000D03*
G04 #@! TD*
D11*
G04 #@! TO.C,X1*
X84367500Y-49425000D03*
X84367500Y-54505000D03*
X88367500Y-54505000D03*
X88367500Y-49425000D03*
G04 #@! TD*
D12*
G04 #@! TO.C,U1*
X92667500Y-38155000D03*
X92667500Y-39425000D03*
X92667500Y-40695000D03*
X92667500Y-41965000D03*
X92667500Y-43235000D03*
X92667500Y-44505000D03*
X92667500Y-45775000D03*
X98067500Y-45775000D03*
X98067500Y-44505000D03*
X98067500Y-43235000D03*
X98067500Y-41965000D03*
X98067500Y-40695000D03*
X98067500Y-39425000D03*
X98067500Y-38155000D03*
G04 #@! TD*
G04 #@! TO.C,U2*
X89067500Y-38155000D03*
X89067500Y-39425000D03*
X89067500Y-40695000D03*
X89067500Y-41965000D03*
X89067500Y-43235000D03*
X89067500Y-44505000D03*
X89067500Y-45775000D03*
X83667500Y-45775000D03*
X83667500Y-44505000D03*
X83667500Y-43235000D03*
X83667500Y-41965000D03*
X83667500Y-40695000D03*
X83667500Y-39425000D03*
X83667500Y-38155000D03*
G04 #@! TD*
G04 #@! TO.C,U3*
X92667500Y-66155000D03*
X92667500Y-67425000D03*
X92667500Y-68695000D03*
X92667500Y-69965000D03*
X92667500Y-71235000D03*
X92667500Y-72505000D03*
X92667500Y-73775000D03*
X98067500Y-73775000D03*
X98067500Y-72505000D03*
X98067500Y-71235000D03*
X98067500Y-69965000D03*
X98067500Y-68695000D03*
X98067500Y-67425000D03*
X98067500Y-66155000D03*
G04 #@! TD*
G04 #@! TO.C,U4*
X89067500Y-66155000D03*
X89067500Y-67425000D03*
X89067500Y-68695000D03*
X89067500Y-69965000D03*
X89067500Y-71235000D03*
X89067500Y-72505000D03*
X89067500Y-73775000D03*
X83667500Y-73775000D03*
X83667500Y-72505000D03*
X83667500Y-71235000D03*
X83667500Y-69965000D03*
X83667500Y-68695000D03*
X83667500Y-67425000D03*
X83667500Y-66155000D03*
G04 #@! TD*
D10*
G04 #@! TO.C,U5*
X98067500Y-31560000D03*
X98067500Y-32830000D03*
X98067500Y-34100000D03*
X98067500Y-35370000D03*
X92667500Y-35370000D03*
X92667500Y-34100000D03*
X92667500Y-32830000D03*
X92667500Y-31560000D03*
G04 #@! TD*
G04 #@! TO.C,U6*
X83667500Y-31560000D03*
X83667500Y-32830000D03*
X83667500Y-34100000D03*
X83667500Y-35370000D03*
X89067500Y-35370000D03*
X89067500Y-34100000D03*
X89067500Y-32830000D03*
X89067500Y-31560000D03*
G04 #@! TD*
G04 #@! TO.C,U7*
X97950000Y-59055000D03*
X97950000Y-60325000D03*
X97950000Y-61595000D03*
X97950000Y-62865000D03*
X92550000Y-62865000D03*
X92550000Y-61595000D03*
X92550000Y-60325000D03*
X92550000Y-59055000D03*
G04 #@! TD*
G04 #@! TO.C,U8*
X83660000Y-59060000D03*
X83660000Y-60330000D03*
X83660000Y-61600000D03*
X83660000Y-62870000D03*
X89060000Y-62870000D03*
X89060000Y-61600000D03*
X89060000Y-60330000D03*
X89060000Y-59060000D03*
G04 #@! TD*
M02*
