M48
;DRILL file {KiCad 5.0.0-fee4fd1~66~ubuntu18.04.1} date Mon Sep 10 21:16:41 2018
;FORMAT={-:-/ absolute / inch / decimal}
FMAT,2
INCH,TZ
T1C0.0130
T2C0.0177
T3C0.0394
%
G90
G05
M72
T1
X3.3176Y-2.2545
X3.3216Y-2.0852
X3.3412Y-2.9041
X3.3452Y-1.8018
X3.3491Y-1.2939
X3.3531Y-2.3569
X3.3531Y-2.7545
X3.357Y-2.2545
X3.3708Y-1.7211
X3.4397Y-2.7545
X3.4475Y-1.1482
X3.4594Y-2.6561
X3.555Y-1.5537
X3.5578Y-2.853
X3.5696Y-2.6404
X3.5775Y-1.29
X3.5775Y-1.3411
X3.5932Y-2.7545
X3.6011Y-1.6522
X3.6719Y-1.1561
X3.6983Y-1.7409
X3.6995Y-1.8018
X3.6995Y-2.0222
X3.6995Y-2.9041
X3.7034Y-1.2939
X3.7113Y-2.353
X3.7231Y-1.7152
X3.7586Y-1.286
X3.7743Y-1.2545
X3.7938Y-1.5969
X3.8097Y-2.6561
X3.8176Y-1.7506
X3.8216Y-1.849
X3.8609Y-2.1679
X3.9121Y-2.0222
X3.9121Y-2.0695
X3.9121Y-2.3254
X3.9121Y-2.853
X3.916Y-1.353
X3.9475Y-2.727
T2
X3.3531Y-1.3411
X3.3531Y-2.4041
X3.4121Y-2.0695
X3.4121Y-1.8569
X3.5066Y-1.4396
X3.5105Y-2.0026
X3.5145Y-1.4829
X3.5184Y-2.5144
X3.5184Y-2.5656
X3.7153Y-1.3411
X3.7271Y-2.4081
X3.7546Y-1.597
X3.8019Y-1.0656
X3.8294Y-1.9199
X3.857Y-2.5026
X3.8688Y-1.4238
T3
X4.Y-1.
X4.Y-1.1
X4.Y-1.2
X4.Y-1.3
X4.Y-1.4
X4.Y-1.5
X4.Y-1.6
X4.Y-1.7
X4.Y-1.8
X4.Y-1.9
X4.Y-2.
X4.Y-2.1
X4.Y-2.2
X4.Y-2.3
X4.Y-2.4
X4.Y-2.5
X4.Y-2.6
X4.Y-2.7
X4.Y-2.8
X4.Y-2.9
X4.1Y-1.
X4.1Y-1.1
X4.1Y-1.2
X4.1Y-1.3
X4.1Y-1.4
X4.1Y-1.5
X4.1Y-1.6
X4.1Y-1.7
X4.1Y-1.8
X4.1Y-1.9
X4.1Y-2.
X4.1Y-2.1
X4.1Y-2.2
X4.1Y-2.3
X4.1Y-2.4
X4.1Y-2.5
X4.1Y-2.6
X4.1Y-2.7
X4.1Y-2.8
X4.1Y-2.9
X3.4Y-1.
X3.4Y-1.1
X3.5Y-1.
X3.5Y-1.1
X3.6Y-1.
X3.6Y-1.1
X3.7Y-1.
X3.7Y-1.1
T0
M30
