G04 #@! TF.GenerationSoftware,KiCad,Pcbnew,5.0.0-rc2-unknown-06ff563~65~ubuntu18.04.1*
G04 #@! TF.CreationDate,2018-06-29T13:07:05+02:00*
G04 #@! TF.ProjectId,raspi3-4xMCP2517FD,7261737069332D34784D435032353137,rev?*
G04 #@! TF.SameCoordinates,Original*
G04 #@! TF.FileFunction,Legend,Top*
G04 #@! TF.FilePolarity,Positive*
%FSLAX46Y46*%
G04 Gerber Fmt 4.6, Leading zero omitted, Abs format (unit mm)*
G04 Created by KiCad (PCBNEW 5.0.0-rc2-unknown-06ff563~65~ubuntu18.04.1) date Fri Jun 29 13:07:05 2018*
%MOMM*%
%LPD*%
G01*
G04 APERTURE LIST*
%ADD10C,0.120000*%
%ADD11C,0.150000*%
G04 APERTURE END LIST*
D10*
G04 #@! TO.C,X1*
X96350000Y-49965000D02*
X96410000Y-49965000D01*
X96410000Y-49965000D02*
X96410000Y-55445000D01*
X96410000Y-55445000D02*
X96350000Y-55445000D01*
X91270000Y-49965000D02*
X94150000Y-49965000D01*
X89070000Y-55905000D02*
X89070000Y-55445000D01*
X89070000Y-55445000D02*
X89010000Y-55445000D01*
X89010000Y-55445000D02*
X89010000Y-49965000D01*
X89010000Y-49965000D02*
X89070000Y-49965000D01*
X94150000Y-55445000D02*
X91270000Y-55445000D01*
X91270000Y-55445000D02*
X91270000Y-55905000D01*
G04 #@! TO.C,J1*
X100270000Y-74990000D02*
X105470000Y-74990000D01*
X100270000Y-26670000D02*
X100270000Y-74990000D01*
X105470000Y-24070000D02*
X105470000Y-74990000D01*
X100270000Y-26670000D02*
X102870000Y-26670000D01*
X102870000Y-26670000D02*
X102870000Y-24070000D01*
X102870000Y-24070000D02*
X105470000Y-24070000D01*
X100270000Y-25400000D02*
X100270000Y-24070000D01*
X100270000Y-24070000D02*
X101600000Y-24070000D01*
G04 #@! TO.C,J2*
X85030000Y-24070000D02*
X85030000Y-29270000D01*
X92710000Y-24070000D02*
X85030000Y-24070000D01*
X95310000Y-29270000D02*
X85030000Y-29270000D01*
X92710000Y-24070000D02*
X92710000Y-26670000D01*
X92710000Y-26670000D02*
X95310000Y-26670000D01*
X95310000Y-26670000D02*
X95310000Y-29270000D01*
X93980000Y-24070000D02*
X95310000Y-24070000D01*
X95310000Y-24070000D02*
X95310000Y-25400000D01*
D11*
G04 #@! TO.C,U1*
X93175000Y-38730000D02*
X93175000Y-38755000D01*
X97325000Y-38730000D02*
X97325000Y-38845000D01*
X97325000Y-47630000D02*
X97325000Y-47515000D01*
X93175000Y-47630000D02*
X93175000Y-47515000D01*
X93175000Y-38730000D02*
X97325000Y-38730000D01*
X93175000Y-47630000D02*
X97325000Y-47630000D01*
X93175000Y-38755000D02*
X91800000Y-38755000D01*
G04 #@! TO.C,U2*
X84285000Y-38755000D02*
X82910000Y-38755000D01*
X84285000Y-47630000D02*
X88435000Y-47630000D01*
X84285000Y-38730000D02*
X88435000Y-38730000D01*
X84285000Y-47630000D02*
X84285000Y-47515000D01*
X88435000Y-47630000D02*
X88435000Y-47515000D01*
X88435000Y-38730000D02*
X88435000Y-38845000D01*
X84285000Y-38730000D02*
X84285000Y-38755000D01*
G04 #@! TO.C,U3*
X93175000Y-65400000D02*
X93175000Y-65425000D01*
X97325000Y-65400000D02*
X97325000Y-65515000D01*
X97325000Y-74300000D02*
X97325000Y-74185000D01*
X93175000Y-74300000D02*
X93175000Y-74185000D01*
X93175000Y-65400000D02*
X97325000Y-65400000D01*
X93175000Y-74300000D02*
X97325000Y-74300000D01*
X93175000Y-65425000D02*
X91800000Y-65425000D01*
G04 #@! TO.C,U4*
X84285000Y-65425000D02*
X82910000Y-65425000D01*
X84285000Y-74300000D02*
X88435000Y-74300000D01*
X84285000Y-65400000D02*
X88435000Y-65400000D01*
X84285000Y-74300000D02*
X84285000Y-74185000D01*
X88435000Y-74300000D02*
X88435000Y-74185000D01*
X88435000Y-65400000D02*
X88435000Y-65515000D01*
X84285000Y-65400000D02*
X84285000Y-65425000D01*
G04 #@! TO.C,U5*
X93175000Y-31765000D02*
X91775000Y-31765000D01*
X93175000Y-36865000D02*
X97325000Y-36865000D01*
X93175000Y-31715000D02*
X97325000Y-31715000D01*
X93175000Y-36865000D02*
X93175000Y-36720000D01*
X97325000Y-36865000D02*
X97325000Y-36720000D01*
X97325000Y-31715000D02*
X97325000Y-31860000D01*
X93175000Y-31715000D02*
X93175000Y-31765000D01*
G04 #@! TO.C,U6*
X84285000Y-31715000D02*
X84285000Y-31765000D01*
X88435000Y-31715000D02*
X88435000Y-31860000D01*
X88435000Y-36865000D02*
X88435000Y-36720000D01*
X84285000Y-36865000D02*
X84285000Y-36720000D01*
X84285000Y-31715000D02*
X88435000Y-31715000D01*
X84285000Y-36865000D02*
X88435000Y-36865000D01*
X84285000Y-31765000D02*
X82885000Y-31765000D01*
G04 #@! TO.C,U7*
X93175000Y-58435000D02*
X91775000Y-58435000D01*
X93175000Y-63535000D02*
X97325000Y-63535000D01*
X93175000Y-58385000D02*
X97325000Y-58385000D01*
X93175000Y-63535000D02*
X93175000Y-63390000D01*
X97325000Y-63535000D02*
X97325000Y-63390000D01*
X97325000Y-58385000D02*
X97325000Y-58530000D01*
X93175000Y-58385000D02*
X93175000Y-58435000D01*
G04 #@! TO.C,U8*
X84285000Y-58385000D02*
X84285000Y-58435000D01*
X88435000Y-58385000D02*
X88435000Y-58530000D01*
X88435000Y-63535000D02*
X88435000Y-63390000D01*
X84285000Y-63535000D02*
X84285000Y-63390000D01*
X84285000Y-58385000D02*
X88435000Y-58385000D01*
X84285000Y-63535000D02*
X88435000Y-63535000D01*
X84285000Y-58435000D02*
X82885000Y-58435000D01*
G04 #@! TO.C,X1*
X87564880Y-53514523D02*
X88564880Y-52847857D01*
X87564880Y-52847857D02*
X88564880Y-53514523D01*
X88564880Y-51943095D02*
X88564880Y-52514523D01*
X88564880Y-52228809D02*
X87564880Y-52228809D01*
X87707738Y-52324047D01*
X87802976Y-52419285D01*
X87850595Y-52514523D01*
G04 #@! TO.C,J1*
X98359880Y-27003333D02*
X99074166Y-27003333D01*
X99217023Y-27050952D01*
X99312261Y-27146190D01*
X99359880Y-27289047D01*
X99359880Y-27384285D01*
X99359880Y-26003333D02*
X99359880Y-26574761D01*
X99359880Y-26289047D02*
X98359880Y-26289047D01*
X98502738Y-26384285D01*
X98597976Y-26479523D01*
X98645595Y-26574761D01*
G04 #@! TO.C,J2*
X83119880Y-27003333D02*
X83834166Y-27003333D01*
X83977023Y-27050952D01*
X84072261Y-27146190D01*
X84119880Y-27289047D01*
X84119880Y-27384285D01*
X83215119Y-26574761D02*
X83167500Y-26527142D01*
X83119880Y-26431904D01*
X83119880Y-26193809D01*
X83167500Y-26098571D01*
X83215119Y-26050952D01*
X83310357Y-26003333D01*
X83405595Y-26003333D01*
X83548452Y-26050952D01*
X84119880Y-26622380D01*
X84119880Y-26003333D01*
G04 #@! TO.C,U1*
X94488095Y-37257380D02*
X94488095Y-38066904D01*
X94535714Y-38162142D01*
X94583333Y-38209761D01*
X94678571Y-38257380D01*
X94869047Y-38257380D01*
X94964285Y-38209761D01*
X95011904Y-38162142D01*
X95059523Y-38066904D01*
X95059523Y-37257380D01*
X96059523Y-38257380D02*
X95488095Y-38257380D01*
X95773809Y-38257380D02*
X95773809Y-37257380D01*
X95678571Y-37400238D01*
X95583333Y-37495476D01*
X95488095Y-37543095D01*
G04 #@! TO.C,U2*
X85598095Y-37257380D02*
X85598095Y-38066904D01*
X85645714Y-38162142D01*
X85693333Y-38209761D01*
X85788571Y-38257380D01*
X85979047Y-38257380D01*
X86074285Y-38209761D01*
X86121904Y-38162142D01*
X86169523Y-38066904D01*
X86169523Y-37257380D01*
X86598095Y-37352619D02*
X86645714Y-37305000D01*
X86740952Y-37257380D01*
X86979047Y-37257380D01*
X87074285Y-37305000D01*
X87121904Y-37352619D01*
X87169523Y-37447857D01*
X87169523Y-37543095D01*
X87121904Y-37685952D01*
X86550476Y-38257380D01*
X87169523Y-38257380D01*
G04 #@! TO.C,U3*
X94488095Y-63927380D02*
X94488095Y-64736904D01*
X94535714Y-64832142D01*
X94583333Y-64879761D01*
X94678571Y-64927380D01*
X94869047Y-64927380D01*
X94964285Y-64879761D01*
X95011904Y-64832142D01*
X95059523Y-64736904D01*
X95059523Y-63927380D01*
X95440476Y-63927380D02*
X96059523Y-63927380D01*
X95726190Y-64308333D01*
X95869047Y-64308333D01*
X95964285Y-64355952D01*
X96011904Y-64403571D01*
X96059523Y-64498809D01*
X96059523Y-64736904D01*
X96011904Y-64832142D01*
X95964285Y-64879761D01*
X95869047Y-64927380D01*
X95583333Y-64927380D01*
X95488095Y-64879761D01*
X95440476Y-64832142D01*
G04 #@! TO.C,U4*
X85598095Y-63927380D02*
X85598095Y-64736904D01*
X85645714Y-64832142D01*
X85693333Y-64879761D01*
X85788571Y-64927380D01*
X85979047Y-64927380D01*
X86074285Y-64879761D01*
X86121904Y-64832142D01*
X86169523Y-64736904D01*
X86169523Y-63927380D01*
X87074285Y-64260714D02*
X87074285Y-64927380D01*
X86836190Y-63879761D02*
X86598095Y-64594047D01*
X87217142Y-64594047D01*
G04 #@! TO.C,U5*
X94488095Y-30242380D02*
X94488095Y-31051904D01*
X94535714Y-31147142D01*
X94583333Y-31194761D01*
X94678571Y-31242380D01*
X94869047Y-31242380D01*
X94964285Y-31194761D01*
X95011904Y-31147142D01*
X95059523Y-31051904D01*
X95059523Y-30242380D01*
X96011904Y-30242380D02*
X95535714Y-30242380D01*
X95488095Y-30718571D01*
X95535714Y-30670952D01*
X95630952Y-30623333D01*
X95869047Y-30623333D01*
X95964285Y-30670952D01*
X96011904Y-30718571D01*
X96059523Y-30813809D01*
X96059523Y-31051904D01*
X96011904Y-31147142D01*
X95964285Y-31194761D01*
X95869047Y-31242380D01*
X95630952Y-31242380D01*
X95535714Y-31194761D01*
X95488095Y-31147142D01*
G04 #@! TO.C,U6*
X85598095Y-30242380D02*
X85598095Y-31051904D01*
X85645714Y-31147142D01*
X85693333Y-31194761D01*
X85788571Y-31242380D01*
X85979047Y-31242380D01*
X86074285Y-31194761D01*
X86121904Y-31147142D01*
X86169523Y-31051904D01*
X86169523Y-30242380D01*
X87074285Y-30242380D02*
X86883809Y-30242380D01*
X86788571Y-30290000D01*
X86740952Y-30337619D01*
X86645714Y-30480476D01*
X86598095Y-30670952D01*
X86598095Y-31051904D01*
X86645714Y-31147142D01*
X86693333Y-31194761D01*
X86788571Y-31242380D01*
X86979047Y-31242380D01*
X87074285Y-31194761D01*
X87121904Y-31147142D01*
X87169523Y-31051904D01*
X87169523Y-30813809D01*
X87121904Y-30718571D01*
X87074285Y-30670952D01*
X86979047Y-30623333D01*
X86788571Y-30623333D01*
X86693333Y-30670952D01*
X86645714Y-30718571D01*
X86598095Y-30813809D01*
G04 #@! TO.C,U7*
X94488095Y-56912380D02*
X94488095Y-57721904D01*
X94535714Y-57817142D01*
X94583333Y-57864761D01*
X94678571Y-57912380D01*
X94869047Y-57912380D01*
X94964285Y-57864761D01*
X95011904Y-57817142D01*
X95059523Y-57721904D01*
X95059523Y-56912380D01*
X95440476Y-56912380D02*
X96107142Y-56912380D01*
X95678571Y-57912380D01*
G04 #@! TO.C,U8*
X85598095Y-56912380D02*
X85598095Y-57721904D01*
X85645714Y-57817142D01*
X85693333Y-57864761D01*
X85788571Y-57912380D01*
X85979047Y-57912380D01*
X86074285Y-57864761D01*
X86121904Y-57817142D01*
X86169523Y-57721904D01*
X86169523Y-56912380D01*
X86788571Y-57340952D02*
X86693333Y-57293333D01*
X86645714Y-57245714D01*
X86598095Y-57150476D01*
X86598095Y-57102857D01*
X86645714Y-57007619D01*
X86693333Y-56960000D01*
X86788571Y-56912380D01*
X86979047Y-56912380D01*
X87074285Y-56960000D01*
X87121904Y-57007619D01*
X87169523Y-57102857D01*
X87169523Y-57150476D01*
X87121904Y-57245714D01*
X87074285Y-57293333D01*
X86979047Y-57340952D01*
X86788571Y-57340952D01*
X86693333Y-57388571D01*
X86645714Y-57436190D01*
X86598095Y-57531428D01*
X86598095Y-57721904D01*
X86645714Y-57817142D01*
X86693333Y-57864761D01*
X86788571Y-57912380D01*
X86979047Y-57912380D01*
X87074285Y-57864761D01*
X87121904Y-57817142D01*
X87169523Y-57721904D01*
X87169523Y-57531428D01*
X87121904Y-57436190D01*
X87074285Y-57388571D01*
X86979047Y-57340952D01*
G04 #@! TD*
M02*
