M48
;DRILL file {KiCad 5.0.0-rc2-unknown-06ff563~65~ubuntu18.04.1} date Fri Jun 29 13:07:12 2018
;FORMAT={-:-/ absolute / inch / decimal}
FMAT,2
INCH,TZ
T1C0.0130
T2C0.0130
T3C0.0177
T4C0.0394
%
G90
G05
M72
T1
X3.26Y-1.46
T2
X3.27Y-1.23
X3.32Y-1.895
X3.325Y-1.955
X3.34Y-2.9
X3.345Y-2.375
X3.35Y-1.775
X3.35Y-1.87
X3.36Y-1.535
X3.362Y-1.8154
X3.3813Y-1.8854
X3.39Y-2.87
X3.395Y-1.815
X3.404Y-2.525
X3.4104Y-1.8698
X3.43Y-1.82
X3.44Y-1.885
X3.4475Y-1.735
X3.46Y-2.325
X3.505Y-1.245
X3.505Y-1.885
X3.505Y-2.935
X3.525Y-1.93
X3.58Y-1.645
X3.585Y-1.85
X3.59Y-2.7
X3.595Y-1.325
X3.595Y-2.375
X3.595Y-2.525
X3.69Y-2.9
X3.694Y-2.155
X3.695Y-1.85
X3.7Y-2.7
X3.7041Y-1.3209
X3.719Y-1.675
X3.725Y-2.58
X3.744Y-1.56
X3.7525Y-1.775
X3.785Y-1.245
X3.8008Y-2.3242
X3.81Y-1.85
X3.855Y-2.125
X3.9006Y-2.5006
X3.905Y-1.275
X3.909Y-2.895
X3.91Y-2.835
X3.92Y-1.605
X3.92Y-2.725
X3.925Y-2.1
X3.949Y-2.05
T3
X3.27Y-2.075
X3.395Y-2.45
X3.4364Y-1.3564
X3.465Y-2.075
X3.555Y-1.425
X3.555Y-1.55
X3.555Y-2.475
X3.555Y-2.6
X3.575Y-2.32
X3.58Y-2.89
X3.59Y-1.375
X3.595Y-2.425
X3.609Y-1.2
X3.625Y-2.21
X3.675Y-1.5145
X3.735Y-2.37
X3.754Y-1.18
X3.79Y-2.875
X3.794Y-2.49
X3.874Y-1.9
X3.905Y-1.55
X3.91Y-1.425
X3.915Y-2.6
T4
X3.4Y-1.
X3.4Y-1.1
X3.5Y-1.
X3.5Y-1.1
X3.6Y-1.
X3.6Y-1.1
X3.7Y-1.
X3.7Y-1.1
X4.Y-1.
X4.Y-1.1
X4.Y-1.2
X4.Y-1.3
X4.Y-1.4
X4.Y-1.5
X4.Y-1.6
X4.Y-1.7
X4.Y-1.8
X4.Y-1.9
X4.Y-2.
X4.Y-2.1
X4.Y-2.2
X4.Y-2.3
X4.Y-2.4
X4.Y-2.5
X4.Y-2.6
X4.Y-2.7
X4.Y-2.8
X4.Y-2.9
X4.1Y-1.
X4.1Y-1.1
X4.1Y-1.2
X4.1Y-1.3
X4.1Y-1.4
X4.1Y-1.5
X4.1Y-1.6
X4.1Y-1.7
X4.1Y-1.8
X4.1Y-1.9
X4.1Y-2.
X4.1Y-2.1
X4.1Y-2.2
X4.1Y-2.3
X4.1Y-2.4
X4.1Y-2.5
X4.1Y-2.6
X4.1Y-2.7
X4.1Y-2.8
X4.1Y-2.9
T0
M30
