G04 #@! TF.GenerationSoftware,KiCad,Pcbnew,5.0.0-rc2-unknown-06ff563~65~ubuntu18.04.1*
G04 #@! TF.CreationDate,2018-06-29T13:07:05+02:00*
G04 #@! TF.ProjectId,raspi3-4xMCP2517FD,7261737069332D34784D435032353137,rev?*
G04 #@! TF.SameCoordinates,Original*
G04 #@! TF.FileFunction,Paste,Bot*
G04 #@! TF.FilePolarity,Positive*
%FSLAX46Y46*%
G04 Gerber Fmt 4.6, Leading zero omitted, Abs format (unit mm)*
G04 Created by KiCad (PCBNEW 5.0.0-rc2-unknown-06ff563~65~ubuntu18.04.1) date Fri Jun 29 13:07:05 2018*
%MOMM*%
%LPD*%
G01*
G04 APERTURE LIST*
%ADD10C,0.100000*%
%ADD11C,0.875000*%
G04 APERTURE END LIST*
D10*
G04 #@! TO.C,R6*
G36*
X87717691Y-42706053D02*
X87738926Y-42709203D01*
X87759750Y-42714419D01*
X87779962Y-42721651D01*
X87799368Y-42730830D01*
X87817781Y-42741866D01*
X87835024Y-42754654D01*
X87850930Y-42769070D01*
X87865346Y-42784976D01*
X87878134Y-42802219D01*
X87889170Y-42820632D01*
X87898349Y-42840038D01*
X87905581Y-42860250D01*
X87910797Y-42881074D01*
X87913947Y-42902309D01*
X87915000Y-42923750D01*
X87915000Y-43436250D01*
X87913947Y-43457691D01*
X87910797Y-43478926D01*
X87905581Y-43499750D01*
X87898349Y-43519962D01*
X87889170Y-43539368D01*
X87878134Y-43557781D01*
X87865346Y-43575024D01*
X87850930Y-43590930D01*
X87835024Y-43605346D01*
X87817781Y-43618134D01*
X87799368Y-43629170D01*
X87779962Y-43638349D01*
X87759750Y-43645581D01*
X87738926Y-43650797D01*
X87717691Y-43653947D01*
X87696250Y-43655000D01*
X87258750Y-43655000D01*
X87237309Y-43653947D01*
X87216074Y-43650797D01*
X87195250Y-43645581D01*
X87175038Y-43638349D01*
X87155632Y-43629170D01*
X87137219Y-43618134D01*
X87119976Y-43605346D01*
X87104070Y-43590930D01*
X87089654Y-43575024D01*
X87076866Y-43557781D01*
X87065830Y-43539368D01*
X87056651Y-43519962D01*
X87049419Y-43499750D01*
X87044203Y-43478926D01*
X87041053Y-43457691D01*
X87040000Y-43436250D01*
X87040000Y-42923750D01*
X87041053Y-42902309D01*
X87044203Y-42881074D01*
X87049419Y-42860250D01*
X87056651Y-42840038D01*
X87065830Y-42820632D01*
X87076866Y-42802219D01*
X87089654Y-42784976D01*
X87104070Y-42769070D01*
X87119976Y-42754654D01*
X87137219Y-42741866D01*
X87155632Y-42730830D01*
X87175038Y-42721651D01*
X87195250Y-42714419D01*
X87216074Y-42709203D01*
X87237309Y-42706053D01*
X87258750Y-42705000D01*
X87696250Y-42705000D01*
X87717691Y-42706053D01*
X87717691Y-42706053D01*
G37*
D11*
X87477500Y-43180000D03*
D10*
G36*
X89292691Y-42706053D02*
X89313926Y-42709203D01*
X89334750Y-42714419D01*
X89354962Y-42721651D01*
X89374368Y-42730830D01*
X89392781Y-42741866D01*
X89410024Y-42754654D01*
X89425930Y-42769070D01*
X89440346Y-42784976D01*
X89453134Y-42802219D01*
X89464170Y-42820632D01*
X89473349Y-42840038D01*
X89480581Y-42860250D01*
X89485797Y-42881074D01*
X89488947Y-42902309D01*
X89490000Y-42923750D01*
X89490000Y-43436250D01*
X89488947Y-43457691D01*
X89485797Y-43478926D01*
X89480581Y-43499750D01*
X89473349Y-43519962D01*
X89464170Y-43539368D01*
X89453134Y-43557781D01*
X89440346Y-43575024D01*
X89425930Y-43590930D01*
X89410024Y-43605346D01*
X89392781Y-43618134D01*
X89374368Y-43629170D01*
X89354962Y-43638349D01*
X89334750Y-43645581D01*
X89313926Y-43650797D01*
X89292691Y-43653947D01*
X89271250Y-43655000D01*
X88833750Y-43655000D01*
X88812309Y-43653947D01*
X88791074Y-43650797D01*
X88770250Y-43645581D01*
X88750038Y-43638349D01*
X88730632Y-43629170D01*
X88712219Y-43618134D01*
X88694976Y-43605346D01*
X88679070Y-43590930D01*
X88664654Y-43575024D01*
X88651866Y-43557781D01*
X88640830Y-43539368D01*
X88631651Y-43519962D01*
X88624419Y-43499750D01*
X88619203Y-43478926D01*
X88616053Y-43457691D01*
X88615000Y-43436250D01*
X88615000Y-42923750D01*
X88616053Y-42902309D01*
X88619203Y-42881074D01*
X88624419Y-42860250D01*
X88631651Y-42840038D01*
X88640830Y-42820632D01*
X88651866Y-42802219D01*
X88664654Y-42784976D01*
X88679070Y-42769070D01*
X88694976Y-42754654D01*
X88712219Y-42741866D01*
X88730632Y-42730830D01*
X88750038Y-42721651D01*
X88770250Y-42714419D01*
X88791074Y-42709203D01*
X88812309Y-42706053D01*
X88833750Y-42705000D01*
X89271250Y-42705000D01*
X89292691Y-42706053D01*
X89292691Y-42706053D01*
G37*
D11*
X89052500Y-43180000D03*
G04 #@! TD*
D10*
G04 #@! TO.C,R4*
G36*
X98182691Y-36991053D02*
X98203926Y-36994203D01*
X98224750Y-36999419D01*
X98244962Y-37006651D01*
X98264368Y-37015830D01*
X98282781Y-37026866D01*
X98300024Y-37039654D01*
X98315930Y-37054070D01*
X98330346Y-37069976D01*
X98343134Y-37087219D01*
X98354170Y-37105632D01*
X98363349Y-37125038D01*
X98370581Y-37145250D01*
X98375797Y-37166074D01*
X98378947Y-37187309D01*
X98380000Y-37208750D01*
X98380000Y-37721250D01*
X98378947Y-37742691D01*
X98375797Y-37763926D01*
X98370581Y-37784750D01*
X98363349Y-37804962D01*
X98354170Y-37824368D01*
X98343134Y-37842781D01*
X98330346Y-37860024D01*
X98315930Y-37875930D01*
X98300024Y-37890346D01*
X98282781Y-37903134D01*
X98264368Y-37914170D01*
X98244962Y-37923349D01*
X98224750Y-37930581D01*
X98203926Y-37935797D01*
X98182691Y-37938947D01*
X98161250Y-37940000D01*
X97723750Y-37940000D01*
X97702309Y-37938947D01*
X97681074Y-37935797D01*
X97660250Y-37930581D01*
X97640038Y-37923349D01*
X97620632Y-37914170D01*
X97602219Y-37903134D01*
X97584976Y-37890346D01*
X97569070Y-37875930D01*
X97554654Y-37860024D01*
X97541866Y-37842781D01*
X97530830Y-37824368D01*
X97521651Y-37804962D01*
X97514419Y-37784750D01*
X97509203Y-37763926D01*
X97506053Y-37742691D01*
X97505000Y-37721250D01*
X97505000Y-37208750D01*
X97506053Y-37187309D01*
X97509203Y-37166074D01*
X97514419Y-37145250D01*
X97521651Y-37125038D01*
X97530830Y-37105632D01*
X97541866Y-37087219D01*
X97554654Y-37069976D01*
X97569070Y-37054070D01*
X97584976Y-37039654D01*
X97602219Y-37026866D01*
X97620632Y-37015830D01*
X97640038Y-37006651D01*
X97660250Y-36999419D01*
X97681074Y-36994203D01*
X97702309Y-36991053D01*
X97723750Y-36990000D01*
X98161250Y-36990000D01*
X98182691Y-36991053D01*
X98182691Y-36991053D01*
G37*
D11*
X97942500Y-37465000D03*
D10*
G36*
X96607691Y-36991053D02*
X96628926Y-36994203D01*
X96649750Y-36999419D01*
X96669962Y-37006651D01*
X96689368Y-37015830D01*
X96707781Y-37026866D01*
X96725024Y-37039654D01*
X96740930Y-37054070D01*
X96755346Y-37069976D01*
X96768134Y-37087219D01*
X96779170Y-37105632D01*
X96788349Y-37125038D01*
X96795581Y-37145250D01*
X96800797Y-37166074D01*
X96803947Y-37187309D01*
X96805000Y-37208750D01*
X96805000Y-37721250D01*
X96803947Y-37742691D01*
X96800797Y-37763926D01*
X96795581Y-37784750D01*
X96788349Y-37804962D01*
X96779170Y-37824368D01*
X96768134Y-37842781D01*
X96755346Y-37860024D01*
X96740930Y-37875930D01*
X96725024Y-37890346D01*
X96707781Y-37903134D01*
X96689368Y-37914170D01*
X96669962Y-37923349D01*
X96649750Y-37930581D01*
X96628926Y-37935797D01*
X96607691Y-37938947D01*
X96586250Y-37940000D01*
X96148750Y-37940000D01*
X96127309Y-37938947D01*
X96106074Y-37935797D01*
X96085250Y-37930581D01*
X96065038Y-37923349D01*
X96045632Y-37914170D01*
X96027219Y-37903134D01*
X96009976Y-37890346D01*
X95994070Y-37875930D01*
X95979654Y-37860024D01*
X95966866Y-37842781D01*
X95955830Y-37824368D01*
X95946651Y-37804962D01*
X95939419Y-37784750D01*
X95934203Y-37763926D01*
X95931053Y-37742691D01*
X95930000Y-37721250D01*
X95930000Y-37208750D01*
X95931053Y-37187309D01*
X95934203Y-37166074D01*
X95939419Y-37145250D01*
X95946651Y-37125038D01*
X95955830Y-37105632D01*
X95966866Y-37087219D01*
X95979654Y-37069976D01*
X95994070Y-37054070D01*
X96009976Y-37039654D01*
X96027219Y-37026866D01*
X96045632Y-37015830D01*
X96065038Y-37006651D01*
X96085250Y-36999419D01*
X96106074Y-36994203D01*
X96127309Y-36991053D01*
X96148750Y-36990000D01*
X96586250Y-36990000D01*
X96607691Y-36991053D01*
X96607691Y-36991053D01*
G37*
D11*
X96367500Y-37465000D03*
G04 #@! TD*
D10*
G04 #@! TO.C,R3*
G36*
X98182691Y-63661053D02*
X98203926Y-63664203D01*
X98224750Y-63669419D01*
X98244962Y-63676651D01*
X98264368Y-63685830D01*
X98282781Y-63696866D01*
X98300024Y-63709654D01*
X98315930Y-63724070D01*
X98330346Y-63739976D01*
X98343134Y-63757219D01*
X98354170Y-63775632D01*
X98363349Y-63795038D01*
X98370581Y-63815250D01*
X98375797Y-63836074D01*
X98378947Y-63857309D01*
X98380000Y-63878750D01*
X98380000Y-64391250D01*
X98378947Y-64412691D01*
X98375797Y-64433926D01*
X98370581Y-64454750D01*
X98363349Y-64474962D01*
X98354170Y-64494368D01*
X98343134Y-64512781D01*
X98330346Y-64530024D01*
X98315930Y-64545930D01*
X98300024Y-64560346D01*
X98282781Y-64573134D01*
X98264368Y-64584170D01*
X98244962Y-64593349D01*
X98224750Y-64600581D01*
X98203926Y-64605797D01*
X98182691Y-64608947D01*
X98161250Y-64610000D01*
X97723750Y-64610000D01*
X97702309Y-64608947D01*
X97681074Y-64605797D01*
X97660250Y-64600581D01*
X97640038Y-64593349D01*
X97620632Y-64584170D01*
X97602219Y-64573134D01*
X97584976Y-64560346D01*
X97569070Y-64545930D01*
X97554654Y-64530024D01*
X97541866Y-64512781D01*
X97530830Y-64494368D01*
X97521651Y-64474962D01*
X97514419Y-64454750D01*
X97509203Y-64433926D01*
X97506053Y-64412691D01*
X97505000Y-64391250D01*
X97505000Y-63878750D01*
X97506053Y-63857309D01*
X97509203Y-63836074D01*
X97514419Y-63815250D01*
X97521651Y-63795038D01*
X97530830Y-63775632D01*
X97541866Y-63757219D01*
X97554654Y-63739976D01*
X97569070Y-63724070D01*
X97584976Y-63709654D01*
X97602219Y-63696866D01*
X97620632Y-63685830D01*
X97640038Y-63676651D01*
X97660250Y-63669419D01*
X97681074Y-63664203D01*
X97702309Y-63661053D01*
X97723750Y-63660000D01*
X98161250Y-63660000D01*
X98182691Y-63661053D01*
X98182691Y-63661053D01*
G37*
D11*
X97942500Y-64135000D03*
D10*
G36*
X96607691Y-63661053D02*
X96628926Y-63664203D01*
X96649750Y-63669419D01*
X96669962Y-63676651D01*
X96689368Y-63685830D01*
X96707781Y-63696866D01*
X96725024Y-63709654D01*
X96740930Y-63724070D01*
X96755346Y-63739976D01*
X96768134Y-63757219D01*
X96779170Y-63775632D01*
X96788349Y-63795038D01*
X96795581Y-63815250D01*
X96800797Y-63836074D01*
X96803947Y-63857309D01*
X96805000Y-63878750D01*
X96805000Y-64391250D01*
X96803947Y-64412691D01*
X96800797Y-64433926D01*
X96795581Y-64454750D01*
X96788349Y-64474962D01*
X96779170Y-64494368D01*
X96768134Y-64512781D01*
X96755346Y-64530024D01*
X96740930Y-64545930D01*
X96725024Y-64560346D01*
X96707781Y-64573134D01*
X96689368Y-64584170D01*
X96669962Y-64593349D01*
X96649750Y-64600581D01*
X96628926Y-64605797D01*
X96607691Y-64608947D01*
X96586250Y-64610000D01*
X96148750Y-64610000D01*
X96127309Y-64608947D01*
X96106074Y-64605797D01*
X96085250Y-64600581D01*
X96065038Y-64593349D01*
X96045632Y-64584170D01*
X96027219Y-64573134D01*
X96009976Y-64560346D01*
X95994070Y-64545930D01*
X95979654Y-64530024D01*
X95966866Y-64512781D01*
X95955830Y-64494368D01*
X95946651Y-64474962D01*
X95939419Y-64454750D01*
X95934203Y-64433926D01*
X95931053Y-64412691D01*
X95930000Y-64391250D01*
X95930000Y-63878750D01*
X95931053Y-63857309D01*
X95934203Y-63836074D01*
X95939419Y-63815250D01*
X95946651Y-63795038D01*
X95955830Y-63775632D01*
X95966866Y-63757219D01*
X95979654Y-63739976D01*
X95994070Y-63724070D01*
X96009976Y-63709654D01*
X96027219Y-63696866D01*
X96045632Y-63685830D01*
X96065038Y-63676651D01*
X96085250Y-63669419D01*
X96106074Y-63664203D01*
X96127309Y-63661053D01*
X96148750Y-63660000D01*
X96586250Y-63660000D01*
X96607691Y-63661053D01*
X96607691Y-63661053D01*
G37*
D11*
X96367500Y-64135000D03*
G04 #@! TD*
D10*
G04 #@! TO.C,R2*
G36*
X89292691Y-36991053D02*
X89313926Y-36994203D01*
X89334750Y-36999419D01*
X89354962Y-37006651D01*
X89374368Y-37015830D01*
X89392781Y-37026866D01*
X89410024Y-37039654D01*
X89425930Y-37054070D01*
X89440346Y-37069976D01*
X89453134Y-37087219D01*
X89464170Y-37105632D01*
X89473349Y-37125038D01*
X89480581Y-37145250D01*
X89485797Y-37166074D01*
X89488947Y-37187309D01*
X89490000Y-37208750D01*
X89490000Y-37721250D01*
X89488947Y-37742691D01*
X89485797Y-37763926D01*
X89480581Y-37784750D01*
X89473349Y-37804962D01*
X89464170Y-37824368D01*
X89453134Y-37842781D01*
X89440346Y-37860024D01*
X89425930Y-37875930D01*
X89410024Y-37890346D01*
X89392781Y-37903134D01*
X89374368Y-37914170D01*
X89354962Y-37923349D01*
X89334750Y-37930581D01*
X89313926Y-37935797D01*
X89292691Y-37938947D01*
X89271250Y-37940000D01*
X88833750Y-37940000D01*
X88812309Y-37938947D01*
X88791074Y-37935797D01*
X88770250Y-37930581D01*
X88750038Y-37923349D01*
X88730632Y-37914170D01*
X88712219Y-37903134D01*
X88694976Y-37890346D01*
X88679070Y-37875930D01*
X88664654Y-37860024D01*
X88651866Y-37842781D01*
X88640830Y-37824368D01*
X88631651Y-37804962D01*
X88624419Y-37784750D01*
X88619203Y-37763926D01*
X88616053Y-37742691D01*
X88615000Y-37721250D01*
X88615000Y-37208750D01*
X88616053Y-37187309D01*
X88619203Y-37166074D01*
X88624419Y-37145250D01*
X88631651Y-37125038D01*
X88640830Y-37105632D01*
X88651866Y-37087219D01*
X88664654Y-37069976D01*
X88679070Y-37054070D01*
X88694976Y-37039654D01*
X88712219Y-37026866D01*
X88730632Y-37015830D01*
X88750038Y-37006651D01*
X88770250Y-36999419D01*
X88791074Y-36994203D01*
X88812309Y-36991053D01*
X88833750Y-36990000D01*
X89271250Y-36990000D01*
X89292691Y-36991053D01*
X89292691Y-36991053D01*
G37*
D11*
X89052500Y-37465000D03*
D10*
G36*
X87717691Y-36991053D02*
X87738926Y-36994203D01*
X87759750Y-36999419D01*
X87779962Y-37006651D01*
X87799368Y-37015830D01*
X87817781Y-37026866D01*
X87835024Y-37039654D01*
X87850930Y-37054070D01*
X87865346Y-37069976D01*
X87878134Y-37087219D01*
X87889170Y-37105632D01*
X87898349Y-37125038D01*
X87905581Y-37145250D01*
X87910797Y-37166074D01*
X87913947Y-37187309D01*
X87915000Y-37208750D01*
X87915000Y-37721250D01*
X87913947Y-37742691D01*
X87910797Y-37763926D01*
X87905581Y-37784750D01*
X87898349Y-37804962D01*
X87889170Y-37824368D01*
X87878134Y-37842781D01*
X87865346Y-37860024D01*
X87850930Y-37875930D01*
X87835024Y-37890346D01*
X87817781Y-37903134D01*
X87799368Y-37914170D01*
X87779962Y-37923349D01*
X87759750Y-37930581D01*
X87738926Y-37935797D01*
X87717691Y-37938947D01*
X87696250Y-37940000D01*
X87258750Y-37940000D01*
X87237309Y-37938947D01*
X87216074Y-37935797D01*
X87195250Y-37930581D01*
X87175038Y-37923349D01*
X87155632Y-37914170D01*
X87137219Y-37903134D01*
X87119976Y-37890346D01*
X87104070Y-37875930D01*
X87089654Y-37860024D01*
X87076866Y-37842781D01*
X87065830Y-37824368D01*
X87056651Y-37804962D01*
X87049419Y-37784750D01*
X87044203Y-37763926D01*
X87041053Y-37742691D01*
X87040000Y-37721250D01*
X87040000Y-37208750D01*
X87041053Y-37187309D01*
X87044203Y-37166074D01*
X87049419Y-37145250D01*
X87056651Y-37125038D01*
X87065830Y-37105632D01*
X87076866Y-37087219D01*
X87089654Y-37069976D01*
X87104070Y-37054070D01*
X87119976Y-37039654D01*
X87137219Y-37026866D01*
X87155632Y-37015830D01*
X87175038Y-37006651D01*
X87195250Y-36999419D01*
X87216074Y-36994203D01*
X87237309Y-36991053D01*
X87258750Y-36990000D01*
X87696250Y-36990000D01*
X87717691Y-36991053D01*
X87717691Y-36991053D01*
G37*
D11*
X87477500Y-37465000D03*
G04 #@! TD*
D10*
G04 #@! TO.C,R1*
G36*
X87717691Y-63661053D02*
X87738926Y-63664203D01*
X87759750Y-63669419D01*
X87779962Y-63676651D01*
X87799368Y-63685830D01*
X87817781Y-63696866D01*
X87835024Y-63709654D01*
X87850930Y-63724070D01*
X87865346Y-63739976D01*
X87878134Y-63757219D01*
X87889170Y-63775632D01*
X87898349Y-63795038D01*
X87905581Y-63815250D01*
X87910797Y-63836074D01*
X87913947Y-63857309D01*
X87915000Y-63878750D01*
X87915000Y-64391250D01*
X87913947Y-64412691D01*
X87910797Y-64433926D01*
X87905581Y-64454750D01*
X87898349Y-64474962D01*
X87889170Y-64494368D01*
X87878134Y-64512781D01*
X87865346Y-64530024D01*
X87850930Y-64545930D01*
X87835024Y-64560346D01*
X87817781Y-64573134D01*
X87799368Y-64584170D01*
X87779962Y-64593349D01*
X87759750Y-64600581D01*
X87738926Y-64605797D01*
X87717691Y-64608947D01*
X87696250Y-64610000D01*
X87258750Y-64610000D01*
X87237309Y-64608947D01*
X87216074Y-64605797D01*
X87195250Y-64600581D01*
X87175038Y-64593349D01*
X87155632Y-64584170D01*
X87137219Y-64573134D01*
X87119976Y-64560346D01*
X87104070Y-64545930D01*
X87089654Y-64530024D01*
X87076866Y-64512781D01*
X87065830Y-64494368D01*
X87056651Y-64474962D01*
X87049419Y-64454750D01*
X87044203Y-64433926D01*
X87041053Y-64412691D01*
X87040000Y-64391250D01*
X87040000Y-63878750D01*
X87041053Y-63857309D01*
X87044203Y-63836074D01*
X87049419Y-63815250D01*
X87056651Y-63795038D01*
X87065830Y-63775632D01*
X87076866Y-63757219D01*
X87089654Y-63739976D01*
X87104070Y-63724070D01*
X87119976Y-63709654D01*
X87137219Y-63696866D01*
X87155632Y-63685830D01*
X87175038Y-63676651D01*
X87195250Y-63669419D01*
X87216074Y-63664203D01*
X87237309Y-63661053D01*
X87258750Y-63660000D01*
X87696250Y-63660000D01*
X87717691Y-63661053D01*
X87717691Y-63661053D01*
G37*
D11*
X87477500Y-64135000D03*
D10*
G36*
X89292691Y-63661053D02*
X89313926Y-63664203D01*
X89334750Y-63669419D01*
X89354962Y-63676651D01*
X89374368Y-63685830D01*
X89392781Y-63696866D01*
X89410024Y-63709654D01*
X89425930Y-63724070D01*
X89440346Y-63739976D01*
X89453134Y-63757219D01*
X89464170Y-63775632D01*
X89473349Y-63795038D01*
X89480581Y-63815250D01*
X89485797Y-63836074D01*
X89488947Y-63857309D01*
X89490000Y-63878750D01*
X89490000Y-64391250D01*
X89488947Y-64412691D01*
X89485797Y-64433926D01*
X89480581Y-64454750D01*
X89473349Y-64474962D01*
X89464170Y-64494368D01*
X89453134Y-64512781D01*
X89440346Y-64530024D01*
X89425930Y-64545930D01*
X89410024Y-64560346D01*
X89392781Y-64573134D01*
X89374368Y-64584170D01*
X89354962Y-64593349D01*
X89334750Y-64600581D01*
X89313926Y-64605797D01*
X89292691Y-64608947D01*
X89271250Y-64610000D01*
X88833750Y-64610000D01*
X88812309Y-64608947D01*
X88791074Y-64605797D01*
X88770250Y-64600581D01*
X88750038Y-64593349D01*
X88730632Y-64584170D01*
X88712219Y-64573134D01*
X88694976Y-64560346D01*
X88679070Y-64545930D01*
X88664654Y-64530024D01*
X88651866Y-64512781D01*
X88640830Y-64494368D01*
X88631651Y-64474962D01*
X88624419Y-64454750D01*
X88619203Y-64433926D01*
X88616053Y-64412691D01*
X88615000Y-64391250D01*
X88615000Y-63878750D01*
X88616053Y-63857309D01*
X88619203Y-63836074D01*
X88624419Y-63815250D01*
X88631651Y-63795038D01*
X88640830Y-63775632D01*
X88651866Y-63757219D01*
X88664654Y-63739976D01*
X88679070Y-63724070D01*
X88694976Y-63709654D01*
X88712219Y-63696866D01*
X88730632Y-63685830D01*
X88750038Y-63676651D01*
X88770250Y-63669419D01*
X88791074Y-63664203D01*
X88812309Y-63661053D01*
X88833750Y-63660000D01*
X89271250Y-63660000D01*
X89292691Y-63661053D01*
X89292691Y-63661053D01*
G37*
D11*
X89052500Y-64135000D03*
G04 #@! TD*
D10*
G04 #@! TO.C,R5*
G36*
X89292691Y-69376053D02*
X89313926Y-69379203D01*
X89334750Y-69384419D01*
X89354962Y-69391651D01*
X89374368Y-69400830D01*
X89392781Y-69411866D01*
X89410024Y-69424654D01*
X89425930Y-69439070D01*
X89440346Y-69454976D01*
X89453134Y-69472219D01*
X89464170Y-69490632D01*
X89473349Y-69510038D01*
X89480581Y-69530250D01*
X89485797Y-69551074D01*
X89488947Y-69572309D01*
X89490000Y-69593750D01*
X89490000Y-70106250D01*
X89488947Y-70127691D01*
X89485797Y-70148926D01*
X89480581Y-70169750D01*
X89473349Y-70189962D01*
X89464170Y-70209368D01*
X89453134Y-70227781D01*
X89440346Y-70245024D01*
X89425930Y-70260930D01*
X89410024Y-70275346D01*
X89392781Y-70288134D01*
X89374368Y-70299170D01*
X89354962Y-70308349D01*
X89334750Y-70315581D01*
X89313926Y-70320797D01*
X89292691Y-70323947D01*
X89271250Y-70325000D01*
X88833750Y-70325000D01*
X88812309Y-70323947D01*
X88791074Y-70320797D01*
X88770250Y-70315581D01*
X88750038Y-70308349D01*
X88730632Y-70299170D01*
X88712219Y-70288134D01*
X88694976Y-70275346D01*
X88679070Y-70260930D01*
X88664654Y-70245024D01*
X88651866Y-70227781D01*
X88640830Y-70209368D01*
X88631651Y-70189962D01*
X88624419Y-70169750D01*
X88619203Y-70148926D01*
X88616053Y-70127691D01*
X88615000Y-70106250D01*
X88615000Y-69593750D01*
X88616053Y-69572309D01*
X88619203Y-69551074D01*
X88624419Y-69530250D01*
X88631651Y-69510038D01*
X88640830Y-69490632D01*
X88651866Y-69472219D01*
X88664654Y-69454976D01*
X88679070Y-69439070D01*
X88694976Y-69424654D01*
X88712219Y-69411866D01*
X88730632Y-69400830D01*
X88750038Y-69391651D01*
X88770250Y-69384419D01*
X88791074Y-69379203D01*
X88812309Y-69376053D01*
X88833750Y-69375000D01*
X89271250Y-69375000D01*
X89292691Y-69376053D01*
X89292691Y-69376053D01*
G37*
D11*
X89052500Y-69850000D03*
D10*
G36*
X87717691Y-69376053D02*
X87738926Y-69379203D01*
X87759750Y-69384419D01*
X87779962Y-69391651D01*
X87799368Y-69400830D01*
X87817781Y-69411866D01*
X87835024Y-69424654D01*
X87850930Y-69439070D01*
X87865346Y-69454976D01*
X87878134Y-69472219D01*
X87889170Y-69490632D01*
X87898349Y-69510038D01*
X87905581Y-69530250D01*
X87910797Y-69551074D01*
X87913947Y-69572309D01*
X87915000Y-69593750D01*
X87915000Y-70106250D01*
X87913947Y-70127691D01*
X87910797Y-70148926D01*
X87905581Y-70169750D01*
X87898349Y-70189962D01*
X87889170Y-70209368D01*
X87878134Y-70227781D01*
X87865346Y-70245024D01*
X87850930Y-70260930D01*
X87835024Y-70275346D01*
X87817781Y-70288134D01*
X87799368Y-70299170D01*
X87779962Y-70308349D01*
X87759750Y-70315581D01*
X87738926Y-70320797D01*
X87717691Y-70323947D01*
X87696250Y-70325000D01*
X87258750Y-70325000D01*
X87237309Y-70323947D01*
X87216074Y-70320797D01*
X87195250Y-70315581D01*
X87175038Y-70308349D01*
X87155632Y-70299170D01*
X87137219Y-70288134D01*
X87119976Y-70275346D01*
X87104070Y-70260930D01*
X87089654Y-70245024D01*
X87076866Y-70227781D01*
X87065830Y-70209368D01*
X87056651Y-70189962D01*
X87049419Y-70169750D01*
X87044203Y-70148926D01*
X87041053Y-70127691D01*
X87040000Y-70106250D01*
X87040000Y-69593750D01*
X87041053Y-69572309D01*
X87044203Y-69551074D01*
X87049419Y-69530250D01*
X87056651Y-69510038D01*
X87065830Y-69490632D01*
X87076866Y-69472219D01*
X87089654Y-69454976D01*
X87104070Y-69439070D01*
X87119976Y-69424654D01*
X87137219Y-69411866D01*
X87155632Y-69400830D01*
X87175038Y-69391651D01*
X87195250Y-69384419D01*
X87216074Y-69379203D01*
X87237309Y-69376053D01*
X87258750Y-69375000D01*
X87696250Y-69375000D01*
X87717691Y-69376053D01*
X87717691Y-69376053D01*
G37*
D11*
X87477500Y-69850000D03*
G04 #@! TD*
D10*
G04 #@! TO.C,R7*
G36*
X98182691Y-69376053D02*
X98203926Y-69379203D01*
X98224750Y-69384419D01*
X98244962Y-69391651D01*
X98264368Y-69400830D01*
X98282781Y-69411866D01*
X98300024Y-69424654D01*
X98315930Y-69439070D01*
X98330346Y-69454976D01*
X98343134Y-69472219D01*
X98354170Y-69490632D01*
X98363349Y-69510038D01*
X98370581Y-69530250D01*
X98375797Y-69551074D01*
X98378947Y-69572309D01*
X98380000Y-69593750D01*
X98380000Y-70106250D01*
X98378947Y-70127691D01*
X98375797Y-70148926D01*
X98370581Y-70169750D01*
X98363349Y-70189962D01*
X98354170Y-70209368D01*
X98343134Y-70227781D01*
X98330346Y-70245024D01*
X98315930Y-70260930D01*
X98300024Y-70275346D01*
X98282781Y-70288134D01*
X98264368Y-70299170D01*
X98244962Y-70308349D01*
X98224750Y-70315581D01*
X98203926Y-70320797D01*
X98182691Y-70323947D01*
X98161250Y-70325000D01*
X97723750Y-70325000D01*
X97702309Y-70323947D01*
X97681074Y-70320797D01*
X97660250Y-70315581D01*
X97640038Y-70308349D01*
X97620632Y-70299170D01*
X97602219Y-70288134D01*
X97584976Y-70275346D01*
X97569070Y-70260930D01*
X97554654Y-70245024D01*
X97541866Y-70227781D01*
X97530830Y-70209368D01*
X97521651Y-70189962D01*
X97514419Y-70169750D01*
X97509203Y-70148926D01*
X97506053Y-70127691D01*
X97505000Y-70106250D01*
X97505000Y-69593750D01*
X97506053Y-69572309D01*
X97509203Y-69551074D01*
X97514419Y-69530250D01*
X97521651Y-69510038D01*
X97530830Y-69490632D01*
X97541866Y-69472219D01*
X97554654Y-69454976D01*
X97569070Y-69439070D01*
X97584976Y-69424654D01*
X97602219Y-69411866D01*
X97620632Y-69400830D01*
X97640038Y-69391651D01*
X97660250Y-69384419D01*
X97681074Y-69379203D01*
X97702309Y-69376053D01*
X97723750Y-69375000D01*
X98161250Y-69375000D01*
X98182691Y-69376053D01*
X98182691Y-69376053D01*
G37*
D11*
X97942500Y-69850000D03*
D10*
G36*
X96607691Y-69376053D02*
X96628926Y-69379203D01*
X96649750Y-69384419D01*
X96669962Y-69391651D01*
X96689368Y-69400830D01*
X96707781Y-69411866D01*
X96725024Y-69424654D01*
X96740930Y-69439070D01*
X96755346Y-69454976D01*
X96768134Y-69472219D01*
X96779170Y-69490632D01*
X96788349Y-69510038D01*
X96795581Y-69530250D01*
X96800797Y-69551074D01*
X96803947Y-69572309D01*
X96805000Y-69593750D01*
X96805000Y-70106250D01*
X96803947Y-70127691D01*
X96800797Y-70148926D01*
X96795581Y-70169750D01*
X96788349Y-70189962D01*
X96779170Y-70209368D01*
X96768134Y-70227781D01*
X96755346Y-70245024D01*
X96740930Y-70260930D01*
X96725024Y-70275346D01*
X96707781Y-70288134D01*
X96689368Y-70299170D01*
X96669962Y-70308349D01*
X96649750Y-70315581D01*
X96628926Y-70320797D01*
X96607691Y-70323947D01*
X96586250Y-70325000D01*
X96148750Y-70325000D01*
X96127309Y-70323947D01*
X96106074Y-70320797D01*
X96085250Y-70315581D01*
X96065038Y-70308349D01*
X96045632Y-70299170D01*
X96027219Y-70288134D01*
X96009976Y-70275346D01*
X95994070Y-70260930D01*
X95979654Y-70245024D01*
X95966866Y-70227781D01*
X95955830Y-70209368D01*
X95946651Y-70189962D01*
X95939419Y-70169750D01*
X95934203Y-70148926D01*
X95931053Y-70127691D01*
X95930000Y-70106250D01*
X95930000Y-69593750D01*
X95931053Y-69572309D01*
X95934203Y-69551074D01*
X95939419Y-69530250D01*
X95946651Y-69510038D01*
X95955830Y-69490632D01*
X95966866Y-69472219D01*
X95979654Y-69454976D01*
X95994070Y-69439070D01*
X96009976Y-69424654D01*
X96027219Y-69411866D01*
X96045632Y-69400830D01*
X96065038Y-69391651D01*
X96085250Y-69384419D01*
X96106074Y-69379203D01*
X96127309Y-69376053D01*
X96148750Y-69375000D01*
X96586250Y-69375000D01*
X96607691Y-69376053D01*
X96607691Y-69376053D01*
G37*
D11*
X96367500Y-69850000D03*
G04 #@! TD*
D10*
G04 #@! TO.C,R8*
G36*
X98182691Y-42706053D02*
X98203926Y-42709203D01*
X98224750Y-42714419D01*
X98244962Y-42721651D01*
X98264368Y-42730830D01*
X98282781Y-42741866D01*
X98300024Y-42754654D01*
X98315930Y-42769070D01*
X98330346Y-42784976D01*
X98343134Y-42802219D01*
X98354170Y-42820632D01*
X98363349Y-42840038D01*
X98370581Y-42860250D01*
X98375797Y-42881074D01*
X98378947Y-42902309D01*
X98380000Y-42923750D01*
X98380000Y-43436250D01*
X98378947Y-43457691D01*
X98375797Y-43478926D01*
X98370581Y-43499750D01*
X98363349Y-43519962D01*
X98354170Y-43539368D01*
X98343134Y-43557781D01*
X98330346Y-43575024D01*
X98315930Y-43590930D01*
X98300024Y-43605346D01*
X98282781Y-43618134D01*
X98264368Y-43629170D01*
X98244962Y-43638349D01*
X98224750Y-43645581D01*
X98203926Y-43650797D01*
X98182691Y-43653947D01*
X98161250Y-43655000D01*
X97723750Y-43655000D01*
X97702309Y-43653947D01*
X97681074Y-43650797D01*
X97660250Y-43645581D01*
X97640038Y-43638349D01*
X97620632Y-43629170D01*
X97602219Y-43618134D01*
X97584976Y-43605346D01*
X97569070Y-43590930D01*
X97554654Y-43575024D01*
X97541866Y-43557781D01*
X97530830Y-43539368D01*
X97521651Y-43519962D01*
X97514419Y-43499750D01*
X97509203Y-43478926D01*
X97506053Y-43457691D01*
X97505000Y-43436250D01*
X97505000Y-42923750D01*
X97506053Y-42902309D01*
X97509203Y-42881074D01*
X97514419Y-42860250D01*
X97521651Y-42840038D01*
X97530830Y-42820632D01*
X97541866Y-42802219D01*
X97554654Y-42784976D01*
X97569070Y-42769070D01*
X97584976Y-42754654D01*
X97602219Y-42741866D01*
X97620632Y-42730830D01*
X97640038Y-42721651D01*
X97660250Y-42714419D01*
X97681074Y-42709203D01*
X97702309Y-42706053D01*
X97723750Y-42705000D01*
X98161250Y-42705000D01*
X98182691Y-42706053D01*
X98182691Y-42706053D01*
G37*
D11*
X97942500Y-43180000D03*
D10*
G36*
X96607691Y-42706053D02*
X96628926Y-42709203D01*
X96649750Y-42714419D01*
X96669962Y-42721651D01*
X96689368Y-42730830D01*
X96707781Y-42741866D01*
X96725024Y-42754654D01*
X96740930Y-42769070D01*
X96755346Y-42784976D01*
X96768134Y-42802219D01*
X96779170Y-42820632D01*
X96788349Y-42840038D01*
X96795581Y-42860250D01*
X96800797Y-42881074D01*
X96803947Y-42902309D01*
X96805000Y-42923750D01*
X96805000Y-43436250D01*
X96803947Y-43457691D01*
X96800797Y-43478926D01*
X96795581Y-43499750D01*
X96788349Y-43519962D01*
X96779170Y-43539368D01*
X96768134Y-43557781D01*
X96755346Y-43575024D01*
X96740930Y-43590930D01*
X96725024Y-43605346D01*
X96707781Y-43618134D01*
X96689368Y-43629170D01*
X96669962Y-43638349D01*
X96649750Y-43645581D01*
X96628926Y-43650797D01*
X96607691Y-43653947D01*
X96586250Y-43655000D01*
X96148750Y-43655000D01*
X96127309Y-43653947D01*
X96106074Y-43650797D01*
X96085250Y-43645581D01*
X96065038Y-43638349D01*
X96045632Y-43629170D01*
X96027219Y-43618134D01*
X96009976Y-43605346D01*
X95994070Y-43590930D01*
X95979654Y-43575024D01*
X95966866Y-43557781D01*
X95955830Y-43539368D01*
X95946651Y-43519962D01*
X95939419Y-43499750D01*
X95934203Y-43478926D01*
X95931053Y-43457691D01*
X95930000Y-43436250D01*
X95930000Y-42923750D01*
X95931053Y-42902309D01*
X95934203Y-42881074D01*
X95939419Y-42860250D01*
X95946651Y-42840038D01*
X95955830Y-42820632D01*
X95966866Y-42802219D01*
X95979654Y-42784976D01*
X95994070Y-42769070D01*
X96009976Y-42754654D01*
X96027219Y-42741866D01*
X96045632Y-42730830D01*
X96065038Y-42721651D01*
X96085250Y-42714419D01*
X96106074Y-42709203D01*
X96127309Y-42706053D01*
X96148750Y-42705000D01*
X96586250Y-42705000D01*
X96607691Y-42706053D01*
X96607691Y-42706053D01*
G37*
D11*
X96367500Y-43180000D03*
G04 #@! TD*
D10*
G04 #@! TO.C,R9*
G36*
X87717691Y-71281053D02*
X87738926Y-71284203D01*
X87759750Y-71289419D01*
X87779962Y-71296651D01*
X87799368Y-71305830D01*
X87817781Y-71316866D01*
X87835024Y-71329654D01*
X87850930Y-71344070D01*
X87865346Y-71359976D01*
X87878134Y-71377219D01*
X87889170Y-71395632D01*
X87898349Y-71415038D01*
X87905581Y-71435250D01*
X87910797Y-71456074D01*
X87913947Y-71477309D01*
X87915000Y-71498750D01*
X87915000Y-72011250D01*
X87913947Y-72032691D01*
X87910797Y-72053926D01*
X87905581Y-72074750D01*
X87898349Y-72094962D01*
X87889170Y-72114368D01*
X87878134Y-72132781D01*
X87865346Y-72150024D01*
X87850930Y-72165930D01*
X87835024Y-72180346D01*
X87817781Y-72193134D01*
X87799368Y-72204170D01*
X87779962Y-72213349D01*
X87759750Y-72220581D01*
X87738926Y-72225797D01*
X87717691Y-72228947D01*
X87696250Y-72230000D01*
X87258750Y-72230000D01*
X87237309Y-72228947D01*
X87216074Y-72225797D01*
X87195250Y-72220581D01*
X87175038Y-72213349D01*
X87155632Y-72204170D01*
X87137219Y-72193134D01*
X87119976Y-72180346D01*
X87104070Y-72165930D01*
X87089654Y-72150024D01*
X87076866Y-72132781D01*
X87065830Y-72114368D01*
X87056651Y-72094962D01*
X87049419Y-72074750D01*
X87044203Y-72053926D01*
X87041053Y-72032691D01*
X87040000Y-72011250D01*
X87040000Y-71498750D01*
X87041053Y-71477309D01*
X87044203Y-71456074D01*
X87049419Y-71435250D01*
X87056651Y-71415038D01*
X87065830Y-71395632D01*
X87076866Y-71377219D01*
X87089654Y-71359976D01*
X87104070Y-71344070D01*
X87119976Y-71329654D01*
X87137219Y-71316866D01*
X87155632Y-71305830D01*
X87175038Y-71296651D01*
X87195250Y-71289419D01*
X87216074Y-71284203D01*
X87237309Y-71281053D01*
X87258750Y-71280000D01*
X87696250Y-71280000D01*
X87717691Y-71281053D01*
X87717691Y-71281053D01*
G37*
D11*
X87477500Y-71755000D03*
D10*
G36*
X89292691Y-71281053D02*
X89313926Y-71284203D01*
X89334750Y-71289419D01*
X89354962Y-71296651D01*
X89374368Y-71305830D01*
X89392781Y-71316866D01*
X89410024Y-71329654D01*
X89425930Y-71344070D01*
X89440346Y-71359976D01*
X89453134Y-71377219D01*
X89464170Y-71395632D01*
X89473349Y-71415038D01*
X89480581Y-71435250D01*
X89485797Y-71456074D01*
X89488947Y-71477309D01*
X89490000Y-71498750D01*
X89490000Y-72011250D01*
X89488947Y-72032691D01*
X89485797Y-72053926D01*
X89480581Y-72074750D01*
X89473349Y-72094962D01*
X89464170Y-72114368D01*
X89453134Y-72132781D01*
X89440346Y-72150024D01*
X89425930Y-72165930D01*
X89410024Y-72180346D01*
X89392781Y-72193134D01*
X89374368Y-72204170D01*
X89354962Y-72213349D01*
X89334750Y-72220581D01*
X89313926Y-72225797D01*
X89292691Y-72228947D01*
X89271250Y-72230000D01*
X88833750Y-72230000D01*
X88812309Y-72228947D01*
X88791074Y-72225797D01*
X88770250Y-72220581D01*
X88750038Y-72213349D01*
X88730632Y-72204170D01*
X88712219Y-72193134D01*
X88694976Y-72180346D01*
X88679070Y-72165930D01*
X88664654Y-72150024D01*
X88651866Y-72132781D01*
X88640830Y-72114368D01*
X88631651Y-72094962D01*
X88624419Y-72074750D01*
X88619203Y-72053926D01*
X88616053Y-72032691D01*
X88615000Y-72011250D01*
X88615000Y-71498750D01*
X88616053Y-71477309D01*
X88619203Y-71456074D01*
X88624419Y-71435250D01*
X88631651Y-71415038D01*
X88640830Y-71395632D01*
X88651866Y-71377219D01*
X88664654Y-71359976D01*
X88679070Y-71344070D01*
X88694976Y-71329654D01*
X88712219Y-71316866D01*
X88730632Y-71305830D01*
X88750038Y-71296651D01*
X88770250Y-71289419D01*
X88791074Y-71284203D01*
X88812309Y-71281053D01*
X88833750Y-71280000D01*
X89271250Y-71280000D01*
X89292691Y-71281053D01*
X89292691Y-71281053D01*
G37*
D11*
X89052500Y-71755000D03*
G04 #@! TD*
D10*
G04 #@! TO.C,R10*
G36*
X89292691Y-44611053D02*
X89313926Y-44614203D01*
X89334750Y-44619419D01*
X89354962Y-44626651D01*
X89374368Y-44635830D01*
X89392781Y-44646866D01*
X89410024Y-44659654D01*
X89425930Y-44674070D01*
X89440346Y-44689976D01*
X89453134Y-44707219D01*
X89464170Y-44725632D01*
X89473349Y-44745038D01*
X89480581Y-44765250D01*
X89485797Y-44786074D01*
X89488947Y-44807309D01*
X89490000Y-44828750D01*
X89490000Y-45341250D01*
X89488947Y-45362691D01*
X89485797Y-45383926D01*
X89480581Y-45404750D01*
X89473349Y-45424962D01*
X89464170Y-45444368D01*
X89453134Y-45462781D01*
X89440346Y-45480024D01*
X89425930Y-45495930D01*
X89410024Y-45510346D01*
X89392781Y-45523134D01*
X89374368Y-45534170D01*
X89354962Y-45543349D01*
X89334750Y-45550581D01*
X89313926Y-45555797D01*
X89292691Y-45558947D01*
X89271250Y-45560000D01*
X88833750Y-45560000D01*
X88812309Y-45558947D01*
X88791074Y-45555797D01*
X88770250Y-45550581D01*
X88750038Y-45543349D01*
X88730632Y-45534170D01*
X88712219Y-45523134D01*
X88694976Y-45510346D01*
X88679070Y-45495930D01*
X88664654Y-45480024D01*
X88651866Y-45462781D01*
X88640830Y-45444368D01*
X88631651Y-45424962D01*
X88624419Y-45404750D01*
X88619203Y-45383926D01*
X88616053Y-45362691D01*
X88615000Y-45341250D01*
X88615000Y-44828750D01*
X88616053Y-44807309D01*
X88619203Y-44786074D01*
X88624419Y-44765250D01*
X88631651Y-44745038D01*
X88640830Y-44725632D01*
X88651866Y-44707219D01*
X88664654Y-44689976D01*
X88679070Y-44674070D01*
X88694976Y-44659654D01*
X88712219Y-44646866D01*
X88730632Y-44635830D01*
X88750038Y-44626651D01*
X88770250Y-44619419D01*
X88791074Y-44614203D01*
X88812309Y-44611053D01*
X88833750Y-44610000D01*
X89271250Y-44610000D01*
X89292691Y-44611053D01*
X89292691Y-44611053D01*
G37*
D11*
X89052500Y-45085000D03*
D10*
G36*
X87717691Y-44611053D02*
X87738926Y-44614203D01*
X87759750Y-44619419D01*
X87779962Y-44626651D01*
X87799368Y-44635830D01*
X87817781Y-44646866D01*
X87835024Y-44659654D01*
X87850930Y-44674070D01*
X87865346Y-44689976D01*
X87878134Y-44707219D01*
X87889170Y-44725632D01*
X87898349Y-44745038D01*
X87905581Y-44765250D01*
X87910797Y-44786074D01*
X87913947Y-44807309D01*
X87915000Y-44828750D01*
X87915000Y-45341250D01*
X87913947Y-45362691D01*
X87910797Y-45383926D01*
X87905581Y-45404750D01*
X87898349Y-45424962D01*
X87889170Y-45444368D01*
X87878134Y-45462781D01*
X87865346Y-45480024D01*
X87850930Y-45495930D01*
X87835024Y-45510346D01*
X87817781Y-45523134D01*
X87799368Y-45534170D01*
X87779962Y-45543349D01*
X87759750Y-45550581D01*
X87738926Y-45555797D01*
X87717691Y-45558947D01*
X87696250Y-45560000D01*
X87258750Y-45560000D01*
X87237309Y-45558947D01*
X87216074Y-45555797D01*
X87195250Y-45550581D01*
X87175038Y-45543349D01*
X87155632Y-45534170D01*
X87137219Y-45523134D01*
X87119976Y-45510346D01*
X87104070Y-45495930D01*
X87089654Y-45480024D01*
X87076866Y-45462781D01*
X87065830Y-45444368D01*
X87056651Y-45424962D01*
X87049419Y-45404750D01*
X87044203Y-45383926D01*
X87041053Y-45362691D01*
X87040000Y-45341250D01*
X87040000Y-44828750D01*
X87041053Y-44807309D01*
X87044203Y-44786074D01*
X87049419Y-44765250D01*
X87056651Y-44745038D01*
X87065830Y-44725632D01*
X87076866Y-44707219D01*
X87089654Y-44689976D01*
X87104070Y-44674070D01*
X87119976Y-44659654D01*
X87137219Y-44646866D01*
X87155632Y-44635830D01*
X87175038Y-44626651D01*
X87195250Y-44619419D01*
X87216074Y-44614203D01*
X87237309Y-44611053D01*
X87258750Y-44610000D01*
X87696250Y-44610000D01*
X87717691Y-44611053D01*
X87717691Y-44611053D01*
G37*
D11*
X87477500Y-45085000D03*
G04 #@! TD*
D10*
G04 #@! TO.C,R11*
G36*
X98182691Y-71281053D02*
X98203926Y-71284203D01*
X98224750Y-71289419D01*
X98244962Y-71296651D01*
X98264368Y-71305830D01*
X98282781Y-71316866D01*
X98300024Y-71329654D01*
X98315930Y-71344070D01*
X98330346Y-71359976D01*
X98343134Y-71377219D01*
X98354170Y-71395632D01*
X98363349Y-71415038D01*
X98370581Y-71435250D01*
X98375797Y-71456074D01*
X98378947Y-71477309D01*
X98380000Y-71498750D01*
X98380000Y-72011250D01*
X98378947Y-72032691D01*
X98375797Y-72053926D01*
X98370581Y-72074750D01*
X98363349Y-72094962D01*
X98354170Y-72114368D01*
X98343134Y-72132781D01*
X98330346Y-72150024D01*
X98315930Y-72165930D01*
X98300024Y-72180346D01*
X98282781Y-72193134D01*
X98264368Y-72204170D01*
X98244962Y-72213349D01*
X98224750Y-72220581D01*
X98203926Y-72225797D01*
X98182691Y-72228947D01*
X98161250Y-72230000D01*
X97723750Y-72230000D01*
X97702309Y-72228947D01*
X97681074Y-72225797D01*
X97660250Y-72220581D01*
X97640038Y-72213349D01*
X97620632Y-72204170D01*
X97602219Y-72193134D01*
X97584976Y-72180346D01*
X97569070Y-72165930D01*
X97554654Y-72150024D01*
X97541866Y-72132781D01*
X97530830Y-72114368D01*
X97521651Y-72094962D01*
X97514419Y-72074750D01*
X97509203Y-72053926D01*
X97506053Y-72032691D01*
X97505000Y-72011250D01*
X97505000Y-71498750D01*
X97506053Y-71477309D01*
X97509203Y-71456074D01*
X97514419Y-71435250D01*
X97521651Y-71415038D01*
X97530830Y-71395632D01*
X97541866Y-71377219D01*
X97554654Y-71359976D01*
X97569070Y-71344070D01*
X97584976Y-71329654D01*
X97602219Y-71316866D01*
X97620632Y-71305830D01*
X97640038Y-71296651D01*
X97660250Y-71289419D01*
X97681074Y-71284203D01*
X97702309Y-71281053D01*
X97723750Y-71280000D01*
X98161250Y-71280000D01*
X98182691Y-71281053D01*
X98182691Y-71281053D01*
G37*
D11*
X97942500Y-71755000D03*
D10*
G36*
X96607691Y-71281053D02*
X96628926Y-71284203D01*
X96649750Y-71289419D01*
X96669962Y-71296651D01*
X96689368Y-71305830D01*
X96707781Y-71316866D01*
X96725024Y-71329654D01*
X96740930Y-71344070D01*
X96755346Y-71359976D01*
X96768134Y-71377219D01*
X96779170Y-71395632D01*
X96788349Y-71415038D01*
X96795581Y-71435250D01*
X96800797Y-71456074D01*
X96803947Y-71477309D01*
X96805000Y-71498750D01*
X96805000Y-72011250D01*
X96803947Y-72032691D01*
X96800797Y-72053926D01*
X96795581Y-72074750D01*
X96788349Y-72094962D01*
X96779170Y-72114368D01*
X96768134Y-72132781D01*
X96755346Y-72150024D01*
X96740930Y-72165930D01*
X96725024Y-72180346D01*
X96707781Y-72193134D01*
X96689368Y-72204170D01*
X96669962Y-72213349D01*
X96649750Y-72220581D01*
X96628926Y-72225797D01*
X96607691Y-72228947D01*
X96586250Y-72230000D01*
X96148750Y-72230000D01*
X96127309Y-72228947D01*
X96106074Y-72225797D01*
X96085250Y-72220581D01*
X96065038Y-72213349D01*
X96045632Y-72204170D01*
X96027219Y-72193134D01*
X96009976Y-72180346D01*
X95994070Y-72165930D01*
X95979654Y-72150024D01*
X95966866Y-72132781D01*
X95955830Y-72114368D01*
X95946651Y-72094962D01*
X95939419Y-72074750D01*
X95934203Y-72053926D01*
X95931053Y-72032691D01*
X95930000Y-72011250D01*
X95930000Y-71498750D01*
X95931053Y-71477309D01*
X95934203Y-71456074D01*
X95939419Y-71435250D01*
X95946651Y-71415038D01*
X95955830Y-71395632D01*
X95966866Y-71377219D01*
X95979654Y-71359976D01*
X95994070Y-71344070D01*
X96009976Y-71329654D01*
X96027219Y-71316866D01*
X96045632Y-71305830D01*
X96065038Y-71296651D01*
X96085250Y-71289419D01*
X96106074Y-71284203D01*
X96127309Y-71281053D01*
X96148750Y-71280000D01*
X96586250Y-71280000D01*
X96607691Y-71281053D01*
X96607691Y-71281053D01*
G37*
D11*
X96367500Y-71755000D03*
G04 #@! TD*
D10*
G04 #@! TO.C,R12*
G36*
X98182691Y-44611053D02*
X98203926Y-44614203D01*
X98224750Y-44619419D01*
X98244962Y-44626651D01*
X98264368Y-44635830D01*
X98282781Y-44646866D01*
X98300024Y-44659654D01*
X98315930Y-44674070D01*
X98330346Y-44689976D01*
X98343134Y-44707219D01*
X98354170Y-44725632D01*
X98363349Y-44745038D01*
X98370581Y-44765250D01*
X98375797Y-44786074D01*
X98378947Y-44807309D01*
X98380000Y-44828750D01*
X98380000Y-45341250D01*
X98378947Y-45362691D01*
X98375797Y-45383926D01*
X98370581Y-45404750D01*
X98363349Y-45424962D01*
X98354170Y-45444368D01*
X98343134Y-45462781D01*
X98330346Y-45480024D01*
X98315930Y-45495930D01*
X98300024Y-45510346D01*
X98282781Y-45523134D01*
X98264368Y-45534170D01*
X98244962Y-45543349D01*
X98224750Y-45550581D01*
X98203926Y-45555797D01*
X98182691Y-45558947D01*
X98161250Y-45560000D01*
X97723750Y-45560000D01*
X97702309Y-45558947D01*
X97681074Y-45555797D01*
X97660250Y-45550581D01*
X97640038Y-45543349D01*
X97620632Y-45534170D01*
X97602219Y-45523134D01*
X97584976Y-45510346D01*
X97569070Y-45495930D01*
X97554654Y-45480024D01*
X97541866Y-45462781D01*
X97530830Y-45444368D01*
X97521651Y-45424962D01*
X97514419Y-45404750D01*
X97509203Y-45383926D01*
X97506053Y-45362691D01*
X97505000Y-45341250D01*
X97505000Y-44828750D01*
X97506053Y-44807309D01*
X97509203Y-44786074D01*
X97514419Y-44765250D01*
X97521651Y-44745038D01*
X97530830Y-44725632D01*
X97541866Y-44707219D01*
X97554654Y-44689976D01*
X97569070Y-44674070D01*
X97584976Y-44659654D01*
X97602219Y-44646866D01*
X97620632Y-44635830D01*
X97640038Y-44626651D01*
X97660250Y-44619419D01*
X97681074Y-44614203D01*
X97702309Y-44611053D01*
X97723750Y-44610000D01*
X98161250Y-44610000D01*
X98182691Y-44611053D01*
X98182691Y-44611053D01*
G37*
D11*
X97942500Y-45085000D03*
D10*
G36*
X96607691Y-44611053D02*
X96628926Y-44614203D01*
X96649750Y-44619419D01*
X96669962Y-44626651D01*
X96689368Y-44635830D01*
X96707781Y-44646866D01*
X96725024Y-44659654D01*
X96740930Y-44674070D01*
X96755346Y-44689976D01*
X96768134Y-44707219D01*
X96779170Y-44725632D01*
X96788349Y-44745038D01*
X96795581Y-44765250D01*
X96800797Y-44786074D01*
X96803947Y-44807309D01*
X96805000Y-44828750D01*
X96805000Y-45341250D01*
X96803947Y-45362691D01*
X96800797Y-45383926D01*
X96795581Y-45404750D01*
X96788349Y-45424962D01*
X96779170Y-45444368D01*
X96768134Y-45462781D01*
X96755346Y-45480024D01*
X96740930Y-45495930D01*
X96725024Y-45510346D01*
X96707781Y-45523134D01*
X96689368Y-45534170D01*
X96669962Y-45543349D01*
X96649750Y-45550581D01*
X96628926Y-45555797D01*
X96607691Y-45558947D01*
X96586250Y-45560000D01*
X96148750Y-45560000D01*
X96127309Y-45558947D01*
X96106074Y-45555797D01*
X96085250Y-45550581D01*
X96065038Y-45543349D01*
X96045632Y-45534170D01*
X96027219Y-45523134D01*
X96009976Y-45510346D01*
X95994070Y-45495930D01*
X95979654Y-45480024D01*
X95966866Y-45462781D01*
X95955830Y-45444368D01*
X95946651Y-45424962D01*
X95939419Y-45404750D01*
X95934203Y-45383926D01*
X95931053Y-45362691D01*
X95930000Y-45341250D01*
X95930000Y-44828750D01*
X95931053Y-44807309D01*
X95934203Y-44786074D01*
X95939419Y-44765250D01*
X95946651Y-44745038D01*
X95955830Y-44725632D01*
X95966866Y-44707219D01*
X95979654Y-44689976D01*
X95994070Y-44674070D01*
X96009976Y-44659654D01*
X96027219Y-44646866D01*
X96045632Y-44635830D01*
X96065038Y-44626651D01*
X96085250Y-44619419D01*
X96106074Y-44614203D01*
X96127309Y-44611053D01*
X96148750Y-44610000D01*
X96586250Y-44610000D01*
X96607691Y-44611053D01*
X96607691Y-44611053D01*
G37*
D11*
X96367500Y-45085000D03*
G04 #@! TD*
D10*
G04 #@! TO.C,C1*
G36*
X87717691Y-50326053D02*
X87738926Y-50329203D01*
X87759750Y-50334419D01*
X87779962Y-50341651D01*
X87799368Y-50350830D01*
X87817781Y-50361866D01*
X87835024Y-50374654D01*
X87850930Y-50389070D01*
X87865346Y-50404976D01*
X87878134Y-50422219D01*
X87889170Y-50440632D01*
X87898349Y-50460038D01*
X87905581Y-50480250D01*
X87910797Y-50501074D01*
X87913947Y-50522309D01*
X87915000Y-50543750D01*
X87915000Y-51056250D01*
X87913947Y-51077691D01*
X87910797Y-51098926D01*
X87905581Y-51119750D01*
X87898349Y-51139962D01*
X87889170Y-51159368D01*
X87878134Y-51177781D01*
X87865346Y-51195024D01*
X87850930Y-51210930D01*
X87835024Y-51225346D01*
X87817781Y-51238134D01*
X87799368Y-51249170D01*
X87779962Y-51258349D01*
X87759750Y-51265581D01*
X87738926Y-51270797D01*
X87717691Y-51273947D01*
X87696250Y-51275000D01*
X87258750Y-51275000D01*
X87237309Y-51273947D01*
X87216074Y-51270797D01*
X87195250Y-51265581D01*
X87175038Y-51258349D01*
X87155632Y-51249170D01*
X87137219Y-51238134D01*
X87119976Y-51225346D01*
X87104070Y-51210930D01*
X87089654Y-51195024D01*
X87076866Y-51177781D01*
X87065830Y-51159368D01*
X87056651Y-51139962D01*
X87049419Y-51119750D01*
X87044203Y-51098926D01*
X87041053Y-51077691D01*
X87040000Y-51056250D01*
X87040000Y-50543750D01*
X87041053Y-50522309D01*
X87044203Y-50501074D01*
X87049419Y-50480250D01*
X87056651Y-50460038D01*
X87065830Y-50440632D01*
X87076866Y-50422219D01*
X87089654Y-50404976D01*
X87104070Y-50389070D01*
X87119976Y-50374654D01*
X87137219Y-50361866D01*
X87155632Y-50350830D01*
X87175038Y-50341651D01*
X87195250Y-50334419D01*
X87216074Y-50329203D01*
X87237309Y-50326053D01*
X87258750Y-50325000D01*
X87696250Y-50325000D01*
X87717691Y-50326053D01*
X87717691Y-50326053D01*
G37*
D11*
X87477500Y-50800000D03*
D10*
G36*
X89292691Y-50326053D02*
X89313926Y-50329203D01*
X89334750Y-50334419D01*
X89354962Y-50341651D01*
X89374368Y-50350830D01*
X89392781Y-50361866D01*
X89410024Y-50374654D01*
X89425930Y-50389070D01*
X89440346Y-50404976D01*
X89453134Y-50422219D01*
X89464170Y-50440632D01*
X89473349Y-50460038D01*
X89480581Y-50480250D01*
X89485797Y-50501074D01*
X89488947Y-50522309D01*
X89490000Y-50543750D01*
X89490000Y-51056250D01*
X89488947Y-51077691D01*
X89485797Y-51098926D01*
X89480581Y-51119750D01*
X89473349Y-51139962D01*
X89464170Y-51159368D01*
X89453134Y-51177781D01*
X89440346Y-51195024D01*
X89425930Y-51210930D01*
X89410024Y-51225346D01*
X89392781Y-51238134D01*
X89374368Y-51249170D01*
X89354962Y-51258349D01*
X89334750Y-51265581D01*
X89313926Y-51270797D01*
X89292691Y-51273947D01*
X89271250Y-51275000D01*
X88833750Y-51275000D01*
X88812309Y-51273947D01*
X88791074Y-51270797D01*
X88770250Y-51265581D01*
X88750038Y-51258349D01*
X88730632Y-51249170D01*
X88712219Y-51238134D01*
X88694976Y-51225346D01*
X88679070Y-51210930D01*
X88664654Y-51195024D01*
X88651866Y-51177781D01*
X88640830Y-51159368D01*
X88631651Y-51139962D01*
X88624419Y-51119750D01*
X88619203Y-51098926D01*
X88616053Y-51077691D01*
X88615000Y-51056250D01*
X88615000Y-50543750D01*
X88616053Y-50522309D01*
X88619203Y-50501074D01*
X88624419Y-50480250D01*
X88631651Y-50460038D01*
X88640830Y-50440632D01*
X88651866Y-50422219D01*
X88664654Y-50404976D01*
X88679070Y-50389070D01*
X88694976Y-50374654D01*
X88712219Y-50361866D01*
X88730632Y-50350830D01*
X88750038Y-50341651D01*
X88770250Y-50334419D01*
X88791074Y-50329203D01*
X88812309Y-50326053D01*
X88833750Y-50325000D01*
X89271250Y-50325000D01*
X89292691Y-50326053D01*
X89292691Y-50326053D01*
G37*
D11*
X89052500Y-50800000D03*
G04 #@! TD*
D10*
G04 #@! TO.C,C2*
G36*
X96607691Y-40801053D02*
X96628926Y-40804203D01*
X96649750Y-40809419D01*
X96669962Y-40816651D01*
X96689368Y-40825830D01*
X96707781Y-40836866D01*
X96725024Y-40849654D01*
X96740930Y-40864070D01*
X96755346Y-40879976D01*
X96768134Y-40897219D01*
X96779170Y-40915632D01*
X96788349Y-40935038D01*
X96795581Y-40955250D01*
X96800797Y-40976074D01*
X96803947Y-40997309D01*
X96805000Y-41018750D01*
X96805000Y-41531250D01*
X96803947Y-41552691D01*
X96800797Y-41573926D01*
X96795581Y-41594750D01*
X96788349Y-41614962D01*
X96779170Y-41634368D01*
X96768134Y-41652781D01*
X96755346Y-41670024D01*
X96740930Y-41685930D01*
X96725024Y-41700346D01*
X96707781Y-41713134D01*
X96689368Y-41724170D01*
X96669962Y-41733349D01*
X96649750Y-41740581D01*
X96628926Y-41745797D01*
X96607691Y-41748947D01*
X96586250Y-41750000D01*
X96148750Y-41750000D01*
X96127309Y-41748947D01*
X96106074Y-41745797D01*
X96085250Y-41740581D01*
X96065038Y-41733349D01*
X96045632Y-41724170D01*
X96027219Y-41713134D01*
X96009976Y-41700346D01*
X95994070Y-41685930D01*
X95979654Y-41670024D01*
X95966866Y-41652781D01*
X95955830Y-41634368D01*
X95946651Y-41614962D01*
X95939419Y-41594750D01*
X95934203Y-41573926D01*
X95931053Y-41552691D01*
X95930000Y-41531250D01*
X95930000Y-41018750D01*
X95931053Y-40997309D01*
X95934203Y-40976074D01*
X95939419Y-40955250D01*
X95946651Y-40935038D01*
X95955830Y-40915632D01*
X95966866Y-40897219D01*
X95979654Y-40879976D01*
X95994070Y-40864070D01*
X96009976Y-40849654D01*
X96027219Y-40836866D01*
X96045632Y-40825830D01*
X96065038Y-40816651D01*
X96085250Y-40809419D01*
X96106074Y-40804203D01*
X96127309Y-40801053D01*
X96148750Y-40800000D01*
X96586250Y-40800000D01*
X96607691Y-40801053D01*
X96607691Y-40801053D01*
G37*
D11*
X96367500Y-41275000D03*
D10*
G36*
X98182691Y-40801053D02*
X98203926Y-40804203D01*
X98224750Y-40809419D01*
X98244962Y-40816651D01*
X98264368Y-40825830D01*
X98282781Y-40836866D01*
X98300024Y-40849654D01*
X98315930Y-40864070D01*
X98330346Y-40879976D01*
X98343134Y-40897219D01*
X98354170Y-40915632D01*
X98363349Y-40935038D01*
X98370581Y-40955250D01*
X98375797Y-40976074D01*
X98378947Y-40997309D01*
X98380000Y-41018750D01*
X98380000Y-41531250D01*
X98378947Y-41552691D01*
X98375797Y-41573926D01*
X98370581Y-41594750D01*
X98363349Y-41614962D01*
X98354170Y-41634368D01*
X98343134Y-41652781D01*
X98330346Y-41670024D01*
X98315930Y-41685930D01*
X98300024Y-41700346D01*
X98282781Y-41713134D01*
X98264368Y-41724170D01*
X98244962Y-41733349D01*
X98224750Y-41740581D01*
X98203926Y-41745797D01*
X98182691Y-41748947D01*
X98161250Y-41750000D01*
X97723750Y-41750000D01*
X97702309Y-41748947D01*
X97681074Y-41745797D01*
X97660250Y-41740581D01*
X97640038Y-41733349D01*
X97620632Y-41724170D01*
X97602219Y-41713134D01*
X97584976Y-41700346D01*
X97569070Y-41685930D01*
X97554654Y-41670024D01*
X97541866Y-41652781D01*
X97530830Y-41634368D01*
X97521651Y-41614962D01*
X97514419Y-41594750D01*
X97509203Y-41573926D01*
X97506053Y-41552691D01*
X97505000Y-41531250D01*
X97505000Y-41018750D01*
X97506053Y-40997309D01*
X97509203Y-40976074D01*
X97514419Y-40955250D01*
X97521651Y-40935038D01*
X97530830Y-40915632D01*
X97541866Y-40897219D01*
X97554654Y-40879976D01*
X97569070Y-40864070D01*
X97584976Y-40849654D01*
X97602219Y-40836866D01*
X97620632Y-40825830D01*
X97640038Y-40816651D01*
X97660250Y-40809419D01*
X97681074Y-40804203D01*
X97702309Y-40801053D01*
X97723750Y-40800000D01*
X98161250Y-40800000D01*
X98182691Y-40801053D01*
X98182691Y-40801053D01*
G37*
D11*
X97942500Y-41275000D03*
G04 #@! TD*
D10*
G04 #@! TO.C,C3*
G36*
X87717691Y-40801053D02*
X87738926Y-40804203D01*
X87759750Y-40809419D01*
X87779962Y-40816651D01*
X87799368Y-40825830D01*
X87817781Y-40836866D01*
X87835024Y-40849654D01*
X87850930Y-40864070D01*
X87865346Y-40879976D01*
X87878134Y-40897219D01*
X87889170Y-40915632D01*
X87898349Y-40935038D01*
X87905581Y-40955250D01*
X87910797Y-40976074D01*
X87913947Y-40997309D01*
X87915000Y-41018750D01*
X87915000Y-41531250D01*
X87913947Y-41552691D01*
X87910797Y-41573926D01*
X87905581Y-41594750D01*
X87898349Y-41614962D01*
X87889170Y-41634368D01*
X87878134Y-41652781D01*
X87865346Y-41670024D01*
X87850930Y-41685930D01*
X87835024Y-41700346D01*
X87817781Y-41713134D01*
X87799368Y-41724170D01*
X87779962Y-41733349D01*
X87759750Y-41740581D01*
X87738926Y-41745797D01*
X87717691Y-41748947D01*
X87696250Y-41750000D01*
X87258750Y-41750000D01*
X87237309Y-41748947D01*
X87216074Y-41745797D01*
X87195250Y-41740581D01*
X87175038Y-41733349D01*
X87155632Y-41724170D01*
X87137219Y-41713134D01*
X87119976Y-41700346D01*
X87104070Y-41685930D01*
X87089654Y-41670024D01*
X87076866Y-41652781D01*
X87065830Y-41634368D01*
X87056651Y-41614962D01*
X87049419Y-41594750D01*
X87044203Y-41573926D01*
X87041053Y-41552691D01*
X87040000Y-41531250D01*
X87040000Y-41018750D01*
X87041053Y-40997309D01*
X87044203Y-40976074D01*
X87049419Y-40955250D01*
X87056651Y-40935038D01*
X87065830Y-40915632D01*
X87076866Y-40897219D01*
X87089654Y-40879976D01*
X87104070Y-40864070D01*
X87119976Y-40849654D01*
X87137219Y-40836866D01*
X87155632Y-40825830D01*
X87175038Y-40816651D01*
X87195250Y-40809419D01*
X87216074Y-40804203D01*
X87237309Y-40801053D01*
X87258750Y-40800000D01*
X87696250Y-40800000D01*
X87717691Y-40801053D01*
X87717691Y-40801053D01*
G37*
D11*
X87477500Y-41275000D03*
D10*
G36*
X89292691Y-40801053D02*
X89313926Y-40804203D01*
X89334750Y-40809419D01*
X89354962Y-40816651D01*
X89374368Y-40825830D01*
X89392781Y-40836866D01*
X89410024Y-40849654D01*
X89425930Y-40864070D01*
X89440346Y-40879976D01*
X89453134Y-40897219D01*
X89464170Y-40915632D01*
X89473349Y-40935038D01*
X89480581Y-40955250D01*
X89485797Y-40976074D01*
X89488947Y-40997309D01*
X89490000Y-41018750D01*
X89490000Y-41531250D01*
X89488947Y-41552691D01*
X89485797Y-41573926D01*
X89480581Y-41594750D01*
X89473349Y-41614962D01*
X89464170Y-41634368D01*
X89453134Y-41652781D01*
X89440346Y-41670024D01*
X89425930Y-41685930D01*
X89410024Y-41700346D01*
X89392781Y-41713134D01*
X89374368Y-41724170D01*
X89354962Y-41733349D01*
X89334750Y-41740581D01*
X89313926Y-41745797D01*
X89292691Y-41748947D01*
X89271250Y-41750000D01*
X88833750Y-41750000D01*
X88812309Y-41748947D01*
X88791074Y-41745797D01*
X88770250Y-41740581D01*
X88750038Y-41733349D01*
X88730632Y-41724170D01*
X88712219Y-41713134D01*
X88694976Y-41700346D01*
X88679070Y-41685930D01*
X88664654Y-41670024D01*
X88651866Y-41652781D01*
X88640830Y-41634368D01*
X88631651Y-41614962D01*
X88624419Y-41594750D01*
X88619203Y-41573926D01*
X88616053Y-41552691D01*
X88615000Y-41531250D01*
X88615000Y-41018750D01*
X88616053Y-40997309D01*
X88619203Y-40976074D01*
X88624419Y-40955250D01*
X88631651Y-40935038D01*
X88640830Y-40915632D01*
X88651866Y-40897219D01*
X88664654Y-40879976D01*
X88679070Y-40864070D01*
X88694976Y-40849654D01*
X88712219Y-40836866D01*
X88730632Y-40825830D01*
X88750038Y-40816651D01*
X88770250Y-40809419D01*
X88791074Y-40804203D01*
X88812309Y-40801053D01*
X88833750Y-40800000D01*
X89271250Y-40800000D01*
X89292691Y-40801053D01*
X89292691Y-40801053D01*
G37*
D11*
X89052500Y-41275000D03*
G04 #@! TD*
D10*
G04 #@! TO.C,C4*
G36*
X98182691Y-67471053D02*
X98203926Y-67474203D01*
X98224750Y-67479419D01*
X98244962Y-67486651D01*
X98264368Y-67495830D01*
X98282781Y-67506866D01*
X98300024Y-67519654D01*
X98315930Y-67534070D01*
X98330346Y-67549976D01*
X98343134Y-67567219D01*
X98354170Y-67585632D01*
X98363349Y-67605038D01*
X98370581Y-67625250D01*
X98375797Y-67646074D01*
X98378947Y-67667309D01*
X98380000Y-67688750D01*
X98380000Y-68201250D01*
X98378947Y-68222691D01*
X98375797Y-68243926D01*
X98370581Y-68264750D01*
X98363349Y-68284962D01*
X98354170Y-68304368D01*
X98343134Y-68322781D01*
X98330346Y-68340024D01*
X98315930Y-68355930D01*
X98300024Y-68370346D01*
X98282781Y-68383134D01*
X98264368Y-68394170D01*
X98244962Y-68403349D01*
X98224750Y-68410581D01*
X98203926Y-68415797D01*
X98182691Y-68418947D01*
X98161250Y-68420000D01*
X97723750Y-68420000D01*
X97702309Y-68418947D01*
X97681074Y-68415797D01*
X97660250Y-68410581D01*
X97640038Y-68403349D01*
X97620632Y-68394170D01*
X97602219Y-68383134D01*
X97584976Y-68370346D01*
X97569070Y-68355930D01*
X97554654Y-68340024D01*
X97541866Y-68322781D01*
X97530830Y-68304368D01*
X97521651Y-68284962D01*
X97514419Y-68264750D01*
X97509203Y-68243926D01*
X97506053Y-68222691D01*
X97505000Y-68201250D01*
X97505000Y-67688750D01*
X97506053Y-67667309D01*
X97509203Y-67646074D01*
X97514419Y-67625250D01*
X97521651Y-67605038D01*
X97530830Y-67585632D01*
X97541866Y-67567219D01*
X97554654Y-67549976D01*
X97569070Y-67534070D01*
X97584976Y-67519654D01*
X97602219Y-67506866D01*
X97620632Y-67495830D01*
X97640038Y-67486651D01*
X97660250Y-67479419D01*
X97681074Y-67474203D01*
X97702309Y-67471053D01*
X97723750Y-67470000D01*
X98161250Y-67470000D01*
X98182691Y-67471053D01*
X98182691Y-67471053D01*
G37*
D11*
X97942500Y-67945000D03*
D10*
G36*
X96607691Y-67471053D02*
X96628926Y-67474203D01*
X96649750Y-67479419D01*
X96669962Y-67486651D01*
X96689368Y-67495830D01*
X96707781Y-67506866D01*
X96725024Y-67519654D01*
X96740930Y-67534070D01*
X96755346Y-67549976D01*
X96768134Y-67567219D01*
X96779170Y-67585632D01*
X96788349Y-67605038D01*
X96795581Y-67625250D01*
X96800797Y-67646074D01*
X96803947Y-67667309D01*
X96805000Y-67688750D01*
X96805000Y-68201250D01*
X96803947Y-68222691D01*
X96800797Y-68243926D01*
X96795581Y-68264750D01*
X96788349Y-68284962D01*
X96779170Y-68304368D01*
X96768134Y-68322781D01*
X96755346Y-68340024D01*
X96740930Y-68355930D01*
X96725024Y-68370346D01*
X96707781Y-68383134D01*
X96689368Y-68394170D01*
X96669962Y-68403349D01*
X96649750Y-68410581D01*
X96628926Y-68415797D01*
X96607691Y-68418947D01*
X96586250Y-68420000D01*
X96148750Y-68420000D01*
X96127309Y-68418947D01*
X96106074Y-68415797D01*
X96085250Y-68410581D01*
X96065038Y-68403349D01*
X96045632Y-68394170D01*
X96027219Y-68383134D01*
X96009976Y-68370346D01*
X95994070Y-68355930D01*
X95979654Y-68340024D01*
X95966866Y-68322781D01*
X95955830Y-68304368D01*
X95946651Y-68284962D01*
X95939419Y-68264750D01*
X95934203Y-68243926D01*
X95931053Y-68222691D01*
X95930000Y-68201250D01*
X95930000Y-67688750D01*
X95931053Y-67667309D01*
X95934203Y-67646074D01*
X95939419Y-67625250D01*
X95946651Y-67605038D01*
X95955830Y-67585632D01*
X95966866Y-67567219D01*
X95979654Y-67549976D01*
X95994070Y-67534070D01*
X96009976Y-67519654D01*
X96027219Y-67506866D01*
X96045632Y-67495830D01*
X96065038Y-67486651D01*
X96085250Y-67479419D01*
X96106074Y-67474203D01*
X96127309Y-67471053D01*
X96148750Y-67470000D01*
X96586250Y-67470000D01*
X96607691Y-67471053D01*
X96607691Y-67471053D01*
G37*
D11*
X96367500Y-67945000D03*
G04 #@! TD*
D10*
G04 #@! TO.C,C5*
G36*
X87717691Y-67471053D02*
X87738926Y-67474203D01*
X87759750Y-67479419D01*
X87779962Y-67486651D01*
X87799368Y-67495830D01*
X87817781Y-67506866D01*
X87835024Y-67519654D01*
X87850930Y-67534070D01*
X87865346Y-67549976D01*
X87878134Y-67567219D01*
X87889170Y-67585632D01*
X87898349Y-67605038D01*
X87905581Y-67625250D01*
X87910797Y-67646074D01*
X87913947Y-67667309D01*
X87915000Y-67688750D01*
X87915000Y-68201250D01*
X87913947Y-68222691D01*
X87910797Y-68243926D01*
X87905581Y-68264750D01*
X87898349Y-68284962D01*
X87889170Y-68304368D01*
X87878134Y-68322781D01*
X87865346Y-68340024D01*
X87850930Y-68355930D01*
X87835024Y-68370346D01*
X87817781Y-68383134D01*
X87799368Y-68394170D01*
X87779962Y-68403349D01*
X87759750Y-68410581D01*
X87738926Y-68415797D01*
X87717691Y-68418947D01*
X87696250Y-68420000D01*
X87258750Y-68420000D01*
X87237309Y-68418947D01*
X87216074Y-68415797D01*
X87195250Y-68410581D01*
X87175038Y-68403349D01*
X87155632Y-68394170D01*
X87137219Y-68383134D01*
X87119976Y-68370346D01*
X87104070Y-68355930D01*
X87089654Y-68340024D01*
X87076866Y-68322781D01*
X87065830Y-68304368D01*
X87056651Y-68284962D01*
X87049419Y-68264750D01*
X87044203Y-68243926D01*
X87041053Y-68222691D01*
X87040000Y-68201250D01*
X87040000Y-67688750D01*
X87041053Y-67667309D01*
X87044203Y-67646074D01*
X87049419Y-67625250D01*
X87056651Y-67605038D01*
X87065830Y-67585632D01*
X87076866Y-67567219D01*
X87089654Y-67549976D01*
X87104070Y-67534070D01*
X87119976Y-67519654D01*
X87137219Y-67506866D01*
X87155632Y-67495830D01*
X87175038Y-67486651D01*
X87195250Y-67479419D01*
X87216074Y-67474203D01*
X87237309Y-67471053D01*
X87258750Y-67470000D01*
X87696250Y-67470000D01*
X87717691Y-67471053D01*
X87717691Y-67471053D01*
G37*
D11*
X87477500Y-67945000D03*
D10*
G36*
X89292691Y-67471053D02*
X89313926Y-67474203D01*
X89334750Y-67479419D01*
X89354962Y-67486651D01*
X89374368Y-67495830D01*
X89392781Y-67506866D01*
X89410024Y-67519654D01*
X89425930Y-67534070D01*
X89440346Y-67549976D01*
X89453134Y-67567219D01*
X89464170Y-67585632D01*
X89473349Y-67605038D01*
X89480581Y-67625250D01*
X89485797Y-67646074D01*
X89488947Y-67667309D01*
X89490000Y-67688750D01*
X89490000Y-68201250D01*
X89488947Y-68222691D01*
X89485797Y-68243926D01*
X89480581Y-68264750D01*
X89473349Y-68284962D01*
X89464170Y-68304368D01*
X89453134Y-68322781D01*
X89440346Y-68340024D01*
X89425930Y-68355930D01*
X89410024Y-68370346D01*
X89392781Y-68383134D01*
X89374368Y-68394170D01*
X89354962Y-68403349D01*
X89334750Y-68410581D01*
X89313926Y-68415797D01*
X89292691Y-68418947D01*
X89271250Y-68420000D01*
X88833750Y-68420000D01*
X88812309Y-68418947D01*
X88791074Y-68415797D01*
X88770250Y-68410581D01*
X88750038Y-68403349D01*
X88730632Y-68394170D01*
X88712219Y-68383134D01*
X88694976Y-68370346D01*
X88679070Y-68355930D01*
X88664654Y-68340024D01*
X88651866Y-68322781D01*
X88640830Y-68304368D01*
X88631651Y-68284962D01*
X88624419Y-68264750D01*
X88619203Y-68243926D01*
X88616053Y-68222691D01*
X88615000Y-68201250D01*
X88615000Y-67688750D01*
X88616053Y-67667309D01*
X88619203Y-67646074D01*
X88624419Y-67625250D01*
X88631651Y-67605038D01*
X88640830Y-67585632D01*
X88651866Y-67567219D01*
X88664654Y-67549976D01*
X88679070Y-67534070D01*
X88694976Y-67519654D01*
X88712219Y-67506866D01*
X88730632Y-67495830D01*
X88750038Y-67486651D01*
X88770250Y-67479419D01*
X88791074Y-67474203D01*
X88812309Y-67471053D01*
X88833750Y-67470000D01*
X89271250Y-67470000D01*
X89292691Y-67471053D01*
X89292691Y-67471053D01*
G37*
D11*
X89052500Y-67945000D03*
G04 #@! TD*
D10*
G04 #@! TO.C,C6*
G36*
X96607691Y-38896053D02*
X96628926Y-38899203D01*
X96649750Y-38904419D01*
X96669962Y-38911651D01*
X96689368Y-38920830D01*
X96707781Y-38931866D01*
X96725024Y-38944654D01*
X96740930Y-38959070D01*
X96755346Y-38974976D01*
X96768134Y-38992219D01*
X96779170Y-39010632D01*
X96788349Y-39030038D01*
X96795581Y-39050250D01*
X96800797Y-39071074D01*
X96803947Y-39092309D01*
X96805000Y-39113750D01*
X96805000Y-39626250D01*
X96803947Y-39647691D01*
X96800797Y-39668926D01*
X96795581Y-39689750D01*
X96788349Y-39709962D01*
X96779170Y-39729368D01*
X96768134Y-39747781D01*
X96755346Y-39765024D01*
X96740930Y-39780930D01*
X96725024Y-39795346D01*
X96707781Y-39808134D01*
X96689368Y-39819170D01*
X96669962Y-39828349D01*
X96649750Y-39835581D01*
X96628926Y-39840797D01*
X96607691Y-39843947D01*
X96586250Y-39845000D01*
X96148750Y-39845000D01*
X96127309Y-39843947D01*
X96106074Y-39840797D01*
X96085250Y-39835581D01*
X96065038Y-39828349D01*
X96045632Y-39819170D01*
X96027219Y-39808134D01*
X96009976Y-39795346D01*
X95994070Y-39780930D01*
X95979654Y-39765024D01*
X95966866Y-39747781D01*
X95955830Y-39729368D01*
X95946651Y-39709962D01*
X95939419Y-39689750D01*
X95934203Y-39668926D01*
X95931053Y-39647691D01*
X95930000Y-39626250D01*
X95930000Y-39113750D01*
X95931053Y-39092309D01*
X95934203Y-39071074D01*
X95939419Y-39050250D01*
X95946651Y-39030038D01*
X95955830Y-39010632D01*
X95966866Y-38992219D01*
X95979654Y-38974976D01*
X95994070Y-38959070D01*
X96009976Y-38944654D01*
X96027219Y-38931866D01*
X96045632Y-38920830D01*
X96065038Y-38911651D01*
X96085250Y-38904419D01*
X96106074Y-38899203D01*
X96127309Y-38896053D01*
X96148750Y-38895000D01*
X96586250Y-38895000D01*
X96607691Y-38896053D01*
X96607691Y-38896053D01*
G37*
D11*
X96367500Y-39370000D03*
D10*
G36*
X98182691Y-38896053D02*
X98203926Y-38899203D01*
X98224750Y-38904419D01*
X98244962Y-38911651D01*
X98264368Y-38920830D01*
X98282781Y-38931866D01*
X98300024Y-38944654D01*
X98315930Y-38959070D01*
X98330346Y-38974976D01*
X98343134Y-38992219D01*
X98354170Y-39010632D01*
X98363349Y-39030038D01*
X98370581Y-39050250D01*
X98375797Y-39071074D01*
X98378947Y-39092309D01*
X98380000Y-39113750D01*
X98380000Y-39626250D01*
X98378947Y-39647691D01*
X98375797Y-39668926D01*
X98370581Y-39689750D01*
X98363349Y-39709962D01*
X98354170Y-39729368D01*
X98343134Y-39747781D01*
X98330346Y-39765024D01*
X98315930Y-39780930D01*
X98300024Y-39795346D01*
X98282781Y-39808134D01*
X98264368Y-39819170D01*
X98244962Y-39828349D01*
X98224750Y-39835581D01*
X98203926Y-39840797D01*
X98182691Y-39843947D01*
X98161250Y-39845000D01*
X97723750Y-39845000D01*
X97702309Y-39843947D01*
X97681074Y-39840797D01*
X97660250Y-39835581D01*
X97640038Y-39828349D01*
X97620632Y-39819170D01*
X97602219Y-39808134D01*
X97584976Y-39795346D01*
X97569070Y-39780930D01*
X97554654Y-39765024D01*
X97541866Y-39747781D01*
X97530830Y-39729368D01*
X97521651Y-39709962D01*
X97514419Y-39689750D01*
X97509203Y-39668926D01*
X97506053Y-39647691D01*
X97505000Y-39626250D01*
X97505000Y-39113750D01*
X97506053Y-39092309D01*
X97509203Y-39071074D01*
X97514419Y-39050250D01*
X97521651Y-39030038D01*
X97530830Y-39010632D01*
X97541866Y-38992219D01*
X97554654Y-38974976D01*
X97569070Y-38959070D01*
X97584976Y-38944654D01*
X97602219Y-38931866D01*
X97620632Y-38920830D01*
X97640038Y-38911651D01*
X97660250Y-38904419D01*
X97681074Y-38899203D01*
X97702309Y-38896053D01*
X97723750Y-38895000D01*
X98161250Y-38895000D01*
X98182691Y-38896053D01*
X98182691Y-38896053D01*
G37*
D11*
X97942500Y-39370000D03*
G04 #@! TD*
D10*
G04 #@! TO.C,C7*
G36*
X89292691Y-38896053D02*
X89313926Y-38899203D01*
X89334750Y-38904419D01*
X89354962Y-38911651D01*
X89374368Y-38920830D01*
X89392781Y-38931866D01*
X89410024Y-38944654D01*
X89425930Y-38959070D01*
X89440346Y-38974976D01*
X89453134Y-38992219D01*
X89464170Y-39010632D01*
X89473349Y-39030038D01*
X89480581Y-39050250D01*
X89485797Y-39071074D01*
X89488947Y-39092309D01*
X89490000Y-39113750D01*
X89490000Y-39626250D01*
X89488947Y-39647691D01*
X89485797Y-39668926D01*
X89480581Y-39689750D01*
X89473349Y-39709962D01*
X89464170Y-39729368D01*
X89453134Y-39747781D01*
X89440346Y-39765024D01*
X89425930Y-39780930D01*
X89410024Y-39795346D01*
X89392781Y-39808134D01*
X89374368Y-39819170D01*
X89354962Y-39828349D01*
X89334750Y-39835581D01*
X89313926Y-39840797D01*
X89292691Y-39843947D01*
X89271250Y-39845000D01*
X88833750Y-39845000D01*
X88812309Y-39843947D01*
X88791074Y-39840797D01*
X88770250Y-39835581D01*
X88750038Y-39828349D01*
X88730632Y-39819170D01*
X88712219Y-39808134D01*
X88694976Y-39795346D01*
X88679070Y-39780930D01*
X88664654Y-39765024D01*
X88651866Y-39747781D01*
X88640830Y-39729368D01*
X88631651Y-39709962D01*
X88624419Y-39689750D01*
X88619203Y-39668926D01*
X88616053Y-39647691D01*
X88615000Y-39626250D01*
X88615000Y-39113750D01*
X88616053Y-39092309D01*
X88619203Y-39071074D01*
X88624419Y-39050250D01*
X88631651Y-39030038D01*
X88640830Y-39010632D01*
X88651866Y-38992219D01*
X88664654Y-38974976D01*
X88679070Y-38959070D01*
X88694976Y-38944654D01*
X88712219Y-38931866D01*
X88730632Y-38920830D01*
X88750038Y-38911651D01*
X88770250Y-38904419D01*
X88791074Y-38899203D01*
X88812309Y-38896053D01*
X88833750Y-38895000D01*
X89271250Y-38895000D01*
X89292691Y-38896053D01*
X89292691Y-38896053D01*
G37*
D11*
X89052500Y-39370000D03*
D10*
G36*
X87717691Y-38896053D02*
X87738926Y-38899203D01*
X87759750Y-38904419D01*
X87779962Y-38911651D01*
X87799368Y-38920830D01*
X87817781Y-38931866D01*
X87835024Y-38944654D01*
X87850930Y-38959070D01*
X87865346Y-38974976D01*
X87878134Y-38992219D01*
X87889170Y-39010632D01*
X87898349Y-39030038D01*
X87905581Y-39050250D01*
X87910797Y-39071074D01*
X87913947Y-39092309D01*
X87915000Y-39113750D01*
X87915000Y-39626250D01*
X87913947Y-39647691D01*
X87910797Y-39668926D01*
X87905581Y-39689750D01*
X87898349Y-39709962D01*
X87889170Y-39729368D01*
X87878134Y-39747781D01*
X87865346Y-39765024D01*
X87850930Y-39780930D01*
X87835024Y-39795346D01*
X87817781Y-39808134D01*
X87799368Y-39819170D01*
X87779962Y-39828349D01*
X87759750Y-39835581D01*
X87738926Y-39840797D01*
X87717691Y-39843947D01*
X87696250Y-39845000D01*
X87258750Y-39845000D01*
X87237309Y-39843947D01*
X87216074Y-39840797D01*
X87195250Y-39835581D01*
X87175038Y-39828349D01*
X87155632Y-39819170D01*
X87137219Y-39808134D01*
X87119976Y-39795346D01*
X87104070Y-39780930D01*
X87089654Y-39765024D01*
X87076866Y-39747781D01*
X87065830Y-39729368D01*
X87056651Y-39709962D01*
X87049419Y-39689750D01*
X87044203Y-39668926D01*
X87041053Y-39647691D01*
X87040000Y-39626250D01*
X87040000Y-39113750D01*
X87041053Y-39092309D01*
X87044203Y-39071074D01*
X87049419Y-39050250D01*
X87056651Y-39030038D01*
X87065830Y-39010632D01*
X87076866Y-38992219D01*
X87089654Y-38974976D01*
X87104070Y-38959070D01*
X87119976Y-38944654D01*
X87137219Y-38931866D01*
X87155632Y-38920830D01*
X87175038Y-38911651D01*
X87195250Y-38904419D01*
X87216074Y-38899203D01*
X87237309Y-38896053D01*
X87258750Y-38895000D01*
X87696250Y-38895000D01*
X87717691Y-38896053D01*
X87717691Y-38896053D01*
G37*
D11*
X87477500Y-39370000D03*
G04 #@! TD*
D10*
G04 #@! TO.C,C8*
G36*
X98182691Y-65566053D02*
X98203926Y-65569203D01*
X98224750Y-65574419D01*
X98244962Y-65581651D01*
X98264368Y-65590830D01*
X98282781Y-65601866D01*
X98300024Y-65614654D01*
X98315930Y-65629070D01*
X98330346Y-65644976D01*
X98343134Y-65662219D01*
X98354170Y-65680632D01*
X98363349Y-65700038D01*
X98370581Y-65720250D01*
X98375797Y-65741074D01*
X98378947Y-65762309D01*
X98380000Y-65783750D01*
X98380000Y-66296250D01*
X98378947Y-66317691D01*
X98375797Y-66338926D01*
X98370581Y-66359750D01*
X98363349Y-66379962D01*
X98354170Y-66399368D01*
X98343134Y-66417781D01*
X98330346Y-66435024D01*
X98315930Y-66450930D01*
X98300024Y-66465346D01*
X98282781Y-66478134D01*
X98264368Y-66489170D01*
X98244962Y-66498349D01*
X98224750Y-66505581D01*
X98203926Y-66510797D01*
X98182691Y-66513947D01*
X98161250Y-66515000D01*
X97723750Y-66515000D01*
X97702309Y-66513947D01*
X97681074Y-66510797D01*
X97660250Y-66505581D01*
X97640038Y-66498349D01*
X97620632Y-66489170D01*
X97602219Y-66478134D01*
X97584976Y-66465346D01*
X97569070Y-66450930D01*
X97554654Y-66435024D01*
X97541866Y-66417781D01*
X97530830Y-66399368D01*
X97521651Y-66379962D01*
X97514419Y-66359750D01*
X97509203Y-66338926D01*
X97506053Y-66317691D01*
X97505000Y-66296250D01*
X97505000Y-65783750D01*
X97506053Y-65762309D01*
X97509203Y-65741074D01*
X97514419Y-65720250D01*
X97521651Y-65700038D01*
X97530830Y-65680632D01*
X97541866Y-65662219D01*
X97554654Y-65644976D01*
X97569070Y-65629070D01*
X97584976Y-65614654D01*
X97602219Y-65601866D01*
X97620632Y-65590830D01*
X97640038Y-65581651D01*
X97660250Y-65574419D01*
X97681074Y-65569203D01*
X97702309Y-65566053D01*
X97723750Y-65565000D01*
X98161250Y-65565000D01*
X98182691Y-65566053D01*
X98182691Y-65566053D01*
G37*
D11*
X97942500Y-66040000D03*
D10*
G36*
X96607691Y-65566053D02*
X96628926Y-65569203D01*
X96649750Y-65574419D01*
X96669962Y-65581651D01*
X96689368Y-65590830D01*
X96707781Y-65601866D01*
X96725024Y-65614654D01*
X96740930Y-65629070D01*
X96755346Y-65644976D01*
X96768134Y-65662219D01*
X96779170Y-65680632D01*
X96788349Y-65700038D01*
X96795581Y-65720250D01*
X96800797Y-65741074D01*
X96803947Y-65762309D01*
X96805000Y-65783750D01*
X96805000Y-66296250D01*
X96803947Y-66317691D01*
X96800797Y-66338926D01*
X96795581Y-66359750D01*
X96788349Y-66379962D01*
X96779170Y-66399368D01*
X96768134Y-66417781D01*
X96755346Y-66435024D01*
X96740930Y-66450930D01*
X96725024Y-66465346D01*
X96707781Y-66478134D01*
X96689368Y-66489170D01*
X96669962Y-66498349D01*
X96649750Y-66505581D01*
X96628926Y-66510797D01*
X96607691Y-66513947D01*
X96586250Y-66515000D01*
X96148750Y-66515000D01*
X96127309Y-66513947D01*
X96106074Y-66510797D01*
X96085250Y-66505581D01*
X96065038Y-66498349D01*
X96045632Y-66489170D01*
X96027219Y-66478134D01*
X96009976Y-66465346D01*
X95994070Y-66450930D01*
X95979654Y-66435024D01*
X95966866Y-66417781D01*
X95955830Y-66399368D01*
X95946651Y-66379962D01*
X95939419Y-66359750D01*
X95934203Y-66338926D01*
X95931053Y-66317691D01*
X95930000Y-66296250D01*
X95930000Y-65783750D01*
X95931053Y-65762309D01*
X95934203Y-65741074D01*
X95939419Y-65720250D01*
X95946651Y-65700038D01*
X95955830Y-65680632D01*
X95966866Y-65662219D01*
X95979654Y-65644976D01*
X95994070Y-65629070D01*
X96009976Y-65614654D01*
X96027219Y-65601866D01*
X96045632Y-65590830D01*
X96065038Y-65581651D01*
X96085250Y-65574419D01*
X96106074Y-65569203D01*
X96127309Y-65566053D01*
X96148750Y-65565000D01*
X96586250Y-65565000D01*
X96607691Y-65566053D01*
X96607691Y-65566053D01*
G37*
D11*
X96367500Y-66040000D03*
G04 #@! TD*
D10*
G04 #@! TO.C,C9*
G36*
X89292691Y-65566053D02*
X89313926Y-65569203D01*
X89334750Y-65574419D01*
X89354962Y-65581651D01*
X89374368Y-65590830D01*
X89392781Y-65601866D01*
X89410024Y-65614654D01*
X89425930Y-65629070D01*
X89440346Y-65644976D01*
X89453134Y-65662219D01*
X89464170Y-65680632D01*
X89473349Y-65700038D01*
X89480581Y-65720250D01*
X89485797Y-65741074D01*
X89488947Y-65762309D01*
X89490000Y-65783750D01*
X89490000Y-66296250D01*
X89488947Y-66317691D01*
X89485797Y-66338926D01*
X89480581Y-66359750D01*
X89473349Y-66379962D01*
X89464170Y-66399368D01*
X89453134Y-66417781D01*
X89440346Y-66435024D01*
X89425930Y-66450930D01*
X89410024Y-66465346D01*
X89392781Y-66478134D01*
X89374368Y-66489170D01*
X89354962Y-66498349D01*
X89334750Y-66505581D01*
X89313926Y-66510797D01*
X89292691Y-66513947D01*
X89271250Y-66515000D01*
X88833750Y-66515000D01*
X88812309Y-66513947D01*
X88791074Y-66510797D01*
X88770250Y-66505581D01*
X88750038Y-66498349D01*
X88730632Y-66489170D01*
X88712219Y-66478134D01*
X88694976Y-66465346D01*
X88679070Y-66450930D01*
X88664654Y-66435024D01*
X88651866Y-66417781D01*
X88640830Y-66399368D01*
X88631651Y-66379962D01*
X88624419Y-66359750D01*
X88619203Y-66338926D01*
X88616053Y-66317691D01*
X88615000Y-66296250D01*
X88615000Y-65783750D01*
X88616053Y-65762309D01*
X88619203Y-65741074D01*
X88624419Y-65720250D01*
X88631651Y-65700038D01*
X88640830Y-65680632D01*
X88651866Y-65662219D01*
X88664654Y-65644976D01*
X88679070Y-65629070D01*
X88694976Y-65614654D01*
X88712219Y-65601866D01*
X88730632Y-65590830D01*
X88750038Y-65581651D01*
X88770250Y-65574419D01*
X88791074Y-65569203D01*
X88812309Y-65566053D01*
X88833750Y-65565000D01*
X89271250Y-65565000D01*
X89292691Y-65566053D01*
X89292691Y-65566053D01*
G37*
D11*
X89052500Y-66040000D03*
D10*
G36*
X87717691Y-65566053D02*
X87738926Y-65569203D01*
X87759750Y-65574419D01*
X87779962Y-65581651D01*
X87799368Y-65590830D01*
X87817781Y-65601866D01*
X87835024Y-65614654D01*
X87850930Y-65629070D01*
X87865346Y-65644976D01*
X87878134Y-65662219D01*
X87889170Y-65680632D01*
X87898349Y-65700038D01*
X87905581Y-65720250D01*
X87910797Y-65741074D01*
X87913947Y-65762309D01*
X87915000Y-65783750D01*
X87915000Y-66296250D01*
X87913947Y-66317691D01*
X87910797Y-66338926D01*
X87905581Y-66359750D01*
X87898349Y-66379962D01*
X87889170Y-66399368D01*
X87878134Y-66417781D01*
X87865346Y-66435024D01*
X87850930Y-66450930D01*
X87835024Y-66465346D01*
X87817781Y-66478134D01*
X87799368Y-66489170D01*
X87779962Y-66498349D01*
X87759750Y-66505581D01*
X87738926Y-66510797D01*
X87717691Y-66513947D01*
X87696250Y-66515000D01*
X87258750Y-66515000D01*
X87237309Y-66513947D01*
X87216074Y-66510797D01*
X87195250Y-66505581D01*
X87175038Y-66498349D01*
X87155632Y-66489170D01*
X87137219Y-66478134D01*
X87119976Y-66465346D01*
X87104070Y-66450930D01*
X87089654Y-66435024D01*
X87076866Y-66417781D01*
X87065830Y-66399368D01*
X87056651Y-66379962D01*
X87049419Y-66359750D01*
X87044203Y-66338926D01*
X87041053Y-66317691D01*
X87040000Y-66296250D01*
X87040000Y-65783750D01*
X87041053Y-65762309D01*
X87044203Y-65741074D01*
X87049419Y-65720250D01*
X87056651Y-65700038D01*
X87065830Y-65680632D01*
X87076866Y-65662219D01*
X87089654Y-65644976D01*
X87104070Y-65629070D01*
X87119976Y-65614654D01*
X87137219Y-65601866D01*
X87155632Y-65590830D01*
X87175038Y-65581651D01*
X87195250Y-65574419D01*
X87216074Y-65569203D01*
X87237309Y-65566053D01*
X87258750Y-65565000D01*
X87696250Y-65565000D01*
X87717691Y-65566053D01*
X87717691Y-65566053D01*
G37*
D11*
X87477500Y-66040000D03*
G04 #@! TD*
D10*
G04 #@! TO.C,C10*
G36*
X96607691Y-35086053D02*
X96628926Y-35089203D01*
X96649750Y-35094419D01*
X96669962Y-35101651D01*
X96689368Y-35110830D01*
X96707781Y-35121866D01*
X96725024Y-35134654D01*
X96740930Y-35149070D01*
X96755346Y-35164976D01*
X96768134Y-35182219D01*
X96779170Y-35200632D01*
X96788349Y-35220038D01*
X96795581Y-35240250D01*
X96800797Y-35261074D01*
X96803947Y-35282309D01*
X96805000Y-35303750D01*
X96805000Y-35816250D01*
X96803947Y-35837691D01*
X96800797Y-35858926D01*
X96795581Y-35879750D01*
X96788349Y-35899962D01*
X96779170Y-35919368D01*
X96768134Y-35937781D01*
X96755346Y-35955024D01*
X96740930Y-35970930D01*
X96725024Y-35985346D01*
X96707781Y-35998134D01*
X96689368Y-36009170D01*
X96669962Y-36018349D01*
X96649750Y-36025581D01*
X96628926Y-36030797D01*
X96607691Y-36033947D01*
X96586250Y-36035000D01*
X96148750Y-36035000D01*
X96127309Y-36033947D01*
X96106074Y-36030797D01*
X96085250Y-36025581D01*
X96065038Y-36018349D01*
X96045632Y-36009170D01*
X96027219Y-35998134D01*
X96009976Y-35985346D01*
X95994070Y-35970930D01*
X95979654Y-35955024D01*
X95966866Y-35937781D01*
X95955830Y-35919368D01*
X95946651Y-35899962D01*
X95939419Y-35879750D01*
X95934203Y-35858926D01*
X95931053Y-35837691D01*
X95930000Y-35816250D01*
X95930000Y-35303750D01*
X95931053Y-35282309D01*
X95934203Y-35261074D01*
X95939419Y-35240250D01*
X95946651Y-35220038D01*
X95955830Y-35200632D01*
X95966866Y-35182219D01*
X95979654Y-35164976D01*
X95994070Y-35149070D01*
X96009976Y-35134654D01*
X96027219Y-35121866D01*
X96045632Y-35110830D01*
X96065038Y-35101651D01*
X96085250Y-35094419D01*
X96106074Y-35089203D01*
X96127309Y-35086053D01*
X96148750Y-35085000D01*
X96586250Y-35085000D01*
X96607691Y-35086053D01*
X96607691Y-35086053D01*
G37*
D11*
X96367500Y-35560000D03*
D10*
G36*
X98182691Y-35086053D02*
X98203926Y-35089203D01*
X98224750Y-35094419D01*
X98244962Y-35101651D01*
X98264368Y-35110830D01*
X98282781Y-35121866D01*
X98300024Y-35134654D01*
X98315930Y-35149070D01*
X98330346Y-35164976D01*
X98343134Y-35182219D01*
X98354170Y-35200632D01*
X98363349Y-35220038D01*
X98370581Y-35240250D01*
X98375797Y-35261074D01*
X98378947Y-35282309D01*
X98380000Y-35303750D01*
X98380000Y-35816250D01*
X98378947Y-35837691D01*
X98375797Y-35858926D01*
X98370581Y-35879750D01*
X98363349Y-35899962D01*
X98354170Y-35919368D01*
X98343134Y-35937781D01*
X98330346Y-35955024D01*
X98315930Y-35970930D01*
X98300024Y-35985346D01*
X98282781Y-35998134D01*
X98264368Y-36009170D01*
X98244962Y-36018349D01*
X98224750Y-36025581D01*
X98203926Y-36030797D01*
X98182691Y-36033947D01*
X98161250Y-36035000D01*
X97723750Y-36035000D01*
X97702309Y-36033947D01*
X97681074Y-36030797D01*
X97660250Y-36025581D01*
X97640038Y-36018349D01*
X97620632Y-36009170D01*
X97602219Y-35998134D01*
X97584976Y-35985346D01*
X97569070Y-35970930D01*
X97554654Y-35955024D01*
X97541866Y-35937781D01*
X97530830Y-35919368D01*
X97521651Y-35899962D01*
X97514419Y-35879750D01*
X97509203Y-35858926D01*
X97506053Y-35837691D01*
X97505000Y-35816250D01*
X97505000Y-35303750D01*
X97506053Y-35282309D01*
X97509203Y-35261074D01*
X97514419Y-35240250D01*
X97521651Y-35220038D01*
X97530830Y-35200632D01*
X97541866Y-35182219D01*
X97554654Y-35164976D01*
X97569070Y-35149070D01*
X97584976Y-35134654D01*
X97602219Y-35121866D01*
X97620632Y-35110830D01*
X97640038Y-35101651D01*
X97660250Y-35094419D01*
X97681074Y-35089203D01*
X97702309Y-35086053D01*
X97723750Y-35085000D01*
X98161250Y-35085000D01*
X98182691Y-35086053D01*
X98182691Y-35086053D01*
G37*
D11*
X97942500Y-35560000D03*
G04 #@! TD*
D10*
G04 #@! TO.C,C11*
G36*
X89292691Y-35086053D02*
X89313926Y-35089203D01*
X89334750Y-35094419D01*
X89354962Y-35101651D01*
X89374368Y-35110830D01*
X89392781Y-35121866D01*
X89410024Y-35134654D01*
X89425930Y-35149070D01*
X89440346Y-35164976D01*
X89453134Y-35182219D01*
X89464170Y-35200632D01*
X89473349Y-35220038D01*
X89480581Y-35240250D01*
X89485797Y-35261074D01*
X89488947Y-35282309D01*
X89490000Y-35303750D01*
X89490000Y-35816250D01*
X89488947Y-35837691D01*
X89485797Y-35858926D01*
X89480581Y-35879750D01*
X89473349Y-35899962D01*
X89464170Y-35919368D01*
X89453134Y-35937781D01*
X89440346Y-35955024D01*
X89425930Y-35970930D01*
X89410024Y-35985346D01*
X89392781Y-35998134D01*
X89374368Y-36009170D01*
X89354962Y-36018349D01*
X89334750Y-36025581D01*
X89313926Y-36030797D01*
X89292691Y-36033947D01*
X89271250Y-36035000D01*
X88833750Y-36035000D01*
X88812309Y-36033947D01*
X88791074Y-36030797D01*
X88770250Y-36025581D01*
X88750038Y-36018349D01*
X88730632Y-36009170D01*
X88712219Y-35998134D01*
X88694976Y-35985346D01*
X88679070Y-35970930D01*
X88664654Y-35955024D01*
X88651866Y-35937781D01*
X88640830Y-35919368D01*
X88631651Y-35899962D01*
X88624419Y-35879750D01*
X88619203Y-35858926D01*
X88616053Y-35837691D01*
X88615000Y-35816250D01*
X88615000Y-35303750D01*
X88616053Y-35282309D01*
X88619203Y-35261074D01*
X88624419Y-35240250D01*
X88631651Y-35220038D01*
X88640830Y-35200632D01*
X88651866Y-35182219D01*
X88664654Y-35164976D01*
X88679070Y-35149070D01*
X88694976Y-35134654D01*
X88712219Y-35121866D01*
X88730632Y-35110830D01*
X88750038Y-35101651D01*
X88770250Y-35094419D01*
X88791074Y-35089203D01*
X88812309Y-35086053D01*
X88833750Y-35085000D01*
X89271250Y-35085000D01*
X89292691Y-35086053D01*
X89292691Y-35086053D01*
G37*
D11*
X89052500Y-35560000D03*
D10*
G36*
X87717691Y-35086053D02*
X87738926Y-35089203D01*
X87759750Y-35094419D01*
X87779962Y-35101651D01*
X87799368Y-35110830D01*
X87817781Y-35121866D01*
X87835024Y-35134654D01*
X87850930Y-35149070D01*
X87865346Y-35164976D01*
X87878134Y-35182219D01*
X87889170Y-35200632D01*
X87898349Y-35220038D01*
X87905581Y-35240250D01*
X87910797Y-35261074D01*
X87913947Y-35282309D01*
X87915000Y-35303750D01*
X87915000Y-35816250D01*
X87913947Y-35837691D01*
X87910797Y-35858926D01*
X87905581Y-35879750D01*
X87898349Y-35899962D01*
X87889170Y-35919368D01*
X87878134Y-35937781D01*
X87865346Y-35955024D01*
X87850930Y-35970930D01*
X87835024Y-35985346D01*
X87817781Y-35998134D01*
X87799368Y-36009170D01*
X87779962Y-36018349D01*
X87759750Y-36025581D01*
X87738926Y-36030797D01*
X87717691Y-36033947D01*
X87696250Y-36035000D01*
X87258750Y-36035000D01*
X87237309Y-36033947D01*
X87216074Y-36030797D01*
X87195250Y-36025581D01*
X87175038Y-36018349D01*
X87155632Y-36009170D01*
X87137219Y-35998134D01*
X87119976Y-35985346D01*
X87104070Y-35970930D01*
X87089654Y-35955024D01*
X87076866Y-35937781D01*
X87065830Y-35919368D01*
X87056651Y-35899962D01*
X87049419Y-35879750D01*
X87044203Y-35858926D01*
X87041053Y-35837691D01*
X87040000Y-35816250D01*
X87040000Y-35303750D01*
X87041053Y-35282309D01*
X87044203Y-35261074D01*
X87049419Y-35240250D01*
X87056651Y-35220038D01*
X87065830Y-35200632D01*
X87076866Y-35182219D01*
X87089654Y-35164976D01*
X87104070Y-35149070D01*
X87119976Y-35134654D01*
X87137219Y-35121866D01*
X87155632Y-35110830D01*
X87175038Y-35101651D01*
X87195250Y-35094419D01*
X87216074Y-35089203D01*
X87237309Y-35086053D01*
X87258750Y-35085000D01*
X87696250Y-35085000D01*
X87717691Y-35086053D01*
X87717691Y-35086053D01*
G37*
D11*
X87477500Y-35560000D03*
G04 #@! TD*
D10*
G04 #@! TO.C,C12*
G36*
X96607691Y-61756053D02*
X96628926Y-61759203D01*
X96649750Y-61764419D01*
X96669962Y-61771651D01*
X96689368Y-61780830D01*
X96707781Y-61791866D01*
X96725024Y-61804654D01*
X96740930Y-61819070D01*
X96755346Y-61834976D01*
X96768134Y-61852219D01*
X96779170Y-61870632D01*
X96788349Y-61890038D01*
X96795581Y-61910250D01*
X96800797Y-61931074D01*
X96803947Y-61952309D01*
X96805000Y-61973750D01*
X96805000Y-62486250D01*
X96803947Y-62507691D01*
X96800797Y-62528926D01*
X96795581Y-62549750D01*
X96788349Y-62569962D01*
X96779170Y-62589368D01*
X96768134Y-62607781D01*
X96755346Y-62625024D01*
X96740930Y-62640930D01*
X96725024Y-62655346D01*
X96707781Y-62668134D01*
X96689368Y-62679170D01*
X96669962Y-62688349D01*
X96649750Y-62695581D01*
X96628926Y-62700797D01*
X96607691Y-62703947D01*
X96586250Y-62705000D01*
X96148750Y-62705000D01*
X96127309Y-62703947D01*
X96106074Y-62700797D01*
X96085250Y-62695581D01*
X96065038Y-62688349D01*
X96045632Y-62679170D01*
X96027219Y-62668134D01*
X96009976Y-62655346D01*
X95994070Y-62640930D01*
X95979654Y-62625024D01*
X95966866Y-62607781D01*
X95955830Y-62589368D01*
X95946651Y-62569962D01*
X95939419Y-62549750D01*
X95934203Y-62528926D01*
X95931053Y-62507691D01*
X95930000Y-62486250D01*
X95930000Y-61973750D01*
X95931053Y-61952309D01*
X95934203Y-61931074D01*
X95939419Y-61910250D01*
X95946651Y-61890038D01*
X95955830Y-61870632D01*
X95966866Y-61852219D01*
X95979654Y-61834976D01*
X95994070Y-61819070D01*
X96009976Y-61804654D01*
X96027219Y-61791866D01*
X96045632Y-61780830D01*
X96065038Y-61771651D01*
X96085250Y-61764419D01*
X96106074Y-61759203D01*
X96127309Y-61756053D01*
X96148750Y-61755000D01*
X96586250Y-61755000D01*
X96607691Y-61756053D01*
X96607691Y-61756053D01*
G37*
D11*
X96367500Y-62230000D03*
D10*
G36*
X98182691Y-61756053D02*
X98203926Y-61759203D01*
X98224750Y-61764419D01*
X98244962Y-61771651D01*
X98264368Y-61780830D01*
X98282781Y-61791866D01*
X98300024Y-61804654D01*
X98315930Y-61819070D01*
X98330346Y-61834976D01*
X98343134Y-61852219D01*
X98354170Y-61870632D01*
X98363349Y-61890038D01*
X98370581Y-61910250D01*
X98375797Y-61931074D01*
X98378947Y-61952309D01*
X98380000Y-61973750D01*
X98380000Y-62486250D01*
X98378947Y-62507691D01*
X98375797Y-62528926D01*
X98370581Y-62549750D01*
X98363349Y-62569962D01*
X98354170Y-62589368D01*
X98343134Y-62607781D01*
X98330346Y-62625024D01*
X98315930Y-62640930D01*
X98300024Y-62655346D01*
X98282781Y-62668134D01*
X98264368Y-62679170D01*
X98244962Y-62688349D01*
X98224750Y-62695581D01*
X98203926Y-62700797D01*
X98182691Y-62703947D01*
X98161250Y-62705000D01*
X97723750Y-62705000D01*
X97702309Y-62703947D01*
X97681074Y-62700797D01*
X97660250Y-62695581D01*
X97640038Y-62688349D01*
X97620632Y-62679170D01*
X97602219Y-62668134D01*
X97584976Y-62655346D01*
X97569070Y-62640930D01*
X97554654Y-62625024D01*
X97541866Y-62607781D01*
X97530830Y-62589368D01*
X97521651Y-62569962D01*
X97514419Y-62549750D01*
X97509203Y-62528926D01*
X97506053Y-62507691D01*
X97505000Y-62486250D01*
X97505000Y-61973750D01*
X97506053Y-61952309D01*
X97509203Y-61931074D01*
X97514419Y-61910250D01*
X97521651Y-61890038D01*
X97530830Y-61870632D01*
X97541866Y-61852219D01*
X97554654Y-61834976D01*
X97569070Y-61819070D01*
X97584976Y-61804654D01*
X97602219Y-61791866D01*
X97620632Y-61780830D01*
X97640038Y-61771651D01*
X97660250Y-61764419D01*
X97681074Y-61759203D01*
X97702309Y-61756053D01*
X97723750Y-61755000D01*
X98161250Y-61755000D01*
X98182691Y-61756053D01*
X98182691Y-61756053D01*
G37*
D11*
X97942500Y-62230000D03*
G04 #@! TD*
D10*
G04 #@! TO.C,C13*
G36*
X89292691Y-61756053D02*
X89313926Y-61759203D01*
X89334750Y-61764419D01*
X89354962Y-61771651D01*
X89374368Y-61780830D01*
X89392781Y-61791866D01*
X89410024Y-61804654D01*
X89425930Y-61819070D01*
X89440346Y-61834976D01*
X89453134Y-61852219D01*
X89464170Y-61870632D01*
X89473349Y-61890038D01*
X89480581Y-61910250D01*
X89485797Y-61931074D01*
X89488947Y-61952309D01*
X89490000Y-61973750D01*
X89490000Y-62486250D01*
X89488947Y-62507691D01*
X89485797Y-62528926D01*
X89480581Y-62549750D01*
X89473349Y-62569962D01*
X89464170Y-62589368D01*
X89453134Y-62607781D01*
X89440346Y-62625024D01*
X89425930Y-62640930D01*
X89410024Y-62655346D01*
X89392781Y-62668134D01*
X89374368Y-62679170D01*
X89354962Y-62688349D01*
X89334750Y-62695581D01*
X89313926Y-62700797D01*
X89292691Y-62703947D01*
X89271250Y-62705000D01*
X88833750Y-62705000D01*
X88812309Y-62703947D01*
X88791074Y-62700797D01*
X88770250Y-62695581D01*
X88750038Y-62688349D01*
X88730632Y-62679170D01*
X88712219Y-62668134D01*
X88694976Y-62655346D01*
X88679070Y-62640930D01*
X88664654Y-62625024D01*
X88651866Y-62607781D01*
X88640830Y-62589368D01*
X88631651Y-62569962D01*
X88624419Y-62549750D01*
X88619203Y-62528926D01*
X88616053Y-62507691D01*
X88615000Y-62486250D01*
X88615000Y-61973750D01*
X88616053Y-61952309D01*
X88619203Y-61931074D01*
X88624419Y-61910250D01*
X88631651Y-61890038D01*
X88640830Y-61870632D01*
X88651866Y-61852219D01*
X88664654Y-61834976D01*
X88679070Y-61819070D01*
X88694976Y-61804654D01*
X88712219Y-61791866D01*
X88730632Y-61780830D01*
X88750038Y-61771651D01*
X88770250Y-61764419D01*
X88791074Y-61759203D01*
X88812309Y-61756053D01*
X88833750Y-61755000D01*
X89271250Y-61755000D01*
X89292691Y-61756053D01*
X89292691Y-61756053D01*
G37*
D11*
X89052500Y-62230000D03*
D10*
G36*
X87717691Y-61756053D02*
X87738926Y-61759203D01*
X87759750Y-61764419D01*
X87779962Y-61771651D01*
X87799368Y-61780830D01*
X87817781Y-61791866D01*
X87835024Y-61804654D01*
X87850930Y-61819070D01*
X87865346Y-61834976D01*
X87878134Y-61852219D01*
X87889170Y-61870632D01*
X87898349Y-61890038D01*
X87905581Y-61910250D01*
X87910797Y-61931074D01*
X87913947Y-61952309D01*
X87915000Y-61973750D01*
X87915000Y-62486250D01*
X87913947Y-62507691D01*
X87910797Y-62528926D01*
X87905581Y-62549750D01*
X87898349Y-62569962D01*
X87889170Y-62589368D01*
X87878134Y-62607781D01*
X87865346Y-62625024D01*
X87850930Y-62640930D01*
X87835024Y-62655346D01*
X87817781Y-62668134D01*
X87799368Y-62679170D01*
X87779962Y-62688349D01*
X87759750Y-62695581D01*
X87738926Y-62700797D01*
X87717691Y-62703947D01*
X87696250Y-62705000D01*
X87258750Y-62705000D01*
X87237309Y-62703947D01*
X87216074Y-62700797D01*
X87195250Y-62695581D01*
X87175038Y-62688349D01*
X87155632Y-62679170D01*
X87137219Y-62668134D01*
X87119976Y-62655346D01*
X87104070Y-62640930D01*
X87089654Y-62625024D01*
X87076866Y-62607781D01*
X87065830Y-62589368D01*
X87056651Y-62569962D01*
X87049419Y-62549750D01*
X87044203Y-62528926D01*
X87041053Y-62507691D01*
X87040000Y-62486250D01*
X87040000Y-61973750D01*
X87041053Y-61952309D01*
X87044203Y-61931074D01*
X87049419Y-61910250D01*
X87056651Y-61890038D01*
X87065830Y-61870632D01*
X87076866Y-61852219D01*
X87089654Y-61834976D01*
X87104070Y-61819070D01*
X87119976Y-61804654D01*
X87137219Y-61791866D01*
X87155632Y-61780830D01*
X87175038Y-61771651D01*
X87195250Y-61764419D01*
X87216074Y-61759203D01*
X87237309Y-61756053D01*
X87258750Y-61755000D01*
X87696250Y-61755000D01*
X87717691Y-61756053D01*
X87717691Y-61756053D01*
G37*
D11*
X87477500Y-62230000D03*
G04 #@! TD*
D10*
G04 #@! TO.C,C14*
G36*
X94372691Y-35086053D02*
X94393926Y-35089203D01*
X94414750Y-35094419D01*
X94434962Y-35101651D01*
X94454368Y-35110830D01*
X94472781Y-35121866D01*
X94490024Y-35134654D01*
X94505930Y-35149070D01*
X94520346Y-35164976D01*
X94533134Y-35182219D01*
X94544170Y-35200632D01*
X94553349Y-35220038D01*
X94560581Y-35240250D01*
X94565797Y-35261074D01*
X94568947Y-35282309D01*
X94570000Y-35303750D01*
X94570000Y-35816250D01*
X94568947Y-35837691D01*
X94565797Y-35858926D01*
X94560581Y-35879750D01*
X94553349Y-35899962D01*
X94544170Y-35919368D01*
X94533134Y-35937781D01*
X94520346Y-35955024D01*
X94505930Y-35970930D01*
X94490024Y-35985346D01*
X94472781Y-35998134D01*
X94454368Y-36009170D01*
X94434962Y-36018349D01*
X94414750Y-36025581D01*
X94393926Y-36030797D01*
X94372691Y-36033947D01*
X94351250Y-36035000D01*
X93913750Y-36035000D01*
X93892309Y-36033947D01*
X93871074Y-36030797D01*
X93850250Y-36025581D01*
X93830038Y-36018349D01*
X93810632Y-36009170D01*
X93792219Y-35998134D01*
X93774976Y-35985346D01*
X93759070Y-35970930D01*
X93744654Y-35955024D01*
X93731866Y-35937781D01*
X93720830Y-35919368D01*
X93711651Y-35899962D01*
X93704419Y-35879750D01*
X93699203Y-35858926D01*
X93696053Y-35837691D01*
X93695000Y-35816250D01*
X93695000Y-35303750D01*
X93696053Y-35282309D01*
X93699203Y-35261074D01*
X93704419Y-35240250D01*
X93711651Y-35220038D01*
X93720830Y-35200632D01*
X93731866Y-35182219D01*
X93744654Y-35164976D01*
X93759070Y-35149070D01*
X93774976Y-35134654D01*
X93792219Y-35121866D01*
X93810632Y-35110830D01*
X93830038Y-35101651D01*
X93850250Y-35094419D01*
X93871074Y-35089203D01*
X93892309Y-35086053D01*
X93913750Y-35085000D01*
X94351250Y-35085000D01*
X94372691Y-35086053D01*
X94372691Y-35086053D01*
G37*
D11*
X94132500Y-35560000D03*
D10*
G36*
X92797691Y-35086053D02*
X92818926Y-35089203D01*
X92839750Y-35094419D01*
X92859962Y-35101651D01*
X92879368Y-35110830D01*
X92897781Y-35121866D01*
X92915024Y-35134654D01*
X92930930Y-35149070D01*
X92945346Y-35164976D01*
X92958134Y-35182219D01*
X92969170Y-35200632D01*
X92978349Y-35220038D01*
X92985581Y-35240250D01*
X92990797Y-35261074D01*
X92993947Y-35282309D01*
X92995000Y-35303750D01*
X92995000Y-35816250D01*
X92993947Y-35837691D01*
X92990797Y-35858926D01*
X92985581Y-35879750D01*
X92978349Y-35899962D01*
X92969170Y-35919368D01*
X92958134Y-35937781D01*
X92945346Y-35955024D01*
X92930930Y-35970930D01*
X92915024Y-35985346D01*
X92897781Y-35998134D01*
X92879368Y-36009170D01*
X92859962Y-36018349D01*
X92839750Y-36025581D01*
X92818926Y-36030797D01*
X92797691Y-36033947D01*
X92776250Y-36035000D01*
X92338750Y-36035000D01*
X92317309Y-36033947D01*
X92296074Y-36030797D01*
X92275250Y-36025581D01*
X92255038Y-36018349D01*
X92235632Y-36009170D01*
X92217219Y-35998134D01*
X92199976Y-35985346D01*
X92184070Y-35970930D01*
X92169654Y-35955024D01*
X92156866Y-35937781D01*
X92145830Y-35919368D01*
X92136651Y-35899962D01*
X92129419Y-35879750D01*
X92124203Y-35858926D01*
X92121053Y-35837691D01*
X92120000Y-35816250D01*
X92120000Y-35303750D01*
X92121053Y-35282309D01*
X92124203Y-35261074D01*
X92129419Y-35240250D01*
X92136651Y-35220038D01*
X92145830Y-35200632D01*
X92156866Y-35182219D01*
X92169654Y-35164976D01*
X92184070Y-35149070D01*
X92199976Y-35134654D01*
X92217219Y-35121866D01*
X92235632Y-35110830D01*
X92255038Y-35101651D01*
X92275250Y-35094419D01*
X92296074Y-35089203D01*
X92317309Y-35086053D01*
X92338750Y-35085000D01*
X92776250Y-35085000D01*
X92797691Y-35086053D01*
X92797691Y-35086053D01*
G37*
D11*
X92557500Y-35560000D03*
G04 #@! TD*
D10*
G04 #@! TO.C,C15*
G36*
X85482691Y-35086053D02*
X85503926Y-35089203D01*
X85524750Y-35094419D01*
X85544962Y-35101651D01*
X85564368Y-35110830D01*
X85582781Y-35121866D01*
X85600024Y-35134654D01*
X85615930Y-35149070D01*
X85630346Y-35164976D01*
X85643134Y-35182219D01*
X85654170Y-35200632D01*
X85663349Y-35220038D01*
X85670581Y-35240250D01*
X85675797Y-35261074D01*
X85678947Y-35282309D01*
X85680000Y-35303750D01*
X85680000Y-35816250D01*
X85678947Y-35837691D01*
X85675797Y-35858926D01*
X85670581Y-35879750D01*
X85663349Y-35899962D01*
X85654170Y-35919368D01*
X85643134Y-35937781D01*
X85630346Y-35955024D01*
X85615930Y-35970930D01*
X85600024Y-35985346D01*
X85582781Y-35998134D01*
X85564368Y-36009170D01*
X85544962Y-36018349D01*
X85524750Y-36025581D01*
X85503926Y-36030797D01*
X85482691Y-36033947D01*
X85461250Y-36035000D01*
X85023750Y-36035000D01*
X85002309Y-36033947D01*
X84981074Y-36030797D01*
X84960250Y-36025581D01*
X84940038Y-36018349D01*
X84920632Y-36009170D01*
X84902219Y-35998134D01*
X84884976Y-35985346D01*
X84869070Y-35970930D01*
X84854654Y-35955024D01*
X84841866Y-35937781D01*
X84830830Y-35919368D01*
X84821651Y-35899962D01*
X84814419Y-35879750D01*
X84809203Y-35858926D01*
X84806053Y-35837691D01*
X84805000Y-35816250D01*
X84805000Y-35303750D01*
X84806053Y-35282309D01*
X84809203Y-35261074D01*
X84814419Y-35240250D01*
X84821651Y-35220038D01*
X84830830Y-35200632D01*
X84841866Y-35182219D01*
X84854654Y-35164976D01*
X84869070Y-35149070D01*
X84884976Y-35134654D01*
X84902219Y-35121866D01*
X84920632Y-35110830D01*
X84940038Y-35101651D01*
X84960250Y-35094419D01*
X84981074Y-35089203D01*
X85002309Y-35086053D01*
X85023750Y-35085000D01*
X85461250Y-35085000D01*
X85482691Y-35086053D01*
X85482691Y-35086053D01*
G37*
D11*
X85242500Y-35560000D03*
D10*
G36*
X83907691Y-35086053D02*
X83928926Y-35089203D01*
X83949750Y-35094419D01*
X83969962Y-35101651D01*
X83989368Y-35110830D01*
X84007781Y-35121866D01*
X84025024Y-35134654D01*
X84040930Y-35149070D01*
X84055346Y-35164976D01*
X84068134Y-35182219D01*
X84079170Y-35200632D01*
X84088349Y-35220038D01*
X84095581Y-35240250D01*
X84100797Y-35261074D01*
X84103947Y-35282309D01*
X84105000Y-35303750D01*
X84105000Y-35816250D01*
X84103947Y-35837691D01*
X84100797Y-35858926D01*
X84095581Y-35879750D01*
X84088349Y-35899962D01*
X84079170Y-35919368D01*
X84068134Y-35937781D01*
X84055346Y-35955024D01*
X84040930Y-35970930D01*
X84025024Y-35985346D01*
X84007781Y-35998134D01*
X83989368Y-36009170D01*
X83969962Y-36018349D01*
X83949750Y-36025581D01*
X83928926Y-36030797D01*
X83907691Y-36033947D01*
X83886250Y-36035000D01*
X83448750Y-36035000D01*
X83427309Y-36033947D01*
X83406074Y-36030797D01*
X83385250Y-36025581D01*
X83365038Y-36018349D01*
X83345632Y-36009170D01*
X83327219Y-35998134D01*
X83309976Y-35985346D01*
X83294070Y-35970930D01*
X83279654Y-35955024D01*
X83266866Y-35937781D01*
X83255830Y-35919368D01*
X83246651Y-35899962D01*
X83239419Y-35879750D01*
X83234203Y-35858926D01*
X83231053Y-35837691D01*
X83230000Y-35816250D01*
X83230000Y-35303750D01*
X83231053Y-35282309D01*
X83234203Y-35261074D01*
X83239419Y-35240250D01*
X83246651Y-35220038D01*
X83255830Y-35200632D01*
X83266866Y-35182219D01*
X83279654Y-35164976D01*
X83294070Y-35149070D01*
X83309976Y-35134654D01*
X83327219Y-35121866D01*
X83345632Y-35110830D01*
X83365038Y-35101651D01*
X83385250Y-35094419D01*
X83406074Y-35089203D01*
X83427309Y-35086053D01*
X83448750Y-35085000D01*
X83886250Y-35085000D01*
X83907691Y-35086053D01*
X83907691Y-35086053D01*
G37*
D11*
X83667500Y-35560000D03*
G04 #@! TD*
D10*
G04 #@! TO.C,C16*
G36*
X94372691Y-61756053D02*
X94393926Y-61759203D01*
X94414750Y-61764419D01*
X94434962Y-61771651D01*
X94454368Y-61780830D01*
X94472781Y-61791866D01*
X94490024Y-61804654D01*
X94505930Y-61819070D01*
X94520346Y-61834976D01*
X94533134Y-61852219D01*
X94544170Y-61870632D01*
X94553349Y-61890038D01*
X94560581Y-61910250D01*
X94565797Y-61931074D01*
X94568947Y-61952309D01*
X94570000Y-61973750D01*
X94570000Y-62486250D01*
X94568947Y-62507691D01*
X94565797Y-62528926D01*
X94560581Y-62549750D01*
X94553349Y-62569962D01*
X94544170Y-62589368D01*
X94533134Y-62607781D01*
X94520346Y-62625024D01*
X94505930Y-62640930D01*
X94490024Y-62655346D01*
X94472781Y-62668134D01*
X94454368Y-62679170D01*
X94434962Y-62688349D01*
X94414750Y-62695581D01*
X94393926Y-62700797D01*
X94372691Y-62703947D01*
X94351250Y-62705000D01*
X93913750Y-62705000D01*
X93892309Y-62703947D01*
X93871074Y-62700797D01*
X93850250Y-62695581D01*
X93830038Y-62688349D01*
X93810632Y-62679170D01*
X93792219Y-62668134D01*
X93774976Y-62655346D01*
X93759070Y-62640930D01*
X93744654Y-62625024D01*
X93731866Y-62607781D01*
X93720830Y-62589368D01*
X93711651Y-62569962D01*
X93704419Y-62549750D01*
X93699203Y-62528926D01*
X93696053Y-62507691D01*
X93695000Y-62486250D01*
X93695000Y-61973750D01*
X93696053Y-61952309D01*
X93699203Y-61931074D01*
X93704419Y-61910250D01*
X93711651Y-61890038D01*
X93720830Y-61870632D01*
X93731866Y-61852219D01*
X93744654Y-61834976D01*
X93759070Y-61819070D01*
X93774976Y-61804654D01*
X93792219Y-61791866D01*
X93810632Y-61780830D01*
X93830038Y-61771651D01*
X93850250Y-61764419D01*
X93871074Y-61759203D01*
X93892309Y-61756053D01*
X93913750Y-61755000D01*
X94351250Y-61755000D01*
X94372691Y-61756053D01*
X94372691Y-61756053D01*
G37*
D11*
X94132500Y-62230000D03*
D10*
G36*
X92797691Y-61756053D02*
X92818926Y-61759203D01*
X92839750Y-61764419D01*
X92859962Y-61771651D01*
X92879368Y-61780830D01*
X92897781Y-61791866D01*
X92915024Y-61804654D01*
X92930930Y-61819070D01*
X92945346Y-61834976D01*
X92958134Y-61852219D01*
X92969170Y-61870632D01*
X92978349Y-61890038D01*
X92985581Y-61910250D01*
X92990797Y-61931074D01*
X92993947Y-61952309D01*
X92995000Y-61973750D01*
X92995000Y-62486250D01*
X92993947Y-62507691D01*
X92990797Y-62528926D01*
X92985581Y-62549750D01*
X92978349Y-62569962D01*
X92969170Y-62589368D01*
X92958134Y-62607781D01*
X92945346Y-62625024D01*
X92930930Y-62640930D01*
X92915024Y-62655346D01*
X92897781Y-62668134D01*
X92879368Y-62679170D01*
X92859962Y-62688349D01*
X92839750Y-62695581D01*
X92818926Y-62700797D01*
X92797691Y-62703947D01*
X92776250Y-62705000D01*
X92338750Y-62705000D01*
X92317309Y-62703947D01*
X92296074Y-62700797D01*
X92275250Y-62695581D01*
X92255038Y-62688349D01*
X92235632Y-62679170D01*
X92217219Y-62668134D01*
X92199976Y-62655346D01*
X92184070Y-62640930D01*
X92169654Y-62625024D01*
X92156866Y-62607781D01*
X92145830Y-62589368D01*
X92136651Y-62569962D01*
X92129419Y-62549750D01*
X92124203Y-62528926D01*
X92121053Y-62507691D01*
X92120000Y-62486250D01*
X92120000Y-61973750D01*
X92121053Y-61952309D01*
X92124203Y-61931074D01*
X92129419Y-61910250D01*
X92136651Y-61890038D01*
X92145830Y-61870632D01*
X92156866Y-61852219D01*
X92169654Y-61834976D01*
X92184070Y-61819070D01*
X92199976Y-61804654D01*
X92217219Y-61791866D01*
X92235632Y-61780830D01*
X92255038Y-61771651D01*
X92275250Y-61764419D01*
X92296074Y-61759203D01*
X92317309Y-61756053D01*
X92338750Y-61755000D01*
X92776250Y-61755000D01*
X92797691Y-61756053D01*
X92797691Y-61756053D01*
G37*
D11*
X92557500Y-62230000D03*
G04 #@! TD*
D10*
G04 #@! TO.C,C17*
G36*
X83907691Y-61756053D02*
X83928926Y-61759203D01*
X83949750Y-61764419D01*
X83969962Y-61771651D01*
X83989368Y-61780830D01*
X84007781Y-61791866D01*
X84025024Y-61804654D01*
X84040930Y-61819070D01*
X84055346Y-61834976D01*
X84068134Y-61852219D01*
X84079170Y-61870632D01*
X84088349Y-61890038D01*
X84095581Y-61910250D01*
X84100797Y-61931074D01*
X84103947Y-61952309D01*
X84105000Y-61973750D01*
X84105000Y-62486250D01*
X84103947Y-62507691D01*
X84100797Y-62528926D01*
X84095581Y-62549750D01*
X84088349Y-62569962D01*
X84079170Y-62589368D01*
X84068134Y-62607781D01*
X84055346Y-62625024D01*
X84040930Y-62640930D01*
X84025024Y-62655346D01*
X84007781Y-62668134D01*
X83989368Y-62679170D01*
X83969962Y-62688349D01*
X83949750Y-62695581D01*
X83928926Y-62700797D01*
X83907691Y-62703947D01*
X83886250Y-62705000D01*
X83448750Y-62705000D01*
X83427309Y-62703947D01*
X83406074Y-62700797D01*
X83385250Y-62695581D01*
X83365038Y-62688349D01*
X83345632Y-62679170D01*
X83327219Y-62668134D01*
X83309976Y-62655346D01*
X83294070Y-62640930D01*
X83279654Y-62625024D01*
X83266866Y-62607781D01*
X83255830Y-62589368D01*
X83246651Y-62569962D01*
X83239419Y-62549750D01*
X83234203Y-62528926D01*
X83231053Y-62507691D01*
X83230000Y-62486250D01*
X83230000Y-61973750D01*
X83231053Y-61952309D01*
X83234203Y-61931074D01*
X83239419Y-61910250D01*
X83246651Y-61890038D01*
X83255830Y-61870632D01*
X83266866Y-61852219D01*
X83279654Y-61834976D01*
X83294070Y-61819070D01*
X83309976Y-61804654D01*
X83327219Y-61791866D01*
X83345632Y-61780830D01*
X83365038Y-61771651D01*
X83385250Y-61764419D01*
X83406074Y-61759203D01*
X83427309Y-61756053D01*
X83448750Y-61755000D01*
X83886250Y-61755000D01*
X83907691Y-61756053D01*
X83907691Y-61756053D01*
G37*
D11*
X83667500Y-62230000D03*
D10*
G36*
X85482691Y-61756053D02*
X85503926Y-61759203D01*
X85524750Y-61764419D01*
X85544962Y-61771651D01*
X85564368Y-61780830D01*
X85582781Y-61791866D01*
X85600024Y-61804654D01*
X85615930Y-61819070D01*
X85630346Y-61834976D01*
X85643134Y-61852219D01*
X85654170Y-61870632D01*
X85663349Y-61890038D01*
X85670581Y-61910250D01*
X85675797Y-61931074D01*
X85678947Y-61952309D01*
X85680000Y-61973750D01*
X85680000Y-62486250D01*
X85678947Y-62507691D01*
X85675797Y-62528926D01*
X85670581Y-62549750D01*
X85663349Y-62569962D01*
X85654170Y-62589368D01*
X85643134Y-62607781D01*
X85630346Y-62625024D01*
X85615930Y-62640930D01*
X85600024Y-62655346D01*
X85582781Y-62668134D01*
X85564368Y-62679170D01*
X85544962Y-62688349D01*
X85524750Y-62695581D01*
X85503926Y-62700797D01*
X85482691Y-62703947D01*
X85461250Y-62705000D01*
X85023750Y-62705000D01*
X85002309Y-62703947D01*
X84981074Y-62700797D01*
X84960250Y-62695581D01*
X84940038Y-62688349D01*
X84920632Y-62679170D01*
X84902219Y-62668134D01*
X84884976Y-62655346D01*
X84869070Y-62640930D01*
X84854654Y-62625024D01*
X84841866Y-62607781D01*
X84830830Y-62589368D01*
X84821651Y-62569962D01*
X84814419Y-62549750D01*
X84809203Y-62528926D01*
X84806053Y-62507691D01*
X84805000Y-62486250D01*
X84805000Y-61973750D01*
X84806053Y-61952309D01*
X84809203Y-61931074D01*
X84814419Y-61910250D01*
X84821651Y-61890038D01*
X84830830Y-61870632D01*
X84841866Y-61852219D01*
X84854654Y-61834976D01*
X84869070Y-61819070D01*
X84884976Y-61804654D01*
X84902219Y-61791866D01*
X84920632Y-61780830D01*
X84940038Y-61771651D01*
X84960250Y-61764419D01*
X84981074Y-61759203D01*
X85002309Y-61756053D01*
X85023750Y-61755000D01*
X85461250Y-61755000D01*
X85482691Y-61756053D01*
X85482691Y-61756053D01*
G37*
D11*
X85242500Y-62230000D03*
G04 #@! TD*
D10*
G04 #@! TO.C,C18*
G36*
X92797691Y-36991053D02*
X92818926Y-36994203D01*
X92839750Y-36999419D01*
X92859962Y-37006651D01*
X92879368Y-37015830D01*
X92897781Y-37026866D01*
X92915024Y-37039654D01*
X92930930Y-37054070D01*
X92945346Y-37069976D01*
X92958134Y-37087219D01*
X92969170Y-37105632D01*
X92978349Y-37125038D01*
X92985581Y-37145250D01*
X92990797Y-37166074D01*
X92993947Y-37187309D01*
X92995000Y-37208750D01*
X92995000Y-37721250D01*
X92993947Y-37742691D01*
X92990797Y-37763926D01*
X92985581Y-37784750D01*
X92978349Y-37804962D01*
X92969170Y-37824368D01*
X92958134Y-37842781D01*
X92945346Y-37860024D01*
X92930930Y-37875930D01*
X92915024Y-37890346D01*
X92897781Y-37903134D01*
X92879368Y-37914170D01*
X92859962Y-37923349D01*
X92839750Y-37930581D01*
X92818926Y-37935797D01*
X92797691Y-37938947D01*
X92776250Y-37940000D01*
X92338750Y-37940000D01*
X92317309Y-37938947D01*
X92296074Y-37935797D01*
X92275250Y-37930581D01*
X92255038Y-37923349D01*
X92235632Y-37914170D01*
X92217219Y-37903134D01*
X92199976Y-37890346D01*
X92184070Y-37875930D01*
X92169654Y-37860024D01*
X92156866Y-37842781D01*
X92145830Y-37824368D01*
X92136651Y-37804962D01*
X92129419Y-37784750D01*
X92124203Y-37763926D01*
X92121053Y-37742691D01*
X92120000Y-37721250D01*
X92120000Y-37208750D01*
X92121053Y-37187309D01*
X92124203Y-37166074D01*
X92129419Y-37145250D01*
X92136651Y-37125038D01*
X92145830Y-37105632D01*
X92156866Y-37087219D01*
X92169654Y-37069976D01*
X92184070Y-37054070D01*
X92199976Y-37039654D01*
X92217219Y-37026866D01*
X92235632Y-37015830D01*
X92255038Y-37006651D01*
X92275250Y-36999419D01*
X92296074Y-36994203D01*
X92317309Y-36991053D01*
X92338750Y-36990000D01*
X92776250Y-36990000D01*
X92797691Y-36991053D01*
X92797691Y-36991053D01*
G37*
D11*
X92557500Y-37465000D03*
D10*
G36*
X94372691Y-36991053D02*
X94393926Y-36994203D01*
X94414750Y-36999419D01*
X94434962Y-37006651D01*
X94454368Y-37015830D01*
X94472781Y-37026866D01*
X94490024Y-37039654D01*
X94505930Y-37054070D01*
X94520346Y-37069976D01*
X94533134Y-37087219D01*
X94544170Y-37105632D01*
X94553349Y-37125038D01*
X94560581Y-37145250D01*
X94565797Y-37166074D01*
X94568947Y-37187309D01*
X94570000Y-37208750D01*
X94570000Y-37721250D01*
X94568947Y-37742691D01*
X94565797Y-37763926D01*
X94560581Y-37784750D01*
X94553349Y-37804962D01*
X94544170Y-37824368D01*
X94533134Y-37842781D01*
X94520346Y-37860024D01*
X94505930Y-37875930D01*
X94490024Y-37890346D01*
X94472781Y-37903134D01*
X94454368Y-37914170D01*
X94434962Y-37923349D01*
X94414750Y-37930581D01*
X94393926Y-37935797D01*
X94372691Y-37938947D01*
X94351250Y-37940000D01*
X93913750Y-37940000D01*
X93892309Y-37938947D01*
X93871074Y-37935797D01*
X93850250Y-37930581D01*
X93830038Y-37923349D01*
X93810632Y-37914170D01*
X93792219Y-37903134D01*
X93774976Y-37890346D01*
X93759070Y-37875930D01*
X93744654Y-37860024D01*
X93731866Y-37842781D01*
X93720830Y-37824368D01*
X93711651Y-37804962D01*
X93704419Y-37784750D01*
X93699203Y-37763926D01*
X93696053Y-37742691D01*
X93695000Y-37721250D01*
X93695000Y-37208750D01*
X93696053Y-37187309D01*
X93699203Y-37166074D01*
X93704419Y-37145250D01*
X93711651Y-37125038D01*
X93720830Y-37105632D01*
X93731866Y-37087219D01*
X93744654Y-37069976D01*
X93759070Y-37054070D01*
X93774976Y-37039654D01*
X93792219Y-37026866D01*
X93810632Y-37015830D01*
X93830038Y-37006651D01*
X93850250Y-36999419D01*
X93871074Y-36994203D01*
X93892309Y-36991053D01*
X93913750Y-36990000D01*
X94351250Y-36990000D01*
X94372691Y-36991053D01*
X94372691Y-36991053D01*
G37*
D11*
X94132500Y-37465000D03*
G04 #@! TD*
D10*
G04 #@! TO.C,C19*
G36*
X83907691Y-36991053D02*
X83928926Y-36994203D01*
X83949750Y-36999419D01*
X83969962Y-37006651D01*
X83989368Y-37015830D01*
X84007781Y-37026866D01*
X84025024Y-37039654D01*
X84040930Y-37054070D01*
X84055346Y-37069976D01*
X84068134Y-37087219D01*
X84079170Y-37105632D01*
X84088349Y-37125038D01*
X84095581Y-37145250D01*
X84100797Y-37166074D01*
X84103947Y-37187309D01*
X84105000Y-37208750D01*
X84105000Y-37721250D01*
X84103947Y-37742691D01*
X84100797Y-37763926D01*
X84095581Y-37784750D01*
X84088349Y-37804962D01*
X84079170Y-37824368D01*
X84068134Y-37842781D01*
X84055346Y-37860024D01*
X84040930Y-37875930D01*
X84025024Y-37890346D01*
X84007781Y-37903134D01*
X83989368Y-37914170D01*
X83969962Y-37923349D01*
X83949750Y-37930581D01*
X83928926Y-37935797D01*
X83907691Y-37938947D01*
X83886250Y-37940000D01*
X83448750Y-37940000D01*
X83427309Y-37938947D01*
X83406074Y-37935797D01*
X83385250Y-37930581D01*
X83365038Y-37923349D01*
X83345632Y-37914170D01*
X83327219Y-37903134D01*
X83309976Y-37890346D01*
X83294070Y-37875930D01*
X83279654Y-37860024D01*
X83266866Y-37842781D01*
X83255830Y-37824368D01*
X83246651Y-37804962D01*
X83239419Y-37784750D01*
X83234203Y-37763926D01*
X83231053Y-37742691D01*
X83230000Y-37721250D01*
X83230000Y-37208750D01*
X83231053Y-37187309D01*
X83234203Y-37166074D01*
X83239419Y-37145250D01*
X83246651Y-37125038D01*
X83255830Y-37105632D01*
X83266866Y-37087219D01*
X83279654Y-37069976D01*
X83294070Y-37054070D01*
X83309976Y-37039654D01*
X83327219Y-37026866D01*
X83345632Y-37015830D01*
X83365038Y-37006651D01*
X83385250Y-36999419D01*
X83406074Y-36994203D01*
X83427309Y-36991053D01*
X83448750Y-36990000D01*
X83886250Y-36990000D01*
X83907691Y-36991053D01*
X83907691Y-36991053D01*
G37*
D11*
X83667500Y-37465000D03*
D10*
G36*
X85482691Y-36991053D02*
X85503926Y-36994203D01*
X85524750Y-36999419D01*
X85544962Y-37006651D01*
X85564368Y-37015830D01*
X85582781Y-37026866D01*
X85600024Y-37039654D01*
X85615930Y-37054070D01*
X85630346Y-37069976D01*
X85643134Y-37087219D01*
X85654170Y-37105632D01*
X85663349Y-37125038D01*
X85670581Y-37145250D01*
X85675797Y-37166074D01*
X85678947Y-37187309D01*
X85680000Y-37208750D01*
X85680000Y-37721250D01*
X85678947Y-37742691D01*
X85675797Y-37763926D01*
X85670581Y-37784750D01*
X85663349Y-37804962D01*
X85654170Y-37824368D01*
X85643134Y-37842781D01*
X85630346Y-37860024D01*
X85615930Y-37875930D01*
X85600024Y-37890346D01*
X85582781Y-37903134D01*
X85564368Y-37914170D01*
X85544962Y-37923349D01*
X85524750Y-37930581D01*
X85503926Y-37935797D01*
X85482691Y-37938947D01*
X85461250Y-37940000D01*
X85023750Y-37940000D01*
X85002309Y-37938947D01*
X84981074Y-37935797D01*
X84960250Y-37930581D01*
X84940038Y-37923349D01*
X84920632Y-37914170D01*
X84902219Y-37903134D01*
X84884976Y-37890346D01*
X84869070Y-37875930D01*
X84854654Y-37860024D01*
X84841866Y-37842781D01*
X84830830Y-37824368D01*
X84821651Y-37804962D01*
X84814419Y-37784750D01*
X84809203Y-37763926D01*
X84806053Y-37742691D01*
X84805000Y-37721250D01*
X84805000Y-37208750D01*
X84806053Y-37187309D01*
X84809203Y-37166074D01*
X84814419Y-37145250D01*
X84821651Y-37125038D01*
X84830830Y-37105632D01*
X84841866Y-37087219D01*
X84854654Y-37069976D01*
X84869070Y-37054070D01*
X84884976Y-37039654D01*
X84902219Y-37026866D01*
X84920632Y-37015830D01*
X84940038Y-37006651D01*
X84960250Y-36999419D01*
X84981074Y-36994203D01*
X85002309Y-36991053D01*
X85023750Y-36990000D01*
X85461250Y-36990000D01*
X85482691Y-36991053D01*
X85482691Y-36991053D01*
G37*
D11*
X85242500Y-37465000D03*
G04 #@! TD*
D10*
G04 #@! TO.C,C20*
G36*
X92797691Y-63661053D02*
X92818926Y-63664203D01*
X92839750Y-63669419D01*
X92859962Y-63676651D01*
X92879368Y-63685830D01*
X92897781Y-63696866D01*
X92915024Y-63709654D01*
X92930930Y-63724070D01*
X92945346Y-63739976D01*
X92958134Y-63757219D01*
X92969170Y-63775632D01*
X92978349Y-63795038D01*
X92985581Y-63815250D01*
X92990797Y-63836074D01*
X92993947Y-63857309D01*
X92995000Y-63878750D01*
X92995000Y-64391250D01*
X92993947Y-64412691D01*
X92990797Y-64433926D01*
X92985581Y-64454750D01*
X92978349Y-64474962D01*
X92969170Y-64494368D01*
X92958134Y-64512781D01*
X92945346Y-64530024D01*
X92930930Y-64545930D01*
X92915024Y-64560346D01*
X92897781Y-64573134D01*
X92879368Y-64584170D01*
X92859962Y-64593349D01*
X92839750Y-64600581D01*
X92818926Y-64605797D01*
X92797691Y-64608947D01*
X92776250Y-64610000D01*
X92338750Y-64610000D01*
X92317309Y-64608947D01*
X92296074Y-64605797D01*
X92275250Y-64600581D01*
X92255038Y-64593349D01*
X92235632Y-64584170D01*
X92217219Y-64573134D01*
X92199976Y-64560346D01*
X92184070Y-64545930D01*
X92169654Y-64530024D01*
X92156866Y-64512781D01*
X92145830Y-64494368D01*
X92136651Y-64474962D01*
X92129419Y-64454750D01*
X92124203Y-64433926D01*
X92121053Y-64412691D01*
X92120000Y-64391250D01*
X92120000Y-63878750D01*
X92121053Y-63857309D01*
X92124203Y-63836074D01*
X92129419Y-63815250D01*
X92136651Y-63795038D01*
X92145830Y-63775632D01*
X92156866Y-63757219D01*
X92169654Y-63739976D01*
X92184070Y-63724070D01*
X92199976Y-63709654D01*
X92217219Y-63696866D01*
X92235632Y-63685830D01*
X92255038Y-63676651D01*
X92275250Y-63669419D01*
X92296074Y-63664203D01*
X92317309Y-63661053D01*
X92338750Y-63660000D01*
X92776250Y-63660000D01*
X92797691Y-63661053D01*
X92797691Y-63661053D01*
G37*
D11*
X92557500Y-64135000D03*
D10*
G36*
X94372691Y-63661053D02*
X94393926Y-63664203D01*
X94414750Y-63669419D01*
X94434962Y-63676651D01*
X94454368Y-63685830D01*
X94472781Y-63696866D01*
X94490024Y-63709654D01*
X94505930Y-63724070D01*
X94520346Y-63739976D01*
X94533134Y-63757219D01*
X94544170Y-63775632D01*
X94553349Y-63795038D01*
X94560581Y-63815250D01*
X94565797Y-63836074D01*
X94568947Y-63857309D01*
X94570000Y-63878750D01*
X94570000Y-64391250D01*
X94568947Y-64412691D01*
X94565797Y-64433926D01*
X94560581Y-64454750D01*
X94553349Y-64474962D01*
X94544170Y-64494368D01*
X94533134Y-64512781D01*
X94520346Y-64530024D01*
X94505930Y-64545930D01*
X94490024Y-64560346D01*
X94472781Y-64573134D01*
X94454368Y-64584170D01*
X94434962Y-64593349D01*
X94414750Y-64600581D01*
X94393926Y-64605797D01*
X94372691Y-64608947D01*
X94351250Y-64610000D01*
X93913750Y-64610000D01*
X93892309Y-64608947D01*
X93871074Y-64605797D01*
X93850250Y-64600581D01*
X93830038Y-64593349D01*
X93810632Y-64584170D01*
X93792219Y-64573134D01*
X93774976Y-64560346D01*
X93759070Y-64545930D01*
X93744654Y-64530024D01*
X93731866Y-64512781D01*
X93720830Y-64494368D01*
X93711651Y-64474962D01*
X93704419Y-64454750D01*
X93699203Y-64433926D01*
X93696053Y-64412691D01*
X93695000Y-64391250D01*
X93695000Y-63878750D01*
X93696053Y-63857309D01*
X93699203Y-63836074D01*
X93704419Y-63815250D01*
X93711651Y-63795038D01*
X93720830Y-63775632D01*
X93731866Y-63757219D01*
X93744654Y-63739976D01*
X93759070Y-63724070D01*
X93774976Y-63709654D01*
X93792219Y-63696866D01*
X93810632Y-63685830D01*
X93830038Y-63676651D01*
X93850250Y-63669419D01*
X93871074Y-63664203D01*
X93892309Y-63661053D01*
X93913750Y-63660000D01*
X94351250Y-63660000D01*
X94372691Y-63661053D01*
X94372691Y-63661053D01*
G37*
D11*
X94132500Y-64135000D03*
G04 #@! TD*
D10*
G04 #@! TO.C,C21*
G36*
X85482691Y-63661053D02*
X85503926Y-63664203D01*
X85524750Y-63669419D01*
X85544962Y-63676651D01*
X85564368Y-63685830D01*
X85582781Y-63696866D01*
X85600024Y-63709654D01*
X85615930Y-63724070D01*
X85630346Y-63739976D01*
X85643134Y-63757219D01*
X85654170Y-63775632D01*
X85663349Y-63795038D01*
X85670581Y-63815250D01*
X85675797Y-63836074D01*
X85678947Y-63857309D01*
X85680000Y-63878750D01*
X85680000Y-64391250D01*
X85678947Y-64412691D01*
X85675797Y-64433926D01*
X85670581Y-64454750D01*
X85663349Y-64474962D01*
X85654170Y-64494368D01*
X85643134Y-64512781D01*
X85630346Y-64530024D01*
X85615930Y-64545930D01*
X85600024Y-64560346D01*
X85582781Y-64573134D01*
X85564368Y-64584170D01*
X85544962Y-64593349D01*
X85524750Y-64600581D01*
X85503926Y-64605797D01*
X85482691Y-64608947D01*
X85461250Y-64610000D01*
X85023750Y-64610000D01*
X85002309Y-64608947D01*
X84981074Y-64605797D01*
X84960250Y-64600581D01*
X84940038Y-64593349D01*
X84920632Y-64584170D01*
X84902219Y-64573134D01*
X84884976Y-64560346D01*
X84869070Y-64545930D01*
X84854654Y-64530024D01*
X84841866Y-64512781D01*
X84830830Y-64494368D01*
X84821651Y-64474962D01*
X84814419Y-64454750D01*
X84809203Y-64433926D01*
X84806053Y-64412691D01*
X84805000Y-64391250D01*
X84805000Y-63878750D01*
X84806053Y-63857309D01*
X84809203Y-63836074D01*
X84814419Y-63815250D01*
X84821651Y-63795038D01*
X84830830Y-63775632D01*
X84841866Y-63757219D01*
X84854654Y-63739976D01*
X84869070Y-63724070D01*
X84884976Y-63709654D01*
X84902219Y-63696866D01*
X84920632Y-63685830D01*
X84940038Y-63676651D01*
X84960250Y-63669419D01*
X84981074Y-63664203D01*
X85002309Y-63661053D01*
X85023750Y-63660000D01*
X85461250Y-63660000D01*
X85482691Y-63661053D01*
X85482691Y-63661053D01*
G37*
D11*
X85242500Y-64135000D03*
D10*
G36*
X83907691Y-63661053D02*
X83928926Y-63664203D01*
X83949750Y-63669419D01*
X83969962Y-63676651D01*
X83989368Y-63685830D01*
X84007781Y-63696866D01*
X84025024Y-63709654D01*
X84040930Y-63724070D01*
X84055346Y-63739976D01*
X84068134Y-63757219D01*
X84079170Y-63775632D01*
X84088349Y-63795038D01*
X84095581Y-63815250D01*
X84100797Y-63836074D01*
X84103947Y-63857309D01*
X84105000Y-63878750D01*
X84105000Y-64391250D01*
X84103947Y-64412691D01*
X84100797Y-64433926D01*
X84095581Y-64454750D01*
X84088349Y-64474962D01*
X84079170Y-64494368D01*
X84068134Y-64512781D01*
X84055346Y-64530024D01*
X84040930Y-64545930D01*
X84025024Y-64560346D01*
X84007781Y-64573134D01*
X83989368Y-64584170D01*
X83969962Y-64593349D01*
X83949750Y-64600581D01*
X83928926Y-64605797D01*
X83907691Y-64608947D01*
X83886250Y-64610000D01*
X83448750Y-64610000D01*
X83427309Y-64608947D01*
X83406074Y-64605797D01*
X83385250Y-64600581D01*
X83365038Y-64593349D01*
X83345632Y-64584170D01*
X83327219Y-64573134D01*
X83309976Y-64560346D01*
X83294070Y-64545930D01*
X83279654Y-64530024D01*
X83266866Y-64512781D01*
X83255830Y-64494368D01*
X83246651Y-64474962D01*
X83239419Y-64454750D01*
X83234203Y-64433926D01*
X83231053Y-64412691D01*
X83230000Y-64391250D01*
X83230000Y-63878750D01*
X83231053Y-63857309D01*
X83234203Y-63836074D01*
X83239419Y-63815250D01*
X83246651Y-63795038D01*
X83255830Y-63775632D01*
X83266866Y-63757219D01*
X83279654Y-63739976D01*
X83294070Y-63724070D01*
X83309976Y-63709654D01*
X83327219Y-63696866D01*
X83345632Y-63685830D01*
X83365038Y-63676651D01*
X83385250Y-63669419D01*
X83406074Y-63664203D01*
X83427309Y-63661053D01*
X83448750Y-63660000D01*
X83886250Y-63660000D01*
X83907691Y-63661053D01*
X83907691Y-63661053D01*
G37*
D11*
X83667500Y-64135000D03*
G04 #@! TD*
M02*
